<?xml version="1.0" encoding="UTF-8"?>
<svg width="55px" height="713px" viewBox="0 0 55 713" version="1.1" xmlns="http://www.w3.org/2000/svg" xmlns:xlink="http://www.w3.org/1999/xlink">
    <!-- Generator: Sketch 52.5 (67469) - http://www.bohemiancoding.com/sketch -->
    <title>Group 4</title>
    <desc>Created with Sketch.</desc>
    <g id="Desktop-Display" stroke="none" stroke-width="1" fill="none" fill-rule="evenodd">
        <g id="Desktop---Players-Connected" transform="translate(0.000000, -31.000000)">
            <g id="Group-4" transform="translate(-55.000000, 31.000000)">
                <g id="Neptune" transform="translate(18.000000, 492.174295)">
                    <path d="M73,36.1186651 C73.0073445,40.8268434 72.0882731,45.4904576 70.2951579,49.8437578 L70.1568421,50.18189 C70.0723158,50.3816954 69.9877895,50.5815008 69.8955789,50.7813062 L69.8264211,50.9273178 C69.4268421,51.826442 68.9888421,52.7025118 68.5047368,53.555527 C68.5047368,53.6246904 68.4355789,53.686169 68.3971579,53.7553324 C68.2665263,54.0089316 68.1205263,54.2548459 67.9745263,54.5238147 C67.8285263,54.7927834 67.6594737,55.0463826 67.4981053,55.2922969 C67.4727531,55.340073 67.4445258,55.3862668 67.4135789,55.4306237 C66.3493463,57.1136145 65.146429,58.7047792 63.8173684,60.1875287 C63.218,60.8637931 62.5878947,61.5093182 61.9347368,62.1317888 C60.9629779,63.0678001 59.9366181,63.9454076 58.8610526,64.759998 L58.5921053,64.9674882 C57.8236842,65.5669044 56.9784211,66.1355812 56.1331579,66.665834 C54.8884916,67.4701237 53.5921734,68.1914988 52.2526316,68.8252691 C40.1915322,74.4794842 25.9975185,73.0351593 15.3223158,65.0673909 C15.1302105,64.9290641 14.9457895,64.7830525 14.7613684,64.6370409 L13.9929474,64.0222551 C13.4934737,63.6149595 12.994,63.1846095 12.5175789,62.7388898 L12.2947368,62.5621388 C11.9643158,62.254746 11.6338947,61.9396682 11.3188421,61.6245905 C9.83899966,60.1442458 8.49167407,58.5370979 7.29231579,56.8215765 L7.154,56.6217712 C6.54322764,55.7568752 5.97643827,54.8617383 5.45578947,53.9397682 C5.27136842,53.6170056 5.09463158,53.2942431 4.92557895,52.9637957 C4.75652632,52.6333484 4.51063158,52.1953135 4.31852632,51.7572786 C4.18021053,51.4729402 4.04957895,51.1809169 3.91894737,50.8888937 C3.83442105,50.7198276 3.76526316,50.5507615 3.68842105,50.3740106 C3.358,49.6055283 3.066,48.8370461 2.79705263,48.0685639 L2.75094737,47.9379219 C1.56494151,44.5321663 0.896659014,40.9677092 0.768421053,37.3636063 L0.768421053,37.0562134 C0.768421053,36.7411357 0.768421053,36.4337428 0.768421053,36.1186651 C0.768421053,35.8035874 0.768421053,35.3501829 0.768421053,34.9813114 C0.768421053,34.2589381 0.837578947,33.5365648 0.906736842,32.8295611 L0.906736842,32.7680825 C0.910533633,32.7400328 0.910533633,32.7115993 0.906736842,32.6835495 C0.906736842,32.6835495 0.906736842,32.6451254 0.906736842,32.6297557 C0.906736842,32.3915263 0.952842105,32.1532968 0.983578947,31.9227521 C1.45716991,27.8056715 2.65377664,23.8045244 4.51831579,20.1034953 C4.57978947,19.9728533 4.64126316,19.8422113 4.71042105,19.7115694 C5.00242105,19.1275229 5.31747368,18.558846 5.64021053,17.997854 C5.6576698,17.9578879 5.67822352,17.9193466 5.70168421,17.8825816 C5.87842105,17.5828736 6.05515789,17.2908503 6.23957895,16.9988271 C6.76978947,16.1458118 7.33842105,15.3081661 7.93778947,14.5089446 C9.07412937,12.9913367 10.330709,11.5676137 11.6953684,10.251553 C11.826,10.1285959 11.9489474,10.0056387 12.0795789,9.8980512 C12.7404211,9.26789577 13.4166316,8.67616445 14.1235789,8.10748759 L14.3156842,7.94610632 C15.3968994,7.07472257 16.5312267,6.27139065 17.7121053,5.54075692 C17.8504211,5.44853905 17.9964211,5.36400601 18.1424211,5.27947296 C19.3594595,4.53249936 20.622149,3.86260462 21.9230526,3.27373433 C33.4165483,-1.92371837 46.7871482,-0.758939234 57.2089474,6.34766327 C57.4958246,6.54234544 57.7801404,6.74215082 58.0618947,6.94707941 C58.5613684,7.31595089 59.0454737,7.71556165 59.5218947,8.08443312 L59.9675789,8.4533046 C60.4132632,8.82217607 60.8435789,9.22178683 61.2662105,9.57528866 L61.7042105,9.99026907 C62.6264351,10.8676734 63.5011207,11.7937339 64.3245263,12.7644899 L64.4551579,12.9181864 C66.0038575,14.7585277 67.3655518,16.7484587 68.5201053,18.8585541 C68.6661053,19.1275229 68.8044211,19.3888068 68.9427368,19.6654604 C69.3730526,20.4877364 69.7649474,21.3253821 70.1261053,22.1860822 C71.0021728,24.2013011 71.6915181,26.2926531 72.1854737,28.4338427 C72.1854737,28.5875392 72.2546316,28.7412356 72.2776842,28.8949321 C72.3622105,29.2638036 72.4313684,29.6634143 72.4928421,30.0092313 C72.4966295,30.0347074 72.4966295,30.0606035 72.4928421,30.0860795 L72.8155789,33.1984326 L72.8155789,33.3060201 L73,34.520222 C73,35.0504748 73,35.5884124 73,36.1186651 Z" id="Path" fill="#108CEC"></path>
                    <path d="M64.5473684,12.8797623 C55.8104211,12.5416301 47.6958947,18.1131263 38.9128421,18.0747022 C33.8489474,18.0747022 29.0386316,16.1611814 24.1284211,15.0007732 C19.0032425,13.6971889 13.6587819,13.5033058 8.45263158,14.4320964 C8.25284211,14.4320964 8.08378947,14.493575 7.92242105,14.5089446 L12.0718947,9.8980512 C12.6512946,9.74310863 13.2387329,9.61996764 13.8315789,9.52917973 C18.3114737,8.99892699 22.8451579,9.99795389 27.0714737,11.4888094 C30.9135789,12.849023 34.7172632,14.6549562 38.8283158,14.8624464 C46.1052632,15.2390027 52.5830526,10.6588486 59.7754737,9.99026907 C60.4424073,9.92500228 61.114119,9.92500228 61.7810526,9.99026907 C62.7032772,10.8676734 63.5779628,11.7937339 64.4013684,12.7644899 L64.5473684,12.8797623 Z" id="Path" fill="#156CB1"></path>
                    <path d="M72.8309474,33.2291719 C68.7967368,33.5903585 64.9315789,35.1580623 60.9818947,36.1494044 C54.9203734,37.7587854 48.5402377,37.7296137 42.4936842,36.0648713 C38.5670526,34.9044632 34.8094737,32.921779 30.6753684,32.8526156 C26.7026316,32.791137 22.9911579,34.520222 19.2028421,35.6575758 C13.2081174,37.3324224 6.94996966,37.8539762 0.760736842,37.1945402 L0.760736842,37.0254741 C0.760736842,36.7103964 0.760736842,36.4030035 0.760736842,36.0879258 C0.760736842,35.7728481 0.760736842,35.3194436 0.760736842,34.9505721 C0.760736842,34.2281988 0.829894737,33.5058255 0.899052632,32.7988218 L0.899052632,32.7373433 C0.902849422,32.7092935 0.902849422,32.68086 0.899052632,32.6528102 C5.95526316,34.0514479 11.3803158,32.9448335 16.4365263,31.5615654 C21.4927368,30.1782974 26.6181053,28.4876365 31.8741053,28.8257687 C39.2586316,29.2638036 45.9746316,33.5596193 53.3898947,33.6672068 C59.9291579,33.7747943 65.9305263,30.5932778 72.2392632,28.8872473 C72.3237895,29.2561187 72.3929474,29.6557295 72.4544211,30.0015465 C72.4582084,30.0270226 72.4582084,30.0529187 72.4544211,30.0783947 L72.8309474,33.2291719 Z" id="Path" fill="#156CB1"></path>
                    <path d="M70.1568421,50.1895748 C70.0723158,50.3893802 69.9877895,50.5891856 69.8955789,50.788991 L69.8264211,50.9350026 C69.4268421,51.8341268 68.9888421,52.7101966 68.5047368,53.5632119 C68.5047368,53.6323753 68.4355789,53.6938538 68.3971579,53.7630172 C68.2665263,54.0166164 68.1205263,54.2625307 67.9745263,54.5314995 C67.8285263,54.8004683 67.6594737,55.0540674 67.4981053,55.2999817 L66.9064211,55.2999817 C63.8327368,55.2999817 60.9511579,56.4296506 57.9927368,57.1366543 C52.1096819,58.4599788 46.0025152,58.4258138 40.1346316,57.0367516 C34.7095789,55.8302345 29.3767368,53.6784842 23.8133684,53.9628226 C19.1106316,54.2394762 14.7075789,56.2682693 10.0278947,56.7754676 C9.11876657,56.8752899 8.20144396,56.8752899 7.29231579,56.7754676 L7.154,56.5756622 C6.54453637,55.7257628 5.97776451,54.8460423 5.45578947,53.9397682 C5.27136842,53.6170056 5.09463158,53.2942431 4.92557895,52.9637957 L5.06389474,52.9637957 C8.176,53.5324726 11.4110526,53.0944377 14.4693684,52.4489126 C18.5266316,51.5958973 22.5685263,50.3586409 26.7641053,50.4969677 C33.6798947,50.7428821 39.8272632,54.72362 46.6585263,55.4844175 C52.6906316,56.1606818 58.6996842,54.2779003 64.2861053,52.0339322 C66.1607046,51.1825844 68.1321911,50.56322 70.1568421,50.1895748 Z" id="Path" fill="#156CB1"></path>
                    <ellipse id="Oval" fill="#FEAEC9" cx="52.4447368" cy="37.2022251" rx="4.97168421" ry="4.97208007"></ellipse>
                    <ellipse id="Oval" fill="#232323" cx="48.1185263" cy="32.8756701" rx="3.67305263" ry="3.67334509"></ellipse>
                    <ellipse id="Oval" fill="#FFFFFF" cx="49.4171579" cy="31.5769351" rx="1.08347368" ry="1.08355995"></ellipse>
                    <path d="M40.5572632,39.3616601 C40.5572632,41.3903926 38.9127815,43.0350052 36.8842105,43.0350052 C34.8556396,43.0350052 33.2111579,41.3903926 33.2111579,39.3616601" id="Path" stroke="#232323" stroke-width="1.30130001" stroke-linecap="round"></path>
                </g>
                <g id="Mars" transform="translate(19.000000, 370.400000)">
                    <path d="M72.2315789,36.8871473 C72.2362968,40.2344626 71.7733299,43.5660206 70.8561053,46.7851985 C70.0145534,49.7627146 68.7874953,52.6174665 67.2061053,55.2769272 C60.6491165,66.3767783 48.673355,73.1398273 35.7827604,73.0225731 C22.8921657,72.9053189 11.0413905,65.9255413 4.68736842,54.7082504 C4.34926316,54.1165191 4.03421053,53.5171029 3.73452632,52.910002 C1.27084507,47.9285208 -0.00730883594,42.4446461 -3.31780095e-15,36.8871473 C-3.31780095e-15,36.510591 -3.31780095e-15,36.1186651 -3.31780095e-15,35.7497936 C0.442452219,21.552868 9.16403371,8.93329184 22.287214,3.50160634 C35.4103942,-1.93007917 50.4985286,0.834653392 60.8435789,10.5666307 C68.1205809,17.3842933 72.2442,26.9150085 72.2315789,36.8871473 Z" id="Path" fill="#EF5D44"></path>
                    <path d="M60.8435789,10.5666307 C51.1614737,15.5002867 47.2809474,11.1660469 46.1052632,9.99026907 C44.5684211,8.4533046 38.4210526,3.07392894 26.8947368,11.5272335 C20.8088421,15.9844305 14.9457895,14.0324856 10.7578947,11.1737317 C24.5778171,-2.45500559 46.6974228,-2.72312281 60.8435789,10.5666307 Z" id="Path" fill="#CC2727"></path>
                    <ellipse id="Oval" fill="#CC2727" cx="33.8105263" cy="25.3599138" rx="6.14736842" ry="6.14785789"></ellipse>
                    <ellipse id="Oval" fill="#CC2727" cx="58.4" cy="32.2762539" rx="4.61052632" ry="4.61089342"></ellipse>
                    <path d="M70.8561053,46.7851985 C70.0145534,49.7627146 68.7874953,52.6174665 67.2061053,55.2769272 C60.6491165,66.3767783 48.673355,73.1398273 35.7827604,73.0225731 C22.8921657,72.9053189 11.0413905,65.9255413 4.68736842,54.7082504 C4.34926316,54.1165191 4.03421053,53.5171029 3.73452632,52.910002 C8.23747368,53.1405466 14.1927368,54.1549432 17.6736842,57.6361677 C23.8210526,63.7840256 29.9684211,56.8676855 29.9684211,55.330721 C29.9684211,53.7937565 32.2736842,39.192594 38.4210526,41.4980408 C44.5684211,43.8034875 42.2631579,46.1089342 41.4947368,47.6458986 C40.7263158,49.1828631 37.6526316,54.5622388 44.5684211,56.8676855 C51.4842105,59.1731322 52.2526316,63.0155434 56.0947368,52.2567921 C58.6996842,44.9562108 66.2686316,44.733351 70.8561053,46.7851985 Z" id="Path" fill="#CC2727"></path>
                    <ellipse id="Oval" fill="#FEAEC9" cx="51.6763158" cy="37.9707073" rx="4.97168421" ry="4.97208007"></ellipse>
                    <ellipse id="Oval" fill="#232323" cx="47.3501053" cy="33.6441523" rx="3.67305263" ry="3.67334509"></ellipse>
                    <ellipse id="Oval" fill="#FFFFFF" cx="48.6487368" cy="32.3454173" rx="1.08347368" ry="1.08355995"></ellipse>
                    <path d="M39.7888421,40.1301424 C39.7888421,42.1588748 38.1443604,43.8034875 36.1157895,43.8034875 C34.0872185,43.8034875 32.4427368,42.1588748 32.4427368,40.1301424" id="Path" stroke="#232323" stroke-width="1.30130001" stroke-linecap="round"></path>
                </g>
                <g id="Sun" transform="translate(4.000000, 613.180107)">
                    <path d="M100.244553,50.0894309 C91.9674797,55.8373984 90.793252,61.3718699 96.3030894,69.5996748 C86.5643902,71.3815447 83.5015447,75.8895935 85.5626016,85.5297561 C75.922439,83.4686992 71.4143902,86.5315447 69.6325203,96.2702439 C61.4211382,90.7604065 55.9030894,91.9346341 50.1222764,100.211707 C44.3743089,91.9346341 38.8398374,90.7604065 30.6120325,96.2702439 C28.8301626,86.5315447 24.3221138,83.4686992 14.6819512,85.5297561 C16.7430081,75.922439 13.6801626,71.4390244 3.94146341,69.6325203 C9.45130081,61.4047154 8.27707317,55.9030894 0,50.0894309 C8.27707317,44.3414634 9.45130081,38.8398374 3.94146341,30.6120325 C13.6801626,28.8301626 16.7430081,24.3221138 14.6819512,14.6819512 C24.3221138,16.7430081 28.8301626,13.6801626 30.6120325,3.94146341 C38.8398374,9.45130081 44.3414634,8.27707317 50.0894309,0 C55.8373984,8.27707317 61.3718699,9.45130081 69.5996748,3.94146341 C71.4390244,13.6801626 75.922439,16.7430081 85.5626016,14.6819512 C83.5015447,24.3221138 86.5643902,28.8301626 96.3030894,30.6120325 C90.793252,38.8398374 91.9674797,44.3414634 100.244553,50.0894309 Z" id="Path" fill="#FA8D28"></path>
                    <circle id="Oval" fill="#F4BE28" cx="50.1222764" cy="50.1222764" r="38.5934959"></circle>
                    <circle id="Oval" fill="#FEAEC9" cx="66.7503252" cy="51.2800813" r="5.31276423"></circle>
                    <circle id="Oval" fill="#232323" cx="62.1273171" cy="46.6570732" r="3.92504065"></circle>
                    <circle id="Oval" fill="#FFFFFF" cx="63.5150407" cy="45.2693496" r="1.15780488"></circle>
                    <path d="M54.0473171,53.5874797 C54.0473171,55.7552198 52.2900165,57.5125203 50.1222764,57.5125203 C47.9545363,57.5125203 46.1972358,55.7552198 46.1972358,53.5874797" id="Path" stroke="#232323" stroke-width="1.39027203" stroke-linecap="round"></path>
                </g>
                <g id="Moon" transform="translate(17.000000, 0.000000)">
                    <path d="M75.8080808,38.4 C75.8269798,43.6590333 74.739339,48.8629404 72.6161616,53.672 L72.5443434,53.824 C72.4884848,53.96 72.4246465,54.096 72.3608081,54.224 C71.9937374,55.024 71.5628283,55.824 71.1718182,56.56 C71.1718182,56.632 71.1,56.696 71.060101,56.768 C70.9244444,57.032 70.7728283,57.288 70.6212121,57.568 C69.3780144,59.6726521 67.9320811,61.6501018 66.3041414,63.472 C65.6817172,64.176 65.0273737,64.848 64.3490909,65.496 C63.3399515,66.4704 62.2741108,67.3840008 61.1571717,68.232 L60.8778788,68.448 C60.079899,69.072 59.2021212,69.664 58.3243434,70.216 C57.0210479,71.0490376 55.6641756,71.7946678 54.2626263,72.448 L54.1189899,72.512 C41.6170742,78.3150719 26.9480025,76.7793359 15.9117172,68.512 C15.7122222,68.368 15.5207071,68.216 15.3291919,68.064 L14.5312121,67.424 C14.0125253,67 13.4938384,66.552 12.9990909,66.088 L12.7676768,65.928 C12.4245455,65.608 12.0814141,65.28 11.7542424,64.952 C9.37721139,62.5701089 7.32944205,59.8794752 5.66565657,56.952 C5.08313131,55.92 4.54848485,54.864 4.06969697,53.752 C3.98191919,53.576 3.91010101,53.4 3.83030303,53.216 C3.48717172,52.416 3.18393939,51.616 2.90464646,50.816 L2.85676768,50.68 C1.62748814,47.1422115 0.933531795,43.4398308 0.797979798,39.696 C0.794000723,39.6347315 0.794000723,39.5732685 0.797979798,39.512 C0.797979798,39.1333333 0.797979798,38.7626667 0.797979798,38.4 C0.797979798,38.008 0.797979798,37.6 0.797979798,37.216 C0.797979798,36.464 0.86979798,35.712 0.941616162,34.976 L0.941616162,34.912 C0.941616162,34.864 0.941616162,34.816 0.941616162,34.768 C1.3775121,30.2263763 2.64915056,25.8050609 4.69212121,21.728 C4.7559596,21.592 4.81979798,21.456 4.89161616,21.32 C4.96343434,21.184 4.89161616,21.232 4.95545455,21.192 C5.24272727,20.632 5.5459596,20.08 5.85717172,19.536 C5.8753026,19.4943949 5.89664696,19.4542729 5.9210101,19.416 C6.10454545,19.104 6.28808081,18.8 6.47959596,18.496 C8.68609527,14.9428171 11.4757538,11.789068 14.7307071,9.168 L14.930202,9 C15.8275892,8.27381552 16.7625218,7.59554183 17.7311111,6.968 C17.9705051,6.8 18.209899,6.648 18.4572727,6.496 C18.7046465,6.344 18.7525253,6.312 18.9041414,6.224 C20.1679955,5.44639076 21.4792567,4.74902163 22.830202,4.136 C34.7658164,-1.27461584 48.6507413,-0.0620656102 59.4734343,7.336 C59.7713468,7.53866667 60.0665993,7.74666667 60.3591919,7.96 C60.8778788,8.344 61.3806061,8.76 61.8753535,9.144 L62.3381818,9.528 C65.9607605,12.5545008 68.9796467,16.2406231 71.2356566,20.392 C71.3872727,20.672 71.5309091,20.944 71.6745455,21.232 C72.1214141,22.088 72.5283838,22.96 72.9034343,23.856 C74.0091892,26.494943 74.8123187,29.2512835 75.2973737,32.072 C75.3013068,32.0985209 75.3013068,32.1254791 75.2973737,32.152 L75.8080808,36.736 C75.8080808,37.288 75.8080808,37.848 75.8080808,38.4 Z" id="Path" fill="#E7E5E6"></path>
                    <ellipse id="Oval" fill="#BBB5BF" cx="47.8787879" cy="21.6" rx="10.3737374" ry="10.4"></ellipse>
                    <path d="M72.3288889,54.224 C71.9618182,55.024 71.5309091,55.824 71.139899,56.56 C71.139899,56.632 71.0680808,56.696 71.0281818,56.768 C70.8925253,57.032 70.7409091,57.288 70.5892929,57.568 C69.3460952,59.6726521 67.9001619,61.6501018 66.2722222,63.472 C65.649798,64.176 64.9954545,64.848 64.3171717,65.496 C63.3080323,66.4704 62.2421917,67.3840008 61.1252525,68.232 L60.8459596,68.448 C60.0479798,69.072 59.170202,69.664 58.2924242,70.216 C56.9994418,71.047802 55.6532681,71.7934125 54.2626263,72.448 L54.1189899,72.512 C46.4276333,71.0318268 41.0321417,64.0514763 41.5223569,56.2152618 C42.0125721,48.3790473 48.2357128,42.129216 56.0512684,41.6240369 C63.866824,41.1188577 70.8389858,46.5157757 72.3288889,54.224 Z" id="Path" fill="#BBB5BF"></path>
                    <ellipse id="Oval" fill="#FEAEC9" cx="54.4621212" cy="39.528" rx="5.16292929" ry="5.176"></ellipse>
                    <ellipse id="Oval" fill="#232323" cx="49.9694949" cy="35.024" rx="3.81434343" ry="3.824"></ellipse>
                    <ellipse id="Oval" fill="#FFFFFF" cx="51.3180808" cy="33.672" rx="1.12515152" ry="1.128"></ellipse>
                    <path d="M42.1173737,41.776 C42.1173737,43.8879369 40.409634,45.6 38.3030303,45.6 C36.1964266,45.6 34.4886869,43.8879369 34.4886869,41.776" id="Path" stroke="#232323" stroke-width="1.35200002" stroke-linecap="round"></path>
                </g>
                <g id="Asteroid" transform="translate(15.000000, 124.000000)">
                    <path d="M14.6030303,11.696 L37.8561616,1.512 C39.8793983,0.62333054 42.1672642,0.554520799 44.24,1.32 L63.040404,8.24 C65.296093,9.06660645 67.0986604,10.8098195 68.0038384,13.04 L78.2020202,38.28 C78.9589328,40.1461607 79.0324327,42.2207042 78.4094949,44.136 L69.7593939,70.784 C68.8344563,73.6248014 66.499971,75.7772375 63.5989899,76.464 L42.7956566,81.376 C40.5530807,81.9018187 38.1937402,81.4979846 36.2522222,80.256 L10.7647475,63.936 C9.35549723,63.0241726 8.24533547,61.7164301 7.57282828,60.176 L0.718181818,44.608 C-0.239610637,42.4151773 -0.239610637,39.9208227 0.718181818,37.728 L10.2061616,16.128 C11.0647513,14.1496238 12.6343411,12.5674929 14.6030303,11.696 Z" id="Path" fill="#F5DFAD"></path>
                    <path d="M49.5306061,23.456 L50.639798,12.88 C50.7069959,12.2306893 51.0351209,11.6368354 51.5485378,11.2353262 C52.0619546,10.833817 52.7163602,10.6592991 53.3609091,10.752 L55.7548485,11.096 C56.2308716,11.1629569 56.6757644,11.3720284 57.0316162,11.696 L64.8757576,18.848 C65.1261867,19.0703734 65.327346,19.3428985 65.4662626,19.648 L66.4557576,21.96 C66.7575147,22.6423749 66.7254031,23.4266595 66.3688771,24.0819452 C66.0123511,24.7372309 65.372003,25.1889102 64.6363636,25.304 L63.6069697,25.472 C63.1150738,25.5574338 62.6611169,25.791967 62.3062626,26.144 L61.3806061,27.08 C60.8060544,27.6550825 59.9799228,27.8990318 59.1861616,27.728 L51.389899,26.056 C50.2003275,25.7901724 49.3998488,24.6707982 49.5306061,23.456 Z" id="Path" fill="#D0C3A3"></path>
                    <path d="M64.6363636,38.4 L68.0676768,41.264 C68.4393141,41.5500157 68.5839465,42.0440461 68.4254448,42.4860521 C68.266943,42.9280582 67.8416542,43.2166808 67.3734343,43.2 L61.0853535,43.2 C60.6410984,43.2171189 60.2319846,42.9588788 60.0553637,42.5498517 C59.8787429,42.1408245 59.9708976,41.6650358 60.2873737,41.352 L63.1441414,38.488 C63.5370333,38.0611893 64.1962679,38.0223127 64.6363636,38.4 Z" id="Path" fill="#D0C3A3"></path>
                    <path d="M62.5376768,51.68 L65.9450505,59.68 C66.2562626,60.408 65.57,61.632 64.5565657,62.592 C63.2477867,63.8023497 61.3026773,64.0103533 59.7686869,63.104 L52.4591919,58.896 C50.8153535,58.416 50.3764646,56.848 51.6612121,55.928 L58.4759596,50.912 C59.7447475,49.968 61.9870707,50.4 62.5376768,51.68 Z" id="Path" fill="#D0C3A3"></path>
                    <path d="M39.5478788,21.112 L41.5508081,22.112 C42.084332,22.3810092 42.444856,22.9034777 42.5077938,23.4988562 C42.5707316,24.0942347 42.3274502,24.6808554 41.8620202,25.056 L40.0984848,26.464 C39.4934768,26.9482615 38.6462801,26.9870148 37.999798,26.56 L34.8876768,24.472 C34.5172515,24.2284226 34.2981286,23.8107075 34.3078624,23.3666971 C34.3175963,22.9226866 34.5548134,22.5150265 34.9355556,22.288 L36.7070707,21.224 C37.5725609,20.7019768 38.6441704,20.6597282 39.5478788,21.112 Z" id="Path" fill="#D0C3A3"></path>
                    <path d="M45.3252525,36.304 L48.0623232,40.48 C48.8560899,41.6837257 48.5602171,43.3010214 47.3920202,44.144 L40.0745455,49.16 C39.5601473,49.514179 38.9258667,49.647508 38.3128826,49.5303104 C37.6998985,49.4131128 37.1590818,49.0551148 36.8108081,48.536 L36.220303,47.736 C35.8973375,47.2657576 35.7273157,46.706898 35.7335354,46.136 L35.7335354,42.2 C35.7326949,41.4239525 36.0674426,40.685643 36.6512121,40.176 L41.8141414,35.768 C42.3313527,35.3210121 43.0176326,35.1230457 43.6927109,35.226102 C44.3677893,35.3291582 44.9641902,35.7229365 45.3252525,36.304 Z" id="Path" fill="#D0C3A3"></path>
                    <path d="M22.3434343,49.088 C22.8137017,48.9380599 23.3274986,49.0308972 23.7159596,49.336 C24.3064646,49.856 24.2266667,50.784 24.1548485,51.568 C24.0741805,52.3653026 24.0528421,53.1675204 24.0910101,53.968 C24.0609976,54.549924 24.2520372,55.121635 24.6256566,55.568 C25.00958,55.8493845 25.461249,56.0233308 25.9343434,56.072 C29.9446632,56.9384077 33.7425367,58.5973847 37.1060606,60.952 C38.8274004,62.0370615 40.3677182,63.3869018 41.6705051,64.952 C42.9736968,66.5310311 43.7099839,68.5031905 43.7612121,70.552 C43.7836061,71.0431192 43.6849399,71.5322037 43.4739394,71.976 C43.2541899,72.4200058 42.824229,72.7214389 42.3328283,72.776 C41.8279098,72.7586323 41.3438973,72.5696152 40.960303,72.24 C38.0417094,70.0962983 35.3276073,67.6859874 32.8528283,65.04 C32.2047796,64.2699777 31.3845532,63.6642146 30.4588889,63.272 C29.2060606,62.84 27.8415152,63.224 26.5328283,63.448 C24.6847967,63.7708142 22.7950012,63.7708142 20.9469697,63.448 C19.4467677,63.184 17.340101,62.48 16.749596,60.88 C16.5095033,59.8306333 16.4635231,58.7460053 16.6139394,57.68 C16.6834922,56.5223828 16.9255706,55.381734 17.3321212,54.296 C18.0905243,52.2778412 19.4933059,50.5677403 21.3220202,49.432 C21.6449857,49.2705314 21.9887335,49.1547613 22.3434343,49.088 Z" id="Path" fill="#D0C3A3"></path>
                    <ellipse id="Oval" fill="#FEAEC9" cx="55.5633333" cy="42.328" rx="5.16292929" ry="5.176"></ellipse>
                    <ellipse id="Oval" fill="#232323" cx="51.0786869" cy="37.824" rx="3.81434343" ry="3.824"></ellipse>
                    <ellipse id="Oval" fill="#FFFFFF" cx="52.4272727" cy="36.472" rx="1.12515152" ry="1.128"></ellipse>
                    <path d="M43.2185859,44.576 C43.2185859,46.6879369 41.5108461,48.4 39.4042424,48.4 C37.2976387,48.4 35.589899,46.6879369 35.589899,44.576" id="Path" stroke="#232323" stroke-width="1.35200002" stroke-linecap="round"></path>
                </g>
                <g id="Saturn" transform="translate(0.000000, 254.400000)">
                    <path d="M86.9359477,34.3578947 C86.9359479,46.3770614 80.4954484,57.4832295 70.040523,63.4928129 C59.5855977,69.5023964 46.7045984,69.5023964 36.2496731,63.4928129 C25.7947477,57.4832295 19.3542482,46.3770614 19.3542484,34.3578947 C19.3542484,34.0071579 19.3542484,33.6421053 19.3542484,33.2985263 C19.6480783,14.7185046 35.0149532,-0.106431249 53.6771242,0.186105263 C72.3392951,0.478641775 87.2297776,15.777873 86.9359477,34.3578947 Z" id="Path" fill="#FDC72F"></path>
                    <path d="M75.7490196,9.30526316 C70.903268,9.06905263 66.0287582,9.00463158 61.2980392,10.0210526 C59.1411765,10.5006316 57.0346405,11.2092632 54.827451,11.3023158 C52.3183007,11.4025263 49.8594771,10.7010526 47.4006536,10.2214737 C42.8429119,9.42682718 38.2128878,9.11967761 33.5895425,9.30526316 C33.2228758,9.30526316 31.8712418,9.43410526 30.4980392,9.50568421 C31.729732,8.37206663 33.0521943,7.34029892 34.4522876,6.42063158 C35.5993001,6.41228885 36.7454198,6.48644673 37.8816993,6.64252632 C43.5901961,7.35831579 49.2052288,9.34821053 54.9568627,8.98315789 C59.0045752,8.72547368 62.8653595,7.32252632 66.9130719,6.77136842 C68.6292914,6.5471669 70.3586189,6.43716844 72.0895425,6.44210526 C72.9815265,7.03567815 73.842963,7.67353638 74.6705882,8.35326316 C74.7764538,8.43034074 74.8773093,8.51401703 74.972549,8.60378947 C75.2313725,8.81852632 75.4901961,9.04042105 75.7490196,9.30526316 Z" id="Path" fill="#E39F30"></path>
                    <path d="M80.1202614,54.7292632 C79.49341,55.5600167 78.8238912,56.3579913 78.1143791,57.12 C75.9575163,57.0054737 73.8006536,56.9553684 71.6437908,57.0555789 C66.1509804,57.3204211 60.7444444,58.6016842 55.2444444,58.8021053 C46.2431373,59.1170526 37.2130719,56.5473684 28.3052288,57.0197895 C27.6102397,56.2705965 26.9535948,55.488 26.3352941,54.672 L26.9679739,54.5646316 C28.4189592,54.3722766 29.8849804,54.3171534 31.3464052,54.4 C38.7156863,54.7077895 45.9124183,57.0484211 53.2816993,56.9338947 C62.0385621,56.8050526 70.7091503,53.2117895 79.3581699,54.6075789 C79.6098039,54.6218947 79.8686275,54.6648421 80.1202614,54.7292632 Z" id="Path" fill="#E39F30"></path>
                    <path d="M83.7941176,19.992 C78.5169935,21.1444211 73.1464052,22.032 67.8189542,21.2947368 C63.8431373,20.7364211 59.996732,19.2833684 55.9777778,19.1473684 C51.0816993,18.9469474 46.3294118,20.6934737 41.454902,21.2088421 C35.3006536,21.8602105 29.1392157,20.5503158 23.0928105,19.176 C23.5457516,18.2812632 24.0418301,17.4151579 24.5738562,16.5705263 C24.9261438,16.0050526 25.2928105,15.4538947 25.6882353,14.9098947 C26.7594771,15.4753684 27.7732026,16.2627368 28.8444444,16.8353684 C31.4470588,18.2669474 34.5529412,18.3886316 37.4718954,18.0450526 C40.3908497,17.7014737 43.2235294,16.8854737 46.1784314,16.4345263 C52.5124183,15.4538947 58.9830065,16.1983158 65.3385621,17.0644211 C68.6816993,17.5225263 72.0535948,18.0092632 75.4039216,17.7802105 C77.5668261,17.6539255 79.6886695,17.1373202 81.6660131,16.2555789 C81.9248366,16.6492632 82.169281,17.0501053 82.3849673,17.4509474 C82.5431373,17.7157895 82.7013072,17.9949474 82.8522876,18.2669474 C83.2189542,18.8181053 83.520915,19.3978947 83.7941176,19.992 Z" id="Path" fill="#E39F30"></path>
                    <path d="M86.224183,41.6804211 C86.0732026,42.3962105 85.8934641,43.0690526 85.6921569,43.7490526 C85.4908497,44.4290526 85.2607843,45.1806316 84.9732026,45.8534737 C80.3816966,46.6394524 75.7047191,46.80558 71.0686275,46.3473684 C66.4169935,45.7890526 61.9163399,44.336 57.2143791,44.2 C56.5745098,44.2 55.9346405,44.2 55.2947712,44.2 C50.269281,44.3789474 45.2941176,45.8105263 40.2614379,46.24 C33.8411765,46.8197895 27.4065359,45.8463158 21.072549,44.6509474 C20.509531,42.9036754 20.0934992,41.112797 19.8287582,39.2968421 C21.8921569,39.6547368 23.6104575,41.0004211 25.5084967,41.8665263 C28.5568627,43.2623158 32.1875817,43.4197895 35.624183,43.0762105 C39.0607843,42.7326316 42.4183007,41.9166316 45.8117647,41.4656842 C51.6496732,40.6926316 57.5810458,40.9932632 63.469281,41.5730526 C65.0581699,41.7376842 66.6326797,41.9094737 68.2071895,42.0955789 C72.1183007,42.5536842 76.0581699,43.0475789 79.9908497,42.8113684 C82.1089503,42.7038453 84.2041493,42.323702 86.224183,41.6804211 Z" id="Path" fill="#E39F30"></path>
                    <path d="M86.8424837,30.872 C85.4477124,31.7667368 83.8947712,32.6686316 82.2052288,33.5705263 C76.8849673,32.9907368 71.5287582,32.8046316 66.330719,33.9498947 C59.6024029,35.3557801 52.6618638,35.4287473 45.9052288,34.1646316 C37.996732,32.7330526 29.8294118,33.6922105 21.8633987,34.8804211 C21.0653595,34.9949474 20.2529412,35.1237895 19.4620915,35.3098947 C19.4620915,35.0092632 19.4620915,34.7014737 19.4620915,34.3936842 C19.4620915,34.0858947 19.4620915,33.6778947 19.4620915,33.3343158 C19.4620915,32.9907368 19.4620915,32.6757895 19.5124183,32.3465263 C19.5843137,31.2084211 19.7065359,30.0917895 19.8862745,28.9894737 C29.0313725,30.4210526 38.579085,25.6968421 47.8320261,27.1141053 C54.4895425,28.1305263 61.3124183,28.8033684 67.9627451,27.6294737 C74.030719,26.5557895 80.3718954,25.7397895 86.2960784,27.3216842 C86.5465835,28.4936867 86.7290212,29.6790915 86.8424837,30.872 Z" id="Path" fill="#E39F30"></path>
                    <ellipse id="Oval" fill="#FEAEC9" cx="67.7039216" cy="35.4244211" rx="4.65163399" ry="4.63115789"></ellipse>
                    <ellipse id="Oval" fill="#232323" cx="63.6633987" cy="31.3945263" rx="3.43660131" ry="3.42147368"></ellipse>
                    <ellipse id="Oval" fill="#FFFFFF" cx="64.8784314" cy="30.1848421" rx="1.01372549" ry="1.00926316"></ellipse>
                    <path d="M56.5888889,37.4357895 C56.5048032,39.2665587 54.9894781,40.7078038 53.1486928,40.7078038 C51.3079075,40.7078038 49.7925824,39.2665587 49.7084967,37.4357895" id="Path" stroke="#232323" stroke-width="1.2167999" stroke-linecap="round"></path>
                    <path d="M108.964706,20.2783158 C107.922222,16.4631579 104.557516,13.5212632 99.4960784,11.5313684 C99.4821226,11.526456 99.466897,11.526456 99.4529412,11.5313684 C93.3633987,9.11915789 84.8366013,8.10273684 74.972549,8.58947368 C76.7315345,10.055622 78.333717,11.6987256 79.7535948,13.4926316 C80.7418716,14.7352334 81.6404204,16.0460281 82.4424837,17.4151579 C89.5529412,17.2433684 94.2620915,18.4244211 95.0529412,21.0370526 C95.8437908,23.6496842 92.6803922,27.1355789 86.8424837,30.8576842 C79.9117647,35.2812632 69.1849673,39.9911579 56.775817,43.7418947 C43.6261438,47.7145263 31.4542484,49.7473684 23.1503268,49.6757895 C17.0176471,49.6328421 13.0058824,48.4446316 12.272549,46.0538947 C11.5392157,43.6631579 14.3071895,40.3275789 19.5411765,36.8416842 C19.4764706,36.0185263 19.4477124,35.1810526 19.4477124,34.3435789 C19.4477124,33.9928421 19.4477124,33.6277895 19.4477124,33.2842105 C19.4477124,32.9406316 19.4477124,32.6256842 19.4980392,32.2964211 C19.6709163,29.495546 20.1975019,26.727509 21.0653595,24.0576842 C7.06013072,32.0172632 -1.07124183,41.5587368 1.0496732,49.3894737 C1.10718954,49.6113684 1.17908497,49.8332632 1.25816993,50.048 C1.3372549,50.2627368 1.41633987,50.4774737 1.50980392,50.6922105 C1.60326797,50.9069474 1.63921569,50.9856842 1.71830065,51.1288421 C1.79738562,51.272 1.79019608,51.2934737 1.83333333,51.3722105 C1.87647059,51.4509474 1.99150327,51.6585263 2.08496732,51.8016842 C2.10834869,51.8524178 2.13728197,51.9004277 2.17124183,51.9448421 C2.25078153,52.0803387 2.33716682,52.2117352 2.43006536,52.3385263 C2.49531293,52.4495724 2.56987019,52.5549298 2.65294118,52.6534737 C2.6817189,52.7021237 2.71544767,52.747697 2.75359477,52.7894737 C2.85777979,52.9367475 2.9706125,53.0777651 3.09150327,53.2117895 C3.17777778,53.3191579 3.26405229,53.4193684 3.36470588,53.5267368 L3.4869281,53.6627368 C3.6379085,53.8202105 3.79607843,53.9848421 3.95424837,54.1351579 L4.50784314,54.6433684 C4.65882353,54.7722105 4.81699346,54.9082105 4.98235294,55.0370526 C10.3601307,59.3675789 20.4039216,61.4791579 32.7771242,61.1570526 C42.3164823,60.8068755 51.7821246,59.3487177 60.9816993,56.8122105 C68.93497,54.7046834 76.6621601,51.8278337 84.0529412,48.2227368 C101.013072,39.7835789 111.322876,28.9536842 108.964706,20.2783158 Z" id="Path" fill="#FFCB88"></path>
                    <path d="M106.441176,19.3263158 C105.650327,15.9764211 103.220261,13.3709474 99.4960784,11.5313684 C99.4821226,11.526456 99.466897,11.526456 99.4529412,11.5313684 C93.7803922,8.71831579 85.0738562,7.66610526 74.6705882,8.37473684 C74.7764538,8.45181442 74.8773093,8.53549072 74.972549,8.62526316 C76.7315345,10.0914115 78.333717,11.7345151 79.7535948,13.5284211 C90.6529412,13.5284211 98.7915033,15.7402105 99.9705882,20.0635789 C101.077778,24.0934737 95.620915,29.3688421 87.0294118,34.6513684 C78.8405229,39.6618947 67.7901961,44.7296842 56.8333333,48.6951579 C46.636284,52.2763928 35.8003533,53.6977576 25.0196078,52.8682105 C14.5660131,52.0665263 7.2254902,49.1962105 7.2254902,46.5263158 C7.2254902,43.52 11.7333333,37.9368421 19.5124183,32.3107368 C19.6794341,29.5056508 20.2012,26.7327441 21.0653595,24.0576842 C7.06013072,32.0172632 -1.07124183,41.5587368 1.0496732,49.3894737 C1.10718954,49.6113684 1.17908497,49.8332632 1.25816993,50.048 C1.3372549,50.2627368 1.41633987,50.4774737 1.50980392,50.6922105 C1.60326797,50.9069474 1.63921569,50.9856842 1.71830065,51.1288421 C1.79738562,51.272 1.79019608,51.2934737 1.83333333,51.3722105 C1.87647059,51.4509474 1.99150327,51.6585263 2.08496732,51.8016842 C2.10834869,51.8524178 2.13728197,51.9004277 2.17124183,51.9448421 C2.25078153,52.0803387 2.33716682,52.2117352 2.43006536,52.3385263 C2.49531293,52.4495724 2.56987019,52.5549298 2.65294118,52.6534737 C2.6817189,52.7021237 2.71544767,52.747697 2.75359477,52.7894737 C2.85777979,52.9367475 2.9706125,53.0777651 3.09150327,53.2117895 C3.17777778,53.3191579 3.26405229,53.4193684 3.36470588,53.5267368 L3.4869281,53.6627368 C3.6379085,53.8202105 3.79607843,53.9848421 3.95424837,54.1351579 L4.50784314,54.6433684 C4.65882353,54.7722105 4.81699346,54.9082105 4.98235294,55.0370526 C10.2163399,59.1528421 19.8575163,61.0496842 31.727451,60.3267368 C41.5160093,59.6271705 51.1675716,57.6341054 60.4281046,54.4 C69.1228506,51.5303026 77.5714821,47.9684856 85.6921569,43.7490526 C100.143137,36.0185263 108.367974,27.4934737 106.441176,19.3263158 Z" id="Path" fill="#F78C26"></path>
                </g>
            </g>
        </g>
    </g>
</svg>