<?xml version="1.0" encoding="UTF-8"?>
<svg width="53px" height="681px" viewBox="0 0 53 681" version="1.1" xmlns="http://www.w3.org/2000/svg" xmlns:xlink="http://www.w3.org/1999/xlink">
    <!-- Generator: Sketch 52.5 (67469) - http://www.bohemiancoding.com/sketch -->
    <title>finalScreen-bg</title>
    <desc>Created with Sketch.</desc>
    <g id="Desktop-Display" stroke="none" stroke-width="1" fill="none" fill-rule="evenodd">
        <g id="Desktop---Players-Connected" transform="translate(-971.000000, -48.000000)">
            <g id="finalScreen-bg" transform="translate(971.000000, 48.000000)">
                <g id="Group-3">
                    <g id="Venus" transform="translate(17.000000, 363.200000)">
                        <path d="M73,36.9769466 C73.018199,42.041087 71.9708465,47.0521441 69.9263158,51.6829863 L69.8571579,51.8293534 C69.4575789,52.7306665 69.0195789,53.608869 68.5354737,54.4639609 C68.5354737,54.5332926 68.4663158,54.5949209 68.4278947,54.6642527 C68.2972632,54.9184692 68.1512632,55.1649821 68.0052632,55.4346057 C66.808116,57.4612621 65.4157429,59.3654302 63.8481053,61.1198112 C63.2487368,61.7977219 62.6186316,62.4448185 61.9654737,63.0688045 C60.9937148,64.0070944 59.967355,64.8868384 58.8917895,65.7034119 L58.6228421,65.9114072 C57.8544211,66.5122826 57.0091579,67.0823439 56.1638947,67.6138875 C54.9088758,68.4160538 53.6022648,69.1340519 52.2526316,69.7631725 C40.1915322,75.4311524 25.9975185,73.9833114 15.3223158,65.9961461 C15.1302105,65.8574825 14.9457895,65.7111154 14.7613684,65.5647484 L13.9929474,64.9484659 C13.4934737,64.5401788 12.994,64.1087811 12.5175789,63.6619763 L12.2947368,63.4847951 C11.9643158,63.1766539 11.6338947,62.8608091 11.3188421,62.5449644 C9.02986099,60.2513431 7.05794506,57.6604206 5.45578947,54.8414339 C4.89484211,53.8476784 4.38,52.8308124 3.91894737,51.7600216 C3.83442105,51.590544 3.76526316,51.4210663 3.68842105,51.2438851 C3.358,50.473532 3.066,49.703179 2.79705263,48.9328259 L2.75094737,48.8018659 C1.56720277,45.3951832 0.898951937,41.8300079 0.768421053,38.2249185 C0.764589371,38.1659206 0.764589371,38.1067352 0.768421053,38.0477373 C0.768421053,37.6831035 0.768421053,37.3261733 0.768421053,36.9769466 C0.768421053,36.5994736 0.768421053,36.2065935 0.768421053,35.836824 C0.768421053,35.1126922 0.837578947,34.3885603 0.906736842,33.6798355 L0.906736842,33.6182072 C0.906736842,33.5719861 0.906736842,33.5257649 0.906736842,33.4795437 C1.32648634,29.1062266 2.5510208,24.8487594 4.51831579,20.9227889 C4.57978947,20.7918289 4.64126316,20.6608689 4.71042105,20.5299089 C5.00242105,19.9444405 5.31747368,19.3743793 5.64021053,18.8120216 C5.6576698,18.7719582 5.67822352,18.7333231 5.70168421,18.6964686 C5.87842105,18.3960309 6.05515789,18.1032968 6.23957895,17.8105626 C8.36434517,14.389056 11.0506692,11.3521806 14.1850526,8.82824599 L14.3771579,8.66647185 C15.458373,7.79296678 16.5927003,6.98767919 17.7735789,6.25526679 C17.9118947,6.16282443 18.0578947,6.07808559 18.2038947,5.99334675 C19.4209332,5.24455469 20.6836227,4.57302914 21.9845263,3.98272529 C33.478022,-1.22738026 46.8486219,-0.0597655404 57.2704211,7.0641375 C57.5572982,7.2592936 57.841614,7.4595854 58.1233684,7.66501288 C58.6228421,8.03478235 59.1069474,8.43536593 59.5833684,8.8051354 L60.0290526,9.17490486 C63.5174438,12.0892476 66.4245045,15.638767 68.5969474,19.6362993 C68.7429474,19.9059229 68.8812632,20.1678429 69.0195789,20.44517 C69.4498947,21.2694478 69.8417895,22.1091326 70.2029474,22.971928 C71.2677429,25.5130753 72.0411229,28.1672694 72.5082105,30.8834539 C72.5119979,30.908992 72.5119979,30.9349511 72.5082105,30.9604892 L73,35.3746122 C73,35.9061558 73,36.4454029 73,36.9769466 Z" id="Path" fill="#FF697D"></path>
                        <path d="M59.7985263,9.17490486 C54.7038947,10.1917709 49.4248421,10.8773851 44.3071579,9.99918263 C39.9041053,9.22882958 35.7392632,7.35687166 31.2824211,7.00250925 C27.0023158,6.66355391 22.8297895,7.77286231 18.5957895,8.32751651 C18.0732632,8.39684828 15.8371579,8.77432128 14.1850526,8.82824599 L14.3771579,8.66647185 C15.458373,7.79296678 16.5927003,6.98767919 17.7735789,6.25526679 C17.9118947,6.16282443 18.0578947,6.07808559 18.2038947,5.99334675 C23.4445263,5.2229937 28.8157895,4.80700305 33.9411579,6.03956794 C37.6526316,6.93317748 41.1873684,8.68187891 45.0217895,8.9052813 C47.741685,8.93226782 50.451283,8.56644747 53.0671579,7.81908349 C54.2678518,7.46062544 55.519033,7.30188282 56.7709474,7.34916813 C57.2366209,7.40031541 57.6922843,7.51970869 58.1233684,7.70353053 C58.7103969,7.93293242 59.2178305,8.32919028 59.5833684,8.84365305 C59.6665481,8.94614831 59.7386694,9.05718447 59.7985263,9.17490486 Z" id="Path" fill="#C1585F"></path>
                        <path d="M70.1722105,22.956521 C66.0304211,23.6806529 61.7887368,24.4047847 57.6392632,23.726874 C52.2603158,22.825561 47.2886316,19.5900781 41.8328421,19.8751088 C39.0204211,20.0214759 36.3616842,21.0999701 33.6568421,21.8857302 C28.1690417,23.3924284 22.450909,23.8703551 16.79,23.2954763 C13.9447371,23.0307892 11.1206936,22.5726586 8.33736842,21.9242479 C7.06178947,21.6315137 5.79389474,21.3053976 4.53368421,20.9458995 C4.59515789,20.8149395 4.65663158,20.6839795 4.72578947,20.5530195 C5.01778947,19.9675511 5.33284211,19.3974899 5.65557895,18.8351322 L6.17042105,18.8890569 C8.35484539,19.0929296 10.5255013,19.4247483 12.6712632,19.8828123 C14.2618947,20.2525818 15.8294737,20.7687183 17.4431579,21.0152313 C19.2580646,21.2694177 21.0994091,21.2694177 22.9143158,21.0152313 C27.4326316,20.4682806 31.7665263,18.8659463 36.2848421,18.3035885 C39.2923278,17.9975007 42.3197305,17.9382433 45.3368421,18.1264073 C48.1838738,18.1178557 51.021663,18.4514877 53.7894737,19.1201628 C55.4876842,19.5900781 57.1013684,20.3065065 58.8226316,20.6993865 C62.1498947,21.4697396 65.6308421,20.9458995 69.0118947,20.4374665 L70.1722105,22.956521 Z" id="Path" fill="#C1585F"></path>
                        <path d="M72.5082105,30.9604892 C68.328,31.2147057 64.5089474,33.6105037 60.3825263,34.5272238 C53.5282105,36.06793 46.5048421,33.4718402 39.5429474,32.5243059 C32.5810526,31.5767717 25.5269474,32.2854965 18.6188421,33.425619 C13.286,34.311525 7.738,35.4362404 2.58189474,33.8955343 C2.10875578,33.7038745 1.60127539,33.6120886 1.09115789,33.6259108 L0.922105263,33.6259108 L0.922105263,33.7260567 L0.768421053,38.0169232 C4.27242105,39.1108245 8.10684211,38.8643115 11.7184211,38.1632903 C15.5374737,37.4160478 19.2105263,36.2065935 23.0526316,35.4362404 C29.2463576,34.2991366 35.6151615,34.5623195 41.6945263,36.2065935 C45.6057895,37.2619772 49.4555789,38.8951257 53.5051579,38.8257939 C56.9784211,38.7641656 60.2749474,37.4545654 63.5791579,36.4145888 C66.6528421,35.459351 69.9032632,34.7198121 72.9846316,35.3669087 L72.5082105,30.9604892 Z" id="Path" fill="#C1585F"></path>
                        <path d="M69.8264211,51.8293534 C69.4268421,52.7306665 68.9888421,53.608869 68.5047368,54.4639609 C60.7436842,53.4702054 52.8981053,52.3840076 45.0602105,52.2145299 C40.2442289,52.1078174 35.4264064,52.3136751 30.6369474,52.8308124 C24.5894737,53.5010195 18.5035789,54.6950668 12.5329474,53.6473866 C9.82810526,53.1543607 7.21547368,52.2376405 4.49526316,51.8601675 L3.91894737,51.7831322 C3.83442105,51.6136546 3.76526316,51.4441769 3.68842105,51.2669957 C3.358,50.4966426 3.066,49.7262896 2.79705263,48.9559365 C11.7952632,50.4350144 20.9317895,51.6136546 29.9684211,50.5505674 C36.5998947,49.7802143 43.1852632,47.8312211 49.8397895,48.4089859 C56.4943158,48.9867507 63.1411579,52.1760123 69.8264211,51.8293534 Z" id="Path" fill="#C1585F"></path>
                        <path d="M61.9116842,63.0688045 L61.3276842,63.2305786 C57.906152,64.298166 54.3875269,65.0232718 50.8233684,65.3952707 C46.2128421,65.7573366 41.5177895,65.0255012 36.9456842,64.1781129 C32.3735789,63.3307245 27.8091579,62.3446726 23.1525263,62.1751949 C20.0889971,62.0212408 17.0205372,62.3566817 14.0621053,63.1689504 C13.7777895,63.2536892 13.1630526,63.4154633 12.4868421,63.6388657 C12.9632632,64.0856705 13.4627368,64.5170682 13.9622105,64.9253553 L14.7306316,65.5416378 C14.9150526,65.6880048 15.0994737,65.8343719 15.2915789,65.9730355 C18.4891364,65.0983889 21.8455578,64.9797222 25.0966316,65.6263766 C28.7927368,66.227252 32.3658947,67.3365604 36.062,67.9374358 C42.2862105,68.9003771 48.6641053,68.3149088 54.9497895,67.7294404 L56.1254737,67.6138875 L61.9116842,63.0688045 Z" id="Path" fill="#C1585F"></path>
                        <ellipse id="Oval" fill="#FEAEC9" cx="21.3236842" cy="38.0631444" rx="4.97168421" ry="4.98418425"></ellipse>
                        <ellipse id="Oval" fill="#232323" cx="25.6498947" cy="33.7260567" rx="3.67305263" ry="3.68228759"></ellipse>
                        <ellipse id="Oval" fill="#FFFFFF" cx="26.9408421" cy="32.42416" rx="1.08347368" ry="1.08619781"></ellipse>
                        <path d="M40.5572632,40.2278364 C40.5572632,42.2615077 38.9127815,43.910124 36.8842105,43.910124 C34.8556396,43.910124 33.2111579,42.2615077 33.2111579,40.2278364" id="Path" stroke="#232323" stroke-width="1.30130001" stroke-linecap="round"></path>
                    </g>
                    <g id="Pluto" transform="translate(17.000000, 485.153893)">
                        <path d="M73,36.2065935 C73.0102095,45.8123132 69.2084427,55.02755 62.4332039,61.8198234 C55.6579651,68.6120968 46.4658396,72.4234222 36.8842105,72.413187 C36.2694737,72.413187 35.6547368,72.413187 35.0476842,72.3669658 C15.365816,71.3623057 0.121042018,54.7252543 0.789183159,34.9796982 C1.4573243,15.2341421 17.7916727,-0.328969331 37.4962077,0.00581986365 C57.2007427,0.340609058 72.9996619,16.4496796 73,36.2065935 Z" id="Path" fill="#E5CD9D"></path>
                        <ellipse id="Oval" fill="#CAB894" cx="39.1894737" cy="13.0960019" rx="7.68421053" ry="7.70353053"></ellipse>
                        <ellipse id="Oval" fill="#CAB894" cx="15.3684211" cy="25.4216508" rx="5.37894737" ry="5.39247137"></ellipse>
                        <ellipse id="Oval" fill="#CAB894" cx="11.5263158" cy="42.3694179" rx="2.30526316" ry="2.31105916"></ellipse>
                        <path d="M69.9263158,50.0729485 C69.9263158,50.3502756 69.9263158,50.6198991 69.9263158,50.8895227 C64.130502,63.9863165 51.1760983,72.4248296 36.8842105,72.413187 C36.2694737,72.413187 35.6547368,72.413187 35.0476842,72.3669658 C35.0476842,72.3669658 23.8210526,50.0729485 23.0526316,47.7618893 C19.8329474,38.0785514 31.3131579,29.273416 41.4947368,29.273416 C44.6322338,29.2591894 47.720533,30.0550927 50.4622105,31.5844752 C50.8003158,31.5844752 51.1384211,31.5844752 51.4842105,31.5844752 C61.669504,31.5844752 69.9263158,39.8620466 69.9263158,50.0729485 Z" id="Path" fill="#CAB894"></path>
                        <ellipse id="Oval" fill="#FEAEC9" cx="21.3236842" cy="37.2927913" rx="4.97168421" ry="4.98418425"></ellipse>
                        <ellipse id="Oval" fill="#232323" cx="25.6498947" cy="32.9557036" rx="3.67305263" ry="3.68228759"></ellipse>
                        <ellipse id="Oval" fill="#FFFFFF" cx="26.9408421" cy="31.653807" rx="1.08347368" ry="1.08619781"></ellipse>
                        <path d="M40.5572632,39.4574834 C40.5572632,41.4911547 38.9127815,43.139771 36.8842105,43.139771 C34.8556396,43.139771 33.2111579,41.4911547 33.2111579,39.4574834" id="Path" stroke="#232323" stroke-width="1.30130001" stroke-linecap="round"></path>
                    </g>
                    <g id="Earth" transform="translate(18.000000, 605.567080)">
                        <path d="M73,37.6760959 C73,58.4837729 56.6583934,75.351728 36.5,75.351728 C16.3416066,75.351728 2.46869119e-15,58.4837729 0,37.6760959 C0,37.2833073 0,36.8744867 0,36.4897142 C0.519968149,19.493362 12.0055027,4.96320545 28.0321988,1.02665097 C44.0588949,-2.90990351 60.6537913,4.72300205 68.5345745,19.6559212 C71.4630681,25.1812506 72.9986183,31.3779461 73,37.6760959 Z" id="Path" fill="#8CDEF3"></path>
                        <path d="M68.0696633,19.5845815 C68.2114211,20.2839733 68.2246531,21.0044271 68.1086773,21.7088146 C67.7698425,23.1951706 67.0474806,24.5602972 66.0175275,25.6606897 C59.3773466,33.516344 48.5002466,36.0012959 40.9159272,42.8549535 C38.7389467,44.826883 36.7336277,47.4962023 37.0145284,50.4621126 C37.2564151,53.1153999 39.2929453,55.5522559 38.7545523,58.1654634 C38.3878208,59.9850894 36.8818808,61.2756612 35.6334332,62.6143289 C32.6029273,65.8671178 30.7210708,70.0695099 30.2885168,74.5501138 C21.5253408,72.9225322 13.5983188,68.1810889 7.89448731,61.1554216 C6.44316694,59.3518275 5.06207174,57.2115625 4.859199,54.8228023 C4.7848671,54.262842 4.80068376,53.6941347 4.90601579,53.1394478 C5.1159582,52.6506642 5.3917558,52.1946337 5.72530955,51.7847483 C6.31864706,50.8740304 6.96212492,49.9988646 7.65260058,49.1635248 C10.4115813,45.8059176 13.8105862,43.0642561 17.6401817,41.1074712 C19.4008483,40.2016262 21.2432011,39.4740828 23.141154,38.9351423 C28.3456201,37.4441711 33.8387897,37.3319475 39.113481,36.1535994 C44.3881722,34.9752512 49.7799054,32.3379958 52.3782371,27.4482518 C52.7881742,26.7333375 53.038676,25.9339232 53.1117001,25.1075875 C53.2053336,22.6066036 50.7006356,20.7629297 48.2973739,20.2980032 C45.4229768,19.7839481 42.4692344,20.5056058 40.1278447,22.2939807 C37.7011746,24.1536866 36.1250094,27.0314212 33.596903,28.7548555 C33.0824819,29.1614752 32.451328,29.3813664 31.8022595,29.3801015 C30.4367699,29.2518459 29.7813349,27.6085713 29.5316454,26.2298238 C28.7813234,22.1162914 28.9844773,17.8790485 30.124658,13.8611762 C30.2963196,13.2519622 30.4991923,12.6507642 30.702065,12.0575821 C30.7098996,12.0369638 30.7098996,12.0140727 30.702065,11.9934543 C30.7048044,11.9802426 30.7048044,11.9665862 30.702065,11.9533745 C29.4986361,11.4100759 28.3377799,10.7722512 27.2298201,10.0455727 C26.1319966,9.32513068 25.1118928,8.48675189 24.1867289,7.54458889 C23.6013105,6.94602513 23.0637799,6.29998577 22.5793526,5.61273921 C22.0616006,4.88383882 21.5998419,4.1146558 21.1982574,3.31215473 C36.8296603,-3.85507172 55.2050966,0.894100255 65.6742044,14.8070611 C66.8133203,16.1935091 67.632259,17.8268063 68.0696633,19.5845815 Z" id="Path" fill="#47A74D"></path>
                        <path d="M13.3285038,24.6085539 C13.202466,24.8138336 13.0606734,25.0191133 12.9110034,25.2164977 C9.51585853,29.7958141 5.32509964,34.0830017 0,36.0726357 C0.0411171127,32.8187361 0.550518413,29.5878123 1.51245434,26.4797574 C1.9902539,24.9017778 2.56912969,23.3563385 3.24547493,21.8530687 C3.43453172,21.4504047 5.19906178,17.5500903 5.4511375,17.6369394 C7.93976283,18.3823691 10.2467015,19.637954 12.2256726,21.3240787 C13.0134092,21.9714993 13.761759,22.8478857 13.6199664,23.8427027 C13.571837,24.114116 13.4729463,24.3739626 13.3285038,24.6085539 Z" id="Path" fill="#47A74D"></path>
                        <ellipse id="Oval" fill="#FEAEC9" cx="20.456044" cy="38.8782852" rx="5.21428571" ry="5.21049183"></ellipse>
                        <ellipse id="Oval" fill="#232323" cx="25.2692308" cy="34.4694075" rx="3.60989011" ry="4.00807064"></ellipse>
                        <ellipse id="Oval" fill="#FFFFFF" cx="26.0714286" cy="33.2669863" rx="1.2032967" ry="1.20242119"></ellipse>
                        <path d="M40.1098901,40.8823205 C40.1098901,43.0959168 38.4936873,44.8903911 36.5,44.8903911 C34.5063127,44.8903911 32.8901099,43.0959168 32.8901099,40.8823205" id="Path" stroke="#232323" stroke-width="1.46015979" stroke-linecap="round"></path>
                    </g>
                    <g id="Mercury" transform="translate(15.000000, 0.000000)">
                        <path d="M76,38.4 C76,38.984 76,39.56 75.952,40.136 C75.7473685,44.8092708 74.6616619,49.4018096 72.752,53.672 L72.68,53.824 C72.48,54.264 72.28,54.704 72.056,55.136 C71.832,55.568 71.568,56.096 71.304,56.56 C71.304,56.632 71.232,56.696 71.192,56.768 C71.056,57.032 70.904,57.288 70.752,57.568 C70.184,58.536 69.568,59.472 68.912,60.376 C68.1382938,61.4514953 67.3077811,62.4849629 66.424,63.472 C65.8,64.176 65.144,64.848 64.464,65.496 C63.4523058,66.4704 62.3837668,67.3840008 61.264,68.232 L60.984,68.448 C60.184,69.072 59.304,69.664 58.424,70.216 C57.1329141,71.0471877 55.7886949,71.7927884 54.4,72.448 L53.808,72.72 C50.9781221,73.9922294 48.0004013,74.9059705 44.944,75.44 C42.7828654,75.8147841 40.5933904,76.0021475 38.4,76 C31.8725707,76.0054686 25.4563983,74.3097462 19.784,71.08 C18.4508717,70.3067648 17.1634047,69.4573571 15.928,68.536 C15.728,68.392 15.536,68.24 15.344,68.088 L14.544,67.448 C14.024,67.024 13.504,66.576 13.008,66.112 L12.8,65.928 C12.456,65.608 12.112,65.28 11.784,64.952 L11.728,64.896 C9.36782698,62.5286268 7.33389989,59.8570797 5.68,56.952 C5.096,55.92 4.56,54.864 4.08,53.752 C3.992,53.576 3.92,53.4 3.84,53.216 C3.496,52.416 3.192,51.616 2.912,50.816 L2.864,50.68 C1.63160836,47.1422115 0.935895167,43.4398308 0.8,39.696 C0.796010852,39.6347315 0.796010852,39.5732685 0.8,39.512 C0.8,39.1333333 0.8,38.7626667 0.8,38.4 C0.8,38.008 0.8,37.6 0.8,37.216 C0.8,36.464 0.872,35.712 0.944,34.976 L0.944,34.912 C0.944,34.864 0.944,34.816 0.944,34.768 C1.38099948,30.2263763 2.65585727,25.8050609 4.704,21.728 C4.768,21.592 4.832,21.456 4.904,21.32 C5.208,20.712 5.536,20.12 5.872,19.536 C5.89017678,19.4943949 5.91157518,19.4542729 5.936,19.416 C6.12,19.104 6.304,18.8 6.496,18.496 C8.70808538,14.9428171 11.5048063,11.789068 14.768,9.168 L14.968,9 C16.0936486,8.09287819 17.2745921,7.25659921 18.504,6.496 C18.648,6.4 18.8,6.312 18.952,6.224 C20.2190537,5.44639076 21.5336346,4.74902163 22.888,4.136 C34.8538311,-1.27461584 48.7739077,-0.0620656102 59.624,7.336 C59.9226667,7.53866667 60.2186667,7.74666667 60.512,7.96 C61.032,8.344 61.536,8.76 62.032,9.144 L62.496,9.528 C64.1103176,10.8636586 65.6040696,12.3386717 66.96,13.936 C68.5730871,15.8100507 69.9935709,17.8416106 71.2,20 C71.28,20.128 71.352,20.256 71.424,20.392 C71.576,20.672 71.72,20.944 71.864,21.232 C72.312,22.088 72.72,22.96 73.096,23.856 C74.2045542,26.494943 75.009717,29.2512835 75.496,32.072 C75.499943,32.0985209 75.499943,32.1254791 75.496,32.152 L75.712,34.24 L76,36.736 C76,37.288 76,37.848 76,38.4 Z" id="Path" fill="#C68E39"></path>
                        <path d="M24,61.6 L19.784,71.08 C18.4508717,70.3067648 17.1634047,69.4573571 15.928,68.536 C15.728,68.392 15.536,68.24 15.344,68.088 L14.544,67.448 C14.024,67.024 13.504,66.576 13.008,66.112 L12.8,65.928 C12.456,65.608 12.112,65.28 11.784,64.952 L11.728,64.896 L14.4,60 L12,52 L12,43.2 L8,39.2 L16.8,44 L17.6,52.8 L24,61.6 Z" id="Path" fill="#AC6122"></path>
                        <path d="M53.784,72.72 C50.9541221,73.9922294 47.9764013,74.9059705 44.92,75.44 L40.8,67.2 L40.8,59.2 L31.2,51.2 L30.4,40.8 L24,40 L16,35.2 L29.6,36.8 L36,40.8 L36,49.6 L45.6,55.2 L48,65.6 L53.784,72.72 Z" id="Path" fill="#AC6122"></path>
                        <path d="M72.072,55.136 C71.84,55.616 71.584,56.096 71.32,56.56 C71.32,56.632 71.248,56.696 71.208,56.768 C71.072,57.032 70.92,57.288 70.768,57.568 C70.2,58.536 69.584,59.472 68.928,60.376 L57.6,52.8 L56.8,32 L40,32 L29.6,19.2 L14.4,18.4 L27.2,14.4 L36.8,20 L42.4,26.4 L58.4,28 L65.6,41.6 L67.2,52 L72.072,55.136 Z" id="Path" fill="#AC6122"></path>
                        <circle id="Oval" fill="#FEAEC9" cx="22.2" cy="39.528" r="5.176"></circle>
                        <circle id="Oval" fill="#232323" cx="26.704" cy="35.024" r="3.824"></circle>
                        <circle id="Oval" fill="#FFFFFF" cx="28.048" cy="33.672" r="1.128"></circle>
                        <path d="M42.224,41.776 C42.224,43.8879369 40.5119369,45.6 38.4,45.6 C36.2880631,45.6 34.576,43.8879369 34.576,41.776" id="Path" stroke="#232323" stroke-width="1.35200002" stroke-linecap="round"></path>
                    </g>
                    <g id="Jupiter" transform="translate(15.000000, 240.000000)">
                        <path d="M75.2,37.6 L75.2,37.784 C75.2,38.048 75.2,38.32 75.2,38.584 C75.1512764,40.4997355 74.9587348,42.4091059 74.624,44.296 C74.464,45.16 74.28,46.016 74.072,46.856 C73.96,47.2933333 73.84,47.7333333 73.712,48.176 C73.0503318,50.4407905 72.1743734,52.6373834 71.096,54.736 C70.872,55.168 70.64,55.6 70.4,56.024 C70.16,56.448 69.864,56.968 69.6,57.424 C69.336,57.88 69.072,58.224 68.8,58.664 C68.232,59.504 67.624,60.32 66.992,61.112 C65.9686336,62.3912948 64.8622464,63.6019068 63.68,64.736 C62.96,65.424 62.216,66.088 61.44,66.72 C60.4610376,67.5268368 59.441009,68.2825124 58.384,68.984 L58.256,69.064 C53.2310013,72.3644856 47.4849525,74.4060617 41.504,75.016 C40.2066527,75.1438244 38.9036187,75.2052379 37.6,75.2 L37.096,75.2 C28.8721994,75.0972015 20.9118085,72.2853361 14.448,67.2 C13.48,66.4 12.544,65.6 11.656,64.8 C9.36666613,62.6199141 7.36392792,60.157487 5.696,57.472 C4.17608267,55.0558038 2.94372506,52.4702692 2.024,49.768 C1.96,49.576 1.896,49.392 1.84,49.2 C1.752,48.928 1.672,48.664 1.592,48.4 C1.512,48.136 1.376,47.648 1.272,47.272 L1.104,46.608 C1.032,46.32 0.96,46.024 0.896,45.728 L0.696,44.84 C0.395027174,43.2997355 0.191953657,41.7419479 0.088,40.176 C0,39.328 0,38.464 0,37.6 C0,37.32 0,37.04 0,36.8 C0,36.56 0,36.112 0.04,35.768 C0.04,35.56 0.04,35.352 0.04,35.152 C0.04,34.952 0.04,34.672 0.096,34.432 C0.152,34.192 0.144,33.912 0.168,33.632 C0.192,33.352 0.168,33.272 0.224,33.088 C0.505354526,30.8176965 0.998161827,28.5786372 1.696,26.4 C1.944,25.6 2.216,24.8 2.496,24 C2.912,22.9333333 3.376,21.8666667 3.888,20.8 C4.50780485,19.5476775 5.19963022,18.3323086 5.96,17.16 C6.4,16.632 6.8,16 7.2,15.432 C8.05592013,14.258315 8.97738472,13.1338611 9.96,12.064 C10.576,11.408 11.2,10.776 11.856,10.168 L12.272,9.784 C13.293343,8.86048942 14.3614148,7.99001093 15.472,7.176 L16.272,6.584 C16.736,6.272 17.2,5.968 17.672,5.672 L18.216,5.336 C20.0182685,4.25760287 21.90751,3.33171399 23.864,2.568 C24.416,2.352 24.984,2.152 25.552,1.96 L26.256,1.736 L26.808,1.568 L27.608,1.344 C28.8122464,1.01524147 30.0325038,0.74822673 31.264,0.544 C32.5135745,0.324367954 33.7740641,0.172147808 35.04,0.088 L35.84,0.088 C36.4213333,0.0293333333 37.008,0 37.6,0 C38.336,0 39.064,0 39.784,0.064 C48.9568217,0.585789285 57.6179156,4.46078888 64.12,10.952 C64.816,11.648 65.488,12.368 66.136,13.12 L66.192,13.184 C66.864,13.984 67.496,14.784 68.096,15.584 C68.9713748,16.7737163 69.7728825,18.0160532 70.496,19.304 C70.56,19.416 70.616,19.528 70.672,19.64 C70.728,19.752 70.784,19.84 70.84,19.944 C71.064,20.352 71.272,20.744 71.48,21.184 L71.84,21.984 C72.462616,23.375679 72.9970061,24.8051726 73.44,26.264 L73.608,26.808 C73.608,26.904 73.664,27.008 73.696,27.104 C73.728,27.2 73.784,27.4 73.824,27.552 C73.944,27.968 74.048,28.352 74.152,28.816 C74.368,29.72 74.552,30.632 74.696,31.56 L74.696,31.736 C74.776,32.192 74.84,32.64 74.896,33.104 C75.0858471,34.5953662 75.1873575,36.096652 75.2,37.6 Z" id="Path" fill="#F1C18F"></path>
                        <path d="M75.2,37.6 L75.2000075,37.784 C66.0663511,35.8778948 57.2004044,32.8607863 48.8,28.8 C35.376,22.088 21.952,16.8 7.2,15.432 C8.05592013,14.258315 8.97738472,13.1338611 9.96,12.064 C16.64,13.232 27.888,15.416 32.8,17.6 C40,20.8 63.2,32 68,32.8 C70.2955451,33.138235 72.6199846,33.2374326 74.936,33.096 C75.1127907,34.5908093 75.2009449,36.0947728 75.2,37.6 Z" id="Path" fill="#99582B"></path>
                        <path d="M74.736,31.728 C66.3246748,29.8249617 58.1593326,26.9636025 50.4,23.2 C37.912,16.952 25.424,11.92 11.888,10.168 L12.304,9.784 C13.325343,8.86048942 14.3934148,7.99001093 15.504,7.176 C22.032,8.408 30.4,10.2 34.4,12 C41.6,15.2 64.8,26.4 69.6,27.2 C71.0027069,27.4208327 72.4200399,27.5358238 73.84,27.544 C73.96,27.96 74.064,28.344 74.168,28.808 C74.384,29.712 74.568,30.624 74.712,31.552 L74.736,31.728 Z" id="Path" fill="#E79A56"></path>
                        <path d="M68.104,15.608 C62.0120791,13.8692856 56.0872942,11.5909341 50.4,8.8 C44.2233412,5.64350327 37.853303,2.88065951 31.328,0.528 C32.5567103,0.315989501 33.7957744,0.169117672 35.04,0.088 L35.84,0.088 C36.4213333,0.0293333333 37.008,0 37.6,0 C38.336,0 39.064,0 39.784,0.064 C46.896,3.36 57.432,8.28 64.12,10.952 C64.816,11.648 65.488,12.368 66.136,13.12 L66.192,13.184 C66.872,13.968 67.504,14.776 68.104,15.608 Z" id="Path" fill="#E79A56"></path>
                        <path d="M75.2,38.576 C75.1512764,40.4917355 74.9587348,42.4011059 74.624,44.288 C65.162255,41.9593618 55.970691,38.6452506 47.2,34.4 C33.256,27.424 19.312,21.952 3.912,20.888 C4.53180485,19.6356775 5.22363022,18.4203086 5.984,17.248 C11.896,18.248 25.6,20.72 31.2,23.2 C38.4,26.4 61.6,37.6 66.4,38.4 C69.3159845,38.8073092 72.2700615,38.8663908 75.2,38.576 Z" id="Path" fill="#E79A56"></path>
                        <path d="M74.608,44.288 C74.448,45.152 74.264,46.008 74.056,46.848 C64.4828093,44.949278 55.1897062,41.8417202 46.4,37.6 C32.28,30.536 18.152,25.016 2.52,24.056 C2.936,22.9893333 3.4,21.9226667 3.912,20.856 C19.312,21.952 33.256,27.424 47.2,34.4 C55.9655778,38.6442037 65.151727,41.9582961 74.608,44.288 Z" id="Path" fill="#99582B"></path>
                        <path d="M73.712,27.096 C66.2186538,25.229867 58.9415593,22.583407 52,19.2 C40.392,13.392 28.8,8.632 16.336,6.584 C16.8,6.272 17.264,5.968 17.736,5.672 L18.28,5.336 C20.0822685,4.25760287 21.97151,3.33171399 23.928,2.568 C24.48,2.352 25.048,2.152 25.616,1.96 L26.32,1.736 C29.8940129,2.45784177 33.4000258,3.4828822 36.8,4.8 C43.472,7.76 63.864,17.6 70.648,19.664 C70.712,19.76 70.76,19.864 70.816,19.968 C71.04,20.376 71.248,20.768 71.456,21.208 L71.816,22.008 C72.438616,23.399679 72.9730061,24.8291726 73.416,26.288 L73.584,26.832 C73.656,26.896 73.68,27 73.712,27.096 Z" id="Path" fill="#99582B"></path>
                        <path d="M73.696,48.168 C73.0343318,50.4327905 72.1583734,52.6293834 71.08,54.728 C70.856,55.16 70.624,55.592 70.384,56.016 C61.5369043,54.1010857 52.9486947,51.1416714 44.8,47.2 C30.464,40 16.128,34.448 0.216,33.6 C0.216,33.416 0.216,33.24 0.272,33.056 C0.539658264,30.7980453 1.01637066,28.5698166 1.696,26.4 C3.2,26.648 22.68,29.728 29.6,32.8 C36.8,36 60,47.2 64.8,48 C67.7482326,48.4078944 70.7344689,48.4642892 73.696,48.168 Z" id="Path" fill="#99582B"></path>
                        <path d="M70.4,56 C69.896,56.904 69.352,57.784 68.8,58.64 C60.7877641,56.7528608 53.0075845,53.9895557 45.6,50.4 C31.2,43.2 16.8,37.6 0.8,36.8 L0,36.8 C0,35.736 0.088,34.688 0.2,33.656 C16.112,34.456 30.448,40.056 44.784,47.256 C52.946071,51.1752793 61.5450537,54.1105348 70.4,56 Z" id="Path" fill="#E79A56"></path>
                        <path d="M66.952,61.104 C65.9286336,62.3832948 64.8222464,63.5939068 63.64,64.728 C57.1515226,62.9445164 50.8440587,60.5581256 44.8,57.6 C30.608,50.504 16.416,45.744 0.696,44.84 C0.395027174,43.2997355 0.191953657,41.7419479 0.088,40.176 L0.8,40 C0.8,40 21.6,43.2 28.8,46.4 C36,49.6 59.2,60 64,60.8 C64.9774075,60.9574701 65.9630135,61.0589688 66.952,61.104 Z" id="Path" fill="#99582B"></path>
                        <path d="M61.392,66.712 C60.4130376,67.5188368 59.393009,68.2745124 58.336,68.976 C57.632,68.752 56.912,68.512 56.184,68.256 C52.0149851,66.8428661 47.9446547,65.1537993 44,63.2 C30.448,56.424 16.904,51.064 2.024,49.792 C1.96,49.6 1.896,49.416 1.84,49.224 C1.784,49.032 1.664,48.688 1.584,48.424 C1.504,48.16 1.368,47.672 1.264,47.296 L1.096,46.632 C1.024,46.344 0.952,46.048 0.888,45.752 C4.936,46.4 21.688,49.2 28,52 C34.528,54.896 54.192,64.368 61.392,66.712 Z" id="Path" fill="#99582B"></path>
                        <path d="M58.208,69.056 C55.5168281,70.8321859 52.6038837,72.2469678 49.544,73.264 C47.448,72.408 45.312,71.456 43.2,70.4 C31.024,64.312 18.84,59.368 5.696,57.496 C4.17608267,55.0798038 2.94372506,52.4942692 2.024,49.792 C16.904,51.064 30.448,56.424 44,63.2 C47.9446547,65.1537993 52.0149851,66.8428661 56.184,68.256 C56.904,68.544 57.6,68.8 58.208,69.056 Z" id="Path" fill="#E79A56"></path>
                        <path d="M41.448,75.008 C40.1693733,75.136603 38.8850777,75.2006843 37.6,75.2 L37.096,75.2 C36.336,74.864 35.568,74.512 34.8,74.128 C28.2,70.816 21.6,68.152 14.448,67.2 C13.48,66.4 12.544,65.6 11.656,64.8 C12.976,65.008 22.776,66.584 26.328,68.168 C29.168,69.456 36.736,73.072 41.448,75.008 Z" id="Path" fill="#E79A56"></path>
                        <circle id="Oval" fill="#FEAEC9" cx="21.4" cy="38.728" r="5.176"></circle>
                        <circle id="Oval" fill="#232323" cx="25.904" cy="34.224" r="3.824"></circle>
                        <circle id="Oval" fill="#FFFFFF" cx="27.248" cy="32.872" r="1.128"></circle>
                        <path d="M41.424,40.976 C41.424,43.0879369 39.7119369,44.8 37.6,44.8 C35.4880631,44.8 33.776,43.0879369 33.776,40.976" id="Path" stroke="#232323" stroke-width="1.35200002" stroke-linecap="round"></path>
                    </g>
                    <g id="Uranus" transform="translate(0.000000, 124.000000)">
                        <path d="M86.1268027,34.3578947 C86.126691,35.7336312 86.0424089,37.1080912 85.8744218,38.4736842 C85.6281337,40.4943633 85.1936206,42.4880202 84.5764626,44.4290526 C84.2880272,45.3524211 83.9563265,46.2543158 83.5885714,47.1418947 L83.4587755,47.4568421 C83.3794558,47.6429474 83.3001361,47.8290526 83.2136054,48.0151579 L83.1487075,48.1511579 C82.7737415,48.9886316 82.3627211,49.8046316 81.9084354,50.5991579 C81.9084354,50.6635789 81.8435374,50.7208421 81.807483,50.7852632 C81.7065306,50.9785263 81.5983673,51.1717895 81.4829932,51.3578947 L81.4108844,51.4795789 C81.2666667,51.7229474 81.1152381,51.9663158 80.9638095,52.1953684 C80.940019,52.2398687 80.9135304,52.2828951 80.8844898,52.3242105 C79.885811,53.8918032 78.75699,55.373866 77.5097959,56.7549474 C76.9473469,57.3848421 76.3560544,57.9861053 75.7431293,58.5658947 C74.831228,59.4377263 73.8680891,60.2551586 72.8587755,61.0138947 L72.6063946,61.2071579 C71.8853061,61.7654737 71.0921088,62.2951579 70.2989116,62.7890526 C69.1235281,63.5341249 67.8998177,64.2012633 66.6357823,64.7861053 C55.3176134,70.052626 41.9979118,68.7073346 31.9802721,61.2858947 C31.8,61.1570526 31.6269388,61.0210526 31.4538776,60.8850526 L30.7327891,60.3124211 C30.2640816,59.9330526 29.7953741,59.5322105 29.3482993,59.1170526 L29.1680272,58.9524211 C28.8579592,58.6661053 28.5478912,58.3726316 28.2522449,58.0791579 C26.8635567,56.7003165 25.5992226,55.2033663 24.4737415,53.6054737 L24.3439456,53.4193684 C24.0338776,52.9827368 23.7310204,52.5317895 23.4497959,52.0808421 C23.1685714,51.6298947 22.9738776,51.3149474 22.7287075,50.9212632 C22.4835374,50.5275789 22.3897959,50.32 22.2311565,50.0122105 C22.072517,49.7044211 21.8417687,49.2964211 21.6614966,48.8884211 L21.4668027,48.4732632 L21.2865306,48.0795789 C21.2072109,47.9221053 21.1423129,47.7646316 21.0702041,47.6 C20.7601361,46.8842105 20.4861224,46.1684211 20.2337415,45.4526316 L20.1904762,45.3810526 C19.0834723,42.2031327 18.4636321,38.8781794 18.3517007,35.5174737 L18.3517007,35.2311579 C18.3517007,35.0307368 18.3517007,34.8374737 18.3517007,34.6370526 C18.3517007,34.4366316 18.3517007,34.4509474 18.3517007,34.3578947 C18.3517007,34.0071579 18.3517007,33.6421053 18.3517007,33.2985263 C18.3517007,32.6256842 18.4165986,31.9528421 18.4814966,31.2943158 L18.4814966,31.2370526 C18.4850595,31.2109262 18.4850595,31.1844423 18.4814966,31.1583158 C18.4814966,31.1583158 18.4814966,31.1225263 18.4814966,31.1082105 C18.4814966,30.8863158 18.5247619,30.6644211 18.5536054,30.4496842 C18.6473469,29.6336842 18.769932,28.832 18.9213605,28.0374737 C19.4880441,25.0535266 20.4709708,22.1625528 21.8417687,19.448 C21.8994558,19.3263158 21.9571429,19.2046316 22.0220408,19.0829474 C22.2527891,18.6176842 22.5051701,18.1667368 22.7431293,17.7157895 L22.8729252,17.4867368 C22.889309,17.4495112 22.9085967,17.4136126 22.9306122,17.3793684 C23.0964626,17.1002105 23.2623129,16.8282105 23.4353741,16.5562105 C23.9329252,15.7616842 24.4665306,14.9814737 25.0289796,14.2370526 C25.1804082,14.0366316 25.3318367,13.8433684 25.4904762,13.6501053 C26.4310914,12.4541109 27.455152,11.3251588 28.555102,10.2715789 C28.6776871,10.1570526 28.7930612,10.0425263 28.9156463,9.94231579 C29.6367347,9.30526316 30.2857143,8.73263158 30.9346939,8.20294737 L31.114966,8.05263158 C32.1295813,7.24099627 33.1940371,6.49274666 34.3021769,5.81221053 C34.4319728,5.72631579 34.5689796,5.64757895 34.7059864,5.56884211 C35.8480586,4.87308647 37.03297,4.24912462 38.2537415,3.70063158 C49.0489463,-1.14226425 61.6065953,-0.0490012596 71.3877551,6.58526316 C71.6569615,6.76659649 71.9237642,6.95270175 72.1881633,7.14357895 C72.6568707,7.48715789 73.1111565,7.85936842 73.5582313,8.20294737 L73.9764626,8.54652632 C74.3946939,8.89010526 74.7985034,9.26231579 75.195102,9.59157895 C75.3321088,9.72042105 75.4691156,9.84210526 75.6061224,9.97810526 C76.4715406,10.7953483 77.2923479,11.6579114 78.065034,12.5621053 L78.187619,12.7052632 C78.5337415,13.1132632 78.8654422,13.5212632 79.189932,13.9507368 C80.1553919,15.2007242 81.0278151,16.5188808 81.8002721,17.8947368 C81.872381,18.0021053 81.930068,18.1166316 81.994966,18.2311579 C82.1319728,18.4816842 82.2617687,18.7250526 82.3915646,18.9827368 C82.7953741,19.7486316 83.1631293,20.5288421 83.5020408,21.3305263 C84.302455,23.2261497 84.9252231,25.1909449 85.362449,27.2 C85.362449,27.3431579 85.4273469,27.4863158 85.4489796,27.6294737 C85.5282993,27.9730526 85.5931973,28.3452632 85.6508844,28.6673684 C85.6544384,28.6910977 85.6544384,28.7152181 85.6508844,28.7389474 L85.795102,30.1705263 L85.9537415,31.6665263 L85.9537415,31.7667368 L86.0691156,32.8690526 C86.112381,33.3629474 86.1268027,33.864 86.1268027,34.3578947 Z" id="Path" fill="#7AE9FA"></path>
                        <path d="M81.8002721,17.8947368 C71.4624164,15.0841098 60.6795283,14.2557066 50.0291156,15.4538947 C41.0227211,16.4774737 32.0019048,18.9469474 23.0243537,17.7301053 L22.7863946,17.6943158 L22.9161905,17.4652632 C22.9325743,17.4280375 22.951862,17.3921389 22.9738776,17.3578947 C23.1397279,17.0787368 23.3055782,16.8067368 23.4786395,16.5347368 C23.9761905,15.7402105 24.5097959,14.96 25.0722449,14.2155789 C25.2236735,14.0151579 25.375102,13.8218947 25.5337415,13.6286316 C29.8602721,15.1246316 34.7059864,15.3107368 39.3281633,14.8884211 C45.5439456,14.3229474 51.6371429,12.7410526 57.8601361,12.2113684 C64.9994983,11.6983258 72.1757151,12.304631 79.125034,14.008 C80.110466,15.2375294 81.0045675,16.5365305 81.8002721,17.8947368 Z" id="Path" fill="#5ABAC6"></path>
                        <path d="M86.1268027,34.3578947 C86.126691,35.7336312 86.0424089,37.1080912 85.8744218,38.4736842 C81.3479884,36.4345891 76.5238115,35.1226425 71.582449,34.5869474 C61.1410884,33.5705263 50.7790476,36.7343158 40.3088435,37.3570526 C32.883842,37.7900156 25.4417853,36.8681108 18.3517007,34.6370526 C18.3517007,34.544 18.3517007,34.4509474 18.3517007,34.3578947 C18.3517007,34.0071579 18.3517007,33.6421053 18.3517007,33.2985263 C18.3517007,32.6256842 18.4165986,31.9528421 18.4814966,31.2943158 L18.4814966,31.2370526 C18.4850595,31.2109262 18.4850595,31.1844423 18.4814966,31.1583158 C18.4814966,31.1583158 18.4814966,31.1225263 18.4814966,31.1082105 C18.4814966,30.8863158 18.5247619,30.6644211 18.5536054,30.4496842 C18.6473469,29.6336842 18.769932,28.832 18.9213605,28.0374737 C21.8057143,28.5456842 24.690068,29.2829474 27.5744218,29.92 C34.0642177,31.3515789 40.7703401,32.3178947 47.3322449,31.2943158 C53.5263946,30.3208421 59.3672109,27.6294737 65.6190476,27.2 C70.2989116,26.8778947 74.9931973,27.8585263 79.5576871,28.832 L85.8095238,30.1705263 L85.9681633,31.6665263 L85.9681633,31.7667368 L86.0835374,32.8690526 C86.112381,33.3629474 86.1268027,33.864 86.1268027,34.3578947 Z" id="Path" fill="#5ABAC6"></path>
                        <path d="M84.5764626,44.4290526 C84.2880272,45.3524211 83.9563265,46.2543158 83.5885714,47.1418947 L83.4587755,47.4568421 C83.3794558,47.6429474 83.3001361,47.8290526 83.2136054,48.0151579 L83.1487075,48.1511579 C82.7737415,48.9886316 82.3627211,49.8046316 81.9084354,50.5991579 C81.9084354,50.6635789 81.8435374,50.7208421 81.807483,50.7852632 C81.7065306,50.9785263 81.5983673,51.1717895 81.4829932,51.3578947 C73.3382502,53.566971 65.0762998,55.3257444 56.7352381,56.6261053 C53.3533333,57.1557895 49.8632653,57.5995789 46.5462585,56.7692632 C43.2292517,55.9389474 40.3809524,53.9061053 37.1721088,52.8467368 C33.3791837,51.5726316 29.2401361,51.6656842 25.2813605,51.9806316 C24.6756463,52.0307368 24.069932,52.0808421 23.4570068,52.1094737 C23.2118367,51.7301053 22.9810884,51.3435789 22.7359184,50.9498947 C22.4907483,50.5562105 22.3970068,50.3486316 22.2383673,50.0408421 C22.0797279,49.7330526 21.8489796,49.3250526 21.6687075,48.9170526 L21.4740136,48.5018947 C22.0580952,48.5018947 22.5484354,48.5448421 22.7863946,48.5448421 C26.8270928,48.6983526 30.8397903,49.2790374 34.7564626,50.2770526 C42.5153741,52.0593684 50.382449,54.5717895 58.4514286,53.8058947 C64.7032653,53.2046316 70.5657143,50.6277895 76.3055782,48.0795789 L84.5764626,44.4290526 Z" id="Path" fill="#5ABAC6"></path>
                        <path d="M17.4142857,33.1696842 C17.4142857,33.5275789 17.4142857,33.8854737 17.4142857,34.2576842 C17.4142857,34.6298947 17.4142857,34.9162105 17.4142857,35.2526316 C17.4106901,35.3074507 17.4106901,35.362444 17.4142857,35.4172632 C17.4662821,36.8778835 17.6107851,38.3338109 17.8469388,39.7764211 C12.4748299,43.4197895 9.64816327,46.9343158 10.4269388,49.7974737 C11.285034,52.8968421 16.4191837,54.5216842 24.127619,54.6576842 C32.5427211,54.8223158 44.022449,53.2261053 56.3242177,49.8261053 C68.8855782,46.3688421 79.7668027,41.7663158 86.8983673,37.2210526 C93.1069388,33.2698947 96.4816327,29.3903158 95.6379592,26.3696842 C94.9168707,23.6496842 90.8210884,22.0749474 84.6197279,21.6168421 C84.5331973,21.3734737 84.4322449,21.1229474 84.3240816,20.9010526 C83.9779592,20.0778947 83.6029932,19.2762105 83.1847619,18.4888421 C83.054966,18.224 82.9179592,17.9734737 82.7809524,17.7157895 C81.8940136,16.1195789 80.7619048,15.7473684 79.6370068,14.3157895 C93.3953741,14.5376842 103.432925,17.0501053 105.286122,23.7284211 C107.398912,31.3086316 99.3515646,42.2745263 84.5764626,50.1052632 C76.6172725,54.2436596 68.2270594,57.507878 59.5546939,59.84 C50.9997716,62.2367479 42.2093095,63.7102575 33.3359184,64.2349474 C16.4696599,65.1368421 3.15836735,59.9974737 1.03115646,52.3743158 C-0.836462585,45.6530526 5.81197279,38.7313684 17.6161905,31.4947368" id="Path" fill="#368AAC"></path>
                        <path d="M83.0405442,48.3945263 C75.2923391,52.4232258 67.1245882,55.6010334 58.6821769,57.8715789 C50.3536539,60.2101015 41.7953058,61.6500094 33.1556463,62.1663158 C16.7364626,62.9894737 4.47795918,59.4105263 2.40843537,51.9949474 C0.584081633,45.4526316 7.08108844,37.4286316 18.582449,30.3852632 C18.582449,30.6214737 18.5247619,30.8576842 18.5031293,31.1010526 C18.5031293,31.144 18.5031293,31.1869474 18.5031293,31.2298947 L18.5031293,31.2871579 C18.4382313,31.9456842 18.394966,32.6185263 18.3733333,33.2913684 C18.3733333,33.6421053 18.3733333,34.0071579 18.3733333,34.3507368 C18.3733333,34.6943158 18.3733333,34.9949474 18.3733333,35.3170526 C18.3697377,35.3718718 18.3697377,35.4268651 18.3733333,35.4816842 C18.4208702,36.9040023 18.5605694,38.3218095 18.7915646,39.7263158 C13.5564626,43.3052632 10.8163265,46.7553684 11.537415,49.4825263 C12.3738776,52.496 17.3710204,54.0778947 24.8559184,54.2138947 C33.047483,54.3713684 44.2243537,52.7823158 56.2016327,49.5111579 C68.4601361,46.1469474 79.0385034,41.6374737 85.982585,37.2568421 C92.032517,33.4130526 95.3134694,29.6336842 94.4914286,26.6917895 C93.7703401,24.0433684 89.8043537,22.4972632 83.7688435,22.0677895 C83.6823129,21.8244211 83.5813605,21.5810526 83.4804082,21.352 C83.1414966,20.5503158 82.7593197,19.7701053 82.369932,19.0042105 C82.2401361,18.7465263 82.1103401,18.5031579 81.9733333,18.2526316 C81.130134,16.7076323 80.1657029,15.2309293 79.0889796,13.8362105 C92.4795918,14.0509474 102.106122,17.6084211 103.916054,24.1149474 C106,31.4947368 97.4262585,40.8 83.0405442,48.3945263 Z" id="Path" fill="#59C9EF"></path>
                        <ellipse id="Oval" fill="#FEAEC9" cx="37.6336054" cy="35.3671579" rx="4.66544218" ry="4.63115789"></ellipse>
                        <ellipse id="Oval" fill="#232323" cx="41.6933333" cy="31.3372632" rx="3.44680272" ry="3.42147368"></ellipse>
                        <ellipse id="Oval" fill="#FFFFFF" cx="42.9047619" cy="30.1275789" rx="1.01673469" ry="1.00926316"></ellipse>
                        <path d="M55.682449,37.3785263 C55.682449,39.2681541 54.1392628,40.8 52.2356463,40.8 C50.3320297,40.8 48.7888435,39.2681541 48.7888435,37.3785263" id="Path" stroke="#232323" stroke-width="1.2167999" stroke-linecap="round"></path>
                    </g>
                </g>
            </g>
        </g>
    </g>
</svg>