<?xml version="1.0" encoding="UTF-8"?>
<svg width="320px" height="515px" viewBox="0 0 320 515" version="1.1" xmlns="http://www.w3.org/2000/svg" xmlns:xlink="http://www.w3.org/1999/xlink">
    <!-- Generator: Sketch 52.5 (67469) - http://www.bohemiancoding.com/sketch -->
    <title>planets-mobile-bg</title>
    <desc>Created with Sketch.</desc>
    <g id="Mobile-Display" stroke="none" stroke-width="1" fill="none" fill-rule="evenodd">
        <g id="Mobile---Start-Screen" transform="translate(0.000000, -40.000000)">
            <g id="planets-mobile-bg" transform="translate(-71.000000, 40.000000)">
                <g id="Neptune" transform="translate(348.000000, 0.000000)">
                    <path d="M85,41.0631579 C85.0085519,46.4158659 83.9384002,51.7179093 81.8505263,56.6671579 L81.6894737,57.0515789 C81.5910526,57.2787368 81.4926316,57.5058947 81.3852632,57.7330526 L81.3047368,57.8990526 C80.8394737,58.9212632 80.3294737,59.9172632 79.7657895,60.8870526 C79.7657895,60.9656842 79.6852632,61.0355789 79.6405263,61.1142105 C79.4884211,61.4025263 79.3184211,61.6821053 79.1484211,61.9878947 C78.9784211,62.2936842 78.7815789,62.582 78.5936842,62.8615789 C78.5641646,62.9158954 78.5312972,62.968413 78.4952632,63.0188421 C77.2560882,64.9322272 75.855431,66.7412157 74.3078947,68.4269474 C73.61,69.1957895 72.8763158,69.9296842 72.1157895,70.6373684 C70.9842894,71.7015157 69.7892129,72.699264 68.5368421,73.6253684 L68.2236842,73.8612632 C67.3289474,74.5427368 66.3447368,75.1892632 65.3605263,75.7921053 C63.9112574,76.7064988 62.4018457,77.5266271 60.8421053,78.2471579 C46.7983594,84.6754112 30.2710832,83.0333643 17.8410526,73.9748421 C17.6173684,73.8175789 17.4026316,73.6515789 17.1878947,73.4855789 L16.2931579,72.7866316 C15.7115789,72.3235789 15.13,71.8343158 14.5752632,71.3275789 L14.3157895,71.1266316 C13.9310526,70.7771579 13.5463158,70.4189474 13.1794737,70.0607368 C11.4563695,68.3777392 9.8875657,66.5505795 8.49105263,64.6002105 L8.33,64.3730526 C7.61882671,63.389756 6.95886648,62.3720787 6.35263158,61.3238947 C6.13789474,60.9569474 5.93210526,60.59 5.73526316,60.2143158 C5.53842105,59.8386316 5.25210526,59.3406316 5.02842105,58.8426316 C4.86736842,58.5193684 4.71526316,58.1873684 4.56315789,57.8553684 C4.46473684,57.6631579 4.38421053,57.4709474 4.29473684,57.27 C3.91,56.3963158 3.57,55.5226316 3.25684211,54.6489474 L3.20315789,54.5004211 C1.82219217,50.6284319 1.04405502,46.5760157 0.894736842,42.4785263 L0.894736842,42.1290526 C0.894736842,41.7708421 0.894736842,41.4213684 0.894736842,41.0631579 C0.894736842,40.7049474 0.894736842,40.1894737 0.894736842,39.7701053 C0.894736842,38.9488421 0.975263158,38.1275789 1.05578947,37.3237895 L1.05578947,37.2538947 C1.06021039,37.2220051 1.06021039,37.1896791 1.05578947,37.1577895 C1.05578947,37.1577895 1.05578947,37.1141053 1.05578947,37.0966316 C1.05578947,36.8257895 1.10947368,36.5549474 1.14526316,36.2928421 C1.69670469,31.6121506 3.0900139,27.0632633 5.26105263,22.8555789 C5.33263158,22.7070526 5.40421053,22.5585263 5.48473684,22.41 C5.82473684,21.746 6.19157895,21.0994737 6.56736842,20.4616842 C6.58769771,20.416247 6.61163013,20.3724296 6.63894737,20.3306316 C6.84473684,19.9898947 7.05052632,19.6578947 7.26526316,19.3258947 C7.88263158,18.3561053 8.54473684,17.4037895 9.24263158,16.4951579 C10.5657671,14.7697959 12.0289077,13.1511712 13.6178947,11.6549474 C13.77,11.5151579 13.9131579,11.3753684 14.0652632,11.2530526 C14.8347368,10.5366316 15.6221053,9.86389474 16.4452632,9.21736842 L16.6689474,9.03389474 C17.9278965,8.04322223 19.2486886,7.12991755 20.6236842,6.29926316 C20.7847368,6.19442105 20.9547368,6.09831579 21.1247368,6.00221053 C22.5418364,5.15297939 24.0120913,4.39137888 25.5268421,3.72189474 C38.9096795,-2.1870673 54.4781863,-0.862834811 66.6131579,7.21663158 C66.947193,7.43796491 67.2782456,7.66512281 67.6063158,7.89810526 C68.1878947,8.31747368 68.7515789,8.77178947 69.3063158,9.19115789 L69.8252632,9.61052632 C70.3442105,10.0298947 70.8452632,10.4842105 71.3373684,10.8861053 L71.8473684,11.3578947 C72.9211916,12.355412 73.9396611,13.4082463 74.8984211,14.5118947 L75.0505263,14.6866316 C76.8538067,16.7789078 78.4393412,19.041252 79.7836842,21.4402105 C79.9536842,21.746 80.1147368,22.0430526 80.2757895,22.3575789 C80.7768421,23.2924211 81.2331579,24.2447368 81.6536842,25.2232632 C82.6737628,27.5143571 83.4764251,29.8920063 84.0515789,32.3263158 C84.0515789,32.5010526 84.1321053,32.6757895 84.1589474,32.8505263 C84.2573684,33.2698947 84.3378947,33.7242105 84.4094737,34.1173684 C84.4138836,34.146332 84.4138836,34.1757732 84.4094737,34.2047368 L84.7852632,37.7431579 L84.7852632,37.8654737 L85,39.2458947 C85,39.8487368 85,40.4603158 85,41.0631579 Z" id="Path" fill="#108CEC"></path>
                    <path d="M75.1578947,14.6429474 C64.9847368,14.2585263 55.5363158,20.5927368 45.3094737,20.5490526 C39.4131579,20.5490526 33.8121053,18.3735789 28.0947368,17.0543158 C22.1270632,15.5722763 15.9040612,15.3518514 9.84210526,16.4077895 C9.60947368,16.4077895 9.41263158,16.4776842 9.22473684,16.4951579 L14.0563158,11.2530526 C14.7309594,11.0768991 15.414963,10.9369006 16.1052632,10.8336842 C21.3215789,10.2308421 26.6005263,11.3666316 31.5215789,13.0615789 C35.9952632,14.608 40.4242105,16.6611579 45.2110526,16.8970526 C53.6842105,17.3251579 61.2268421,12.118 69.6015789,11.3578947 C70.3781455,11.2836932 71.1602756,11.2836932 71.9368421,11.3578947 C73.0106653,12.355412 74.0291348,13.4082463 74.9878947,14.5118947 L75.1578947,14.6429474 Z" id="Path" fill="#156CB1"></path>
                    <path d="M84.8031579,37.7781053 C80.1057895,38.1887368 75.6052632,39.9710526 71.0063158,41.0981053 C63.94838,42.9278038 56.5194549,42.8946386 49.4789474,41.002 C44.9068421,39.6827368 40.5315789,37.4286316 35.7178947,37.35 C31.0921053,37.2801053 26.7705263,39.2458947 22.3594737,40.5389474 C15.3793147,42.4430735 8.09243043,43.0360258 0.885789474,42.2863158 L0.885789474,42.0941053 C0.885789474,41.7358947 0.885789474,41.3864211 0.885789474,41.0282105 C0.885789474,40.67 0.885789474,40.1545263 0.885789474,39.7351579 C0.885789474,38.9138947 0.966315789,38.0926316 1.04684211,37.2888421 L1.04684211,37.2189474 C1.05126303,37.1870577 1.05126303,37.1547318 1.04684211,37.1228421 C6.93421053,38.7129474 13.2510526,37.4548421 19.1384211,35.8822105 C25.0257895,34.3095789 30.9936842,32.3874737 37.1136842,32.7718947 C45.7121053,33.2698947 53.5321053,38.1537895 62.1663158,38.2761053 C69.7805263,38.3984211 76.7684211,34.7813684 84.1142105,32.8417895 C84.2126316,33.2611579 84.2931579,33.7154737 84.3647368,34.1086316 C84.3691468,34.1375952 84.3691468,34.1670364 84.3647368,34.196 L84.8031579,37.7781053 Z" id="Path" fill="#156CB1"></path>
                    <path d="M81.6894737,57.0603158 C81.5910526,57.2874737 81.4926316,57.5146316 81.3852632,57.7417895 L81.3047368,57.9077895 C80.8394737,58.93 80.3294737,59.926 79.7657895,60.8957895 C79.7657895,60.9744211 79.6852632,61.0443158 79.6405263,61.1229474 C79.4884211,61.4112632 79.3184211,61.6908421 79.1484211,61.9966316 C78.9784211,62.3024211 78.7815789,62.5907368 78.5936842,62.8703158 L77.9047368,62.8703158 C74.3257895,62.8703158 70.9705263,64.1546316 67.5257895,64.9584211 C60.675657,66.4629031 53.5645725,66.4240611 46.7321053,64.8448421 C40.4152632,63.4731579 34.2057895,61.0268421 27.7278947,61.3501053 C22.2521053,61.6646316 17.1252632,63.9711579 11.6763158,64.5477895 C10.6177419,64.661277 9.54962653,64.661277 8.49105263,64.5477895 L8.33,64.3206316 C7.62035057,63.3543845 6.96041073,62.354234 6.35263158,61.3238947 C6.13789474,60.9569474 5.93210526,60.59 5.73526316,60.2143158 L5.89631579,60.2143158 C9.52,60.8608421 13.2868421,60.3628421 16.8478947,59.6289474 C21.5721053,58.6591579 26.2784211,57.2525263 31.1636842,57.4097895 C39.2163158,57.6893684 46.3742105,62.2150526 54.3284211,63.08 C61.3521053,63.8488421 68.3489474,61.7083158 74.8536842,59.1571579 C77.0364368,58.1892642 79.3320033,57.4851114 81.6894737,57.0603158 Z" id="Path" fill="#156CB1"></path>
                    <ellipse id="Oval" fill="#FEAEC9" cx="24.8289474" cy="42.2950526" rx="5.78894737" ry="5.65273684"></ellipse>
                    <ellipse id="Oval" fill="#232323" cx="29.8663158" cy="37.3762105" rx="4.27684211" ry="4.17621053"></ellipse>
                    <ellipse id="Oval" fill="#FFFFFF" cx="31.3694737" cy="35.8996842" rx="1.26157895" ry="1.23189474"></ellipse>
                    <path d="M47.2242105,44.7501053 C47.2242105,47.0565626 45.3094031,48.9263158 42.9473684,48.9263158 C40.5853337,48.9263158 38.6705263,47.0565626 38.6705263,44.7501053" id="Path" stroke="#232323" stroke-width="1.52099996" stroke-linecap="round"></path>
                </g>
                <g id="Uranus">
                    <path d="M107.252245,42.9473684 C107.252106,44.667039 107.147151,46.385114 106.937959,48.0921053 C106.631261,50.6179541 106.090169,53.1100253 105.321633,55.5363158 C104.962449,56.6905263 104.549388,57.8178947 104.091429,58.9273684 L103.929796,59.3210526 C103.83102,59.5536842 103.732245,59.7863158 103.62449,60.0189474 L103.543673,60.1889474 C103.076735,61.2357895 102.564898,62.2557895 101.999184,63.2489474 C101.999184,63.3294737 101.918367,63.4010526 101.873469,63.4815789 C101.747755,63.7231579 101.613061,63.9647368 101.469388,64.1973684 L101.379592,64.3494737 C101.2,64.6536842 101.011429,64.9578947 100.822857,65.2442105 C100.793231,65.2998359 100.760245,65.3536189 100.724082,65.4052632 C99.4804438,67.364754 98.0747423,69.2173325 96.5216327,70.9436842 C95.8212245,71.7310526 95.084898,72.4826316 94.3216327,73.2073684 C93.1860575,74.2971578 91.986677,75.3189482 90.7297959,76.2673684 L90.4155102,76.5089474 C89.517551,77.2068421 88.5297959,77.8689474 87.5420408,78.4863158 C86.0783558,79.4176561 84.55449,80.2515791 82.9804082,80.9826316 C68.8860846,87.5657825 52.2992864,85.8841683 39.8244898,76.6073684 C39.6,76.4463158 39.3844898,76.2763158 39.1689796,76.1063158 L38.2710204,75.3905263 C37.6873469,74.9163158 37.1036735,74.4152632 36.5469388,73.8963158 L36.322449,73.6905263 C35.9363265,73.3326316 35.5502041,72.9657895 35.1820408,72.5989474 C33.4527309,70.8753956 31.8782772,69.0042079 30.4767347,67.0068421 L30.315102,66.7742105 C29.9289796,66.2284211 29.5518367,65.6647368 29.2016327,65.1010526 C28.8514286,64.5373684 28.6089796,64.1436842 28.3036735,63.6515789 C27.9983673,63.1594737 27.8816327,62.9 27.6840816,62.5152632 C27.4865306,62.1305263 27.1991837,61.6205263 26.9746939,61.1105263 L26.7322449,60.5915789 L26.5077551,60.0994737 C26.4089796,59.9026316 26.3281633,59.7057895 26.2383673,59.5 C25.8522449,58.6052632 25.5110204,57.7105263 25.1967347,56.8157895 L25.1428571,56.7263158 C23.764324,52.7539159 22.9924475,48.5977243 22.8530612,44.3968421 L22.8530612,44.0389474 C22.8530612,43.7884211 22.8530612,43.5468421 22.8530612,43.2963158 C22.8530612,43.0457895 22.8530612,43.0636842 22.8530612,42.9473684 C22.8530612,42.5089474 22.8530612,42.0526316 22.8530612,41.6231579 C22.8530612,40.7821053 22.9338776,39.9410526 23.0146939,39.1178947 L23.0146939,39.0463158 C23.0191307,39.0136577 23.0191307,38.9805528 23.0146939,38.9478947 C23.0146939,38.9478947 23.0146939,38.9031579 23.0146939,38.8852632 C23.0146939,38.6078947 23.0685714,38.3305263 23.1044898,38.0621053 C23.2212245,37.0421053 23.3738776,36.04 23.562449,35.0468421 C24.2681303,31.3169083 25.4921524,27.703191 27.1991837,24.31 C27.2710204,24.1578947 27.3428571,24.0057895 27.4236735,23.8536842 C27.7110204,23.2721053 28.0253061,22.7084211 28.3216327,22.1447368 L28.4832653,21.8584211 C28.5036678,21.811889 28.5276864,21.7670157 28.555102,21.7242105 C28.7616327,21.3752632 28.9681633,21.0352632 29.1836735,20.6952632 C29.8032653,19.7021053 30.4677551,18.7268421 31.1681633,17.7963158 C31.3567347,17.5457895 31.5453061,17.3042105 31.7428571,17.0626316 C32.9141893,15.5676386 34.1894346,14.1564485 35.5591837,12.8394737 C35.7118367,12.6963158 35.8555102,12.5531579 36.0081633,12.4278947 C36.9061224,11.6315789 37.7142857,10.9157895 38.522449,10.2536842 L38.7469388,10.0657895 C40.010422,9.05124534 41.3359708,8.11593332 42.7159184,7.26526316 C42.877551,7.15789474 43.0481633,7.05947368 43.2187755,6.96105263 C44.6409786,6.09135809 46.1165286,5.31140577 47.6367347,4.62578947 C61.0798199,-1.42783032 76.7176469,-0.0612515745 88.8979592,8.23157895 C89.2331973,8.45824561 89.5654422,8.69087719 89.8946939,8.92947368 C90.4783673,9.35894737 91.0440816,9.82421053 91.6008163,10.2536842 L92.1216327,10.6831579 C92.642449,11.1126316 93.1453061,11.5778947 93.6391837,11.9894737 C93.8097959,12.1505263 93.9804082,12.3026316 94.1510204,12.4726316 C95.2287109,13.4941854 96.2508483,14.5723892 97.2130612,15.7026316 L97.3657143,15.8815789 C97.7967347,16.3915789 98.2097959,16.9015789 98.6138776,17.4384211 C99.8161485,19.0009052 100.902562,20.648601 101.86449,22.3684211 C101.954286,22.5026316 102.026122,22.6457895 102.106939,22.7889474 C102.277551,23.1021053 102.439184,23.4063158 102.600816,23.7284211 C103.103673,24.6857895 103.561633,25.6610526 103.983673,26.6631579 C104.980416,29.0326871 105.755938,31.4886812 106.300408,34 C106.300408,34.1789474 106.381224,34.3578947 106.408163,34.5368421 C106.506939,34.9663158 106.587755,35.4315789 106.659592,35.8342105 C106.664018,35.8638721 106.664018,35.8940227 106.659592,35.9236842 L106.839184,37.7131579 L107.036735,39.5831579 L107.036735,39.7084211 L107.180408,41.0863158 C107.234286,41.7036842 107.252245,42.33 107.252245,42.9473684 Z" id="Path" fill="#7AE9FA"></path>
                    <path d="M101.86449,22.3684211 C88.9909337,18.8551372 75.5631861,17.8196332 62.3004082,19.3173684 C51.084898,20.5968421 39.8514286,23.6836842 28.6718367,22.1626316 L28.3755102,22.1178947 L28.5371429,21.8315789 C28.5575454,21.7850469 28.581564,21.7401736 28.6089796,21.6973684 C28.8155102,21.3484211 29.0220408,21.0084211 29.237551,20.6684211 C29.8571429,19.6752632 30.5216327,18.7 31.2220408,17.7694737 C31.4106122,17.5189474 31.5991837,17.2773684 31.7967347,17.0357895 C37.1844898,18.9057895 43.2187755,19.1384211 48.9746939,18.6105263 C56.715102,17.9036842 64.3028571,15.9263158 72.0522449,15.2642105 C80.9427715,14.6229073 89.8791924,15.3807887 98.5330612,17.51 C99.760203,19.0469117 100.873612,20.6706631 101.86449,22.3684211 Z" id="Path" fill="#5ABAC6"></path>
                    <path d="M107.252245,42.9473684 C107.252106,44.667039 107.147151,46.385114 106.937959,48.0921053 C101.301269,45.5432364 95.2938031,43.9033031 89.1404082,43.2336842 C76.1379592,41.9631579 63.2342857,45.9178947 50.1959184,46.6963158 C40.94969,47.2375195 31.6822231,46.0851385 22.8530612,43.2963158 C22.8530612,43.18 22.8530612,43.0636842 22.8530612,42.9473684 C22.8530612,42.5089474 22.8530612,42.0526316 22.8530612,41.6231579 C22.8530612,40.7821053 22.9338776,39.9410526 23.0146939,39.1178947 L23.0146939,39.0463158 C23.0191307,39.0136577 23.0191307,38.9805528 23.0146939,38.9478947 C23.0146939,38.9478947 23.0146939,38.9031579 23.0146939,38.8852632 C23.0146939,38.6078947 23.0685714,38.3305263 23.1044898,38.0621053 C23.2212245,37.0421053 23.3738776,36.04 23.562449,35.0468421 C27.1542857,35.6821053 30.7461224,36.6036842 34.3379592,37.4 C42.4195918,39.1894737 50.7706122,40.3973684 58.9420408,39.1178947 C66.6555102,37.9010526 73.9289796,34.5368421 81.7142857,34 C87.5420408,33.5973684 93.3877551,34.8231579 99.0718367,36.04 L106.857143,37.7131579 L107.054694,39.5831579 L107.054694,39.7084211 L107.198367,41.0863158 C107.234286,41.7036842 107.252245,42.33 107.252245,42.9473684 Z" id="Path" fill="#5ABAC6"></path>
                    <path d="M105.321633,55.5363158 C104.962449,56.6905263 104.549388,57.8178947 104.091429,58.9273684 L103.929796,59.3210526 C103.83102,59.5536842 103.732245,59.7863158 103.62449,60.0189474 L103.543673,60.1889474 C103.076735,61.2357895 102.564898,62.2557895 101.999184,63.2489474 C101.999184,63.3294737 101.918367,63.4010526 101.873469,63.4815789 C101.747755,63.7231579 101.613061,63.9647368 101.469388,64.1973684 C91.3268776,66.9587137 81.0384111,69.1571805 70.6514286,70.7826316 C66.44,71.4447368 62.0938776,71.9994737 57.9632653,70.9615789 C53.8326531,69.9236842 50.2857143,67.3826316 46.2897959,66.0584211 C41.5665306,64.4657895 36.4122449,64.5821053 31.482449,64.9757895 C30.7281633,65.0384211 29.9738776,65.1010526 29.2106122,65.1368421 C28.9053061,64.6626316 28.6179592,64.1794737 28.3126531,63.6873684 C28.0073469,63.1952632 27.8906122,62.9357895 27.6930612,62.5510526 C27.4955102,62.1663158 27.2081633,61.6563158 26.9836735,61.1463158 L26.7412245,60.6273684 C27.4685714,60.6273684 28.0791837,60.6810526 28.3755102,60.6810526 C33.4073231,60.8729407 38.4042672,61.5987967 43.2816327,62.8463158 C52.9436735,65.0742105 62.7404082,68.2147368 72.7885714,67.2573684 C80.5738776,66.5057895 87.8742857,63.2847368 95.0220408,60.0994737 L105.321633,55.5363158 Z" id="Path" fill="#5ABAC6"></path>
                    <path d="M21.6857143,41.4621053 C21.6857143,41.9094737 21.6857143,42.3568421 21.6857143,42.8221053 C21.6857143,43.2873684 21.6857143,43.6452632 21.6857143,44.0657895 C21.6812367,44.1343134 21.6812367,44.203055 21.6857143,44.2715789 C21.7504645,46.0973544 21.9304116,47.9172637 22.2244898,49.7205263 C15.5346939,54.2747368 12.0146939,58.6678947 12.9844898,62.2468421 C14.0530612,66.1210526 20.4465306,68.1521053 30.0457143,68.3221053 C40.524898,68.5278947 54.8204082,66.5326316 70.1395918,62.2826316 C85.7820408,57.9610526 99.3322449,52.2078947 108.213061,46.5263158 C115.94449,41.5873684 120.146939,36.7378947 119.096327,32.9621053 C118.198367,29.5621053 113.097959,27.5936842 105.37551,27.0210526 C105.267755,26.7168421 105.142041,26.4036842 105.007347,26.1263158 C104.576327,25.0973684 104.109388,24.0952632 103.588571,23.1110526 C103.426939,22.78 103.256327,22.4668421 103.085714,22.1447368 C101.981224,20.1494737 100.571429,19.6842105 99.1706122,17.8947368 C116.303673,18.1721053 128.803265,21.3126316 131.11102,29.6605263 C133.742041,39.1357895 123.720816,52.8431579 105.321633,62.6315789 C95.4101884,67.8045745 84.9619985,71.8848474 74.162449,74.8 C63.5091496,77.7959348 52.5625364,79.6378219 41.5126531,80.2936842 C20.5093878,81.4210526 3.93306122,74.9968421 1.28408163,65.4678947 C-1.04163265,57.0663158 7.23755102,48.4142105 21.9371429,39.3684211" id="Path" fill="#368AAC"></path>
                    <path d="M103.40898,60.4931579 C93.7602713,65.5290322 83.5891098,69.5012918 73.0759184,72.3394737 C62.7045502,75.2626269 52.0469846,77.0625118 41.2881633,77.7078947 C20.8416327,78.7368421 5.57632653,74.2631579 2.99918367,64.9936842 C0.727346939,56.8157895 8.81795918,46.7857895 23.1404082,37.9815789 C23.1404082,38.2768421 23.0685714,38.5721053 23.0416327,38.8763158 C23.0416327,38.93 23.0416327,38.9836842 23.0416327,39.0373684 L23.0416327,39.1089474 C22.9608163,39.9321053 22.9069388,40.7731579 22.88,41.6142105 C22.88,42.0526316 22.88,42.5089474 22.88,42.9384211 C22.88,43.3678947 22.88,43.7436842 22.88,44.1463158 C22.8755224,44.2148397 22.8755224,44.2835813 22.88,44.3521053 C22.9391969,46.1300029 23.1131618,47.9022618 23.4008163,49.6578947 C16.8816327,54.1315789 13.4693878,58.4442105 14.3673469,61.8531579 C15.4089796,65.62 21.6318367,67.5973684 30.9526531,67.7673684 C41.1534694,67.9642105 55.0718367,65.9778947 69.9869388,61.8889474 C85.2522449,57.6836842 98.4253061,52.0468421 107.072653,46.5710526 C114.606531,41.7663158 118.692245,37.0421053 117.668571,33.3647368 C116.770612,30.0542105 111.831837,28.1215789 104.315918,27.5847368 C104.208163,27.2805263 104.082449,26.9763158 103.956735,26.69 C103.534694,25.6878947 103.058776,24.7126316 102.573878,23.7552632 C102.412245,23.4331579 102.250612,23.1289474 102.08,22.8157895 C101.029978,20.8845403 99.8289885,19.0386616 98.4881633,17.2952632 C115.163265,17.5636842 127.15102,22.0105263 129.404898,30.1436842 C132,39.3684211 121.323265,51 103.40898,60.4931579 Z" id="Path" fill="#59C9EF"></path>
                    <ellipse id="Oval" fill="#FEAEC9" cx="83.2318367" cy="44.2089474" rx="5.80979592" ry="5.78894737"></ellipse>
                    <ellipse id="Oval" fill="#232323" cx="78.1853061" cy="39.1715789" rx="4.2922449" ry="4.27684211"></ellipse>
                    <ellipse id="Oval" fill="#FFFFFF" cx="79.6938776" cy="37.6594737" rx="1.26612245" ry="1.26157895"></ellipse>
                </g>
                <g id="Mars" transform="translate(24.000000, 430.000000)">
                    <path d="M85,42 C85.0055518,45.8112798 84.460746,49.6046183 83.381383,53.27 C82.3910694,56.6602235 80.9471036,59.9106668 79.0861702,62.93875 C71.3700984,75.5771289 57.2773742,83.2775904 42.1081011,83.1440838 C26.938828,83.0105773 12.993184,75.0633469 5.51595745,62.29125 C5.11808511,61.6175 4.74734043,60.935 4.39468085,60.24375 C1.49549315,54.5717959 -0.00860082341,48.3278124 -3.90426623e-15,42 C-3.90426623e-15,41.57125 -3.90426623e-15,41.125 -3.90426623e-15,40.705 C0.520664773,24.5402673 10.7839656,10.1715173 26.2269386,3.98695689 C41.6699116,-2.19760353 59.4251848,0.950343006 71.5989362,12.03125 C80.1622983,19.7938949 85.0148521,30.6456432 85,42 Z" id="Path" fill="#EF5D44"></path>
                    <path d="M71.5989362,12.03125 C60.2053191,17.64875 55.6388298,12.71375 54.2553191,11.375 C52.4468085,9.625 45.212766,3.5 31.6489362,13.125 C24.487234,18.2 17.587766,15.9775 12.6595745,12.7225 C28.9224531,-2.79528894 54.9521553,-3.10056933 71.5989362,12.03125 Z" id="Path" fill="#CC2727"></path>
                    <ellipse id="Oval" fill="#CC2727" cx="39.787234" cy="28.875" rx="7.23404255" ry="7"></ellipse>
                    <ellipse id="Oval" fill="#CC2727" cx="68.7234043" cy="36.75" rx="5.42553191" ry="5.25"></ellipse>
                    <path d="M83.381383,53.27 C82.3910694,56.6602235 80.9471036,59.9106668 79.0861702,62.93875 C71.3700984,75.5771289 57.2773742,83.2775904 42.1081011,83.1440838 C26.938828,83.0105773 12.993184,75.0633469 5.51595745,62.29125 C5.11808511,61.6175 4.74734043,60.935 4.39468085,60.24375 C9.69361702,60.50625 16.7015957,61.66125 20.7978723,65.625 C28.0319149,72.625 35.2659574,64.75 35.2659574,63 C35.2659574,61.25 37.9787234,44.625 45.212766,47.25 C52.4468085,49.875 49.7340426,52.5 48.8297872,54.25 C47.9255319,56 44.3085106,62.125 52.4468085,64.75 C60.5851064,67.375 61.4893617,71.75 66.0106383,59.5 C69.0760638,51.1875 77.9829787,50.93375 83.381383,53.27 Z" id="Path" fill="#CC2727"></path>
                    <ellipse id="Oval" fill="#FEAEC9" cx="60.8111702" cy="43.23375" rx="5.85053191" ry="5.66125"></ellipse>
                    <ellipse id="Oval" fill="#232323" cx="55.7202128" cy="38.3075" rx="4.32234043" ry="4.1825"></ellipse>
                    <ellipse id="Oval" fill="#FFFFFF" cx="57.2484043" cy="36.82875" rx="1.275" ry="1.23375"></ellipse>
                </g>
                <g id="Saturn" transform="translate(324.000000, 430.000000)">
                    <path d="M109.065098,42.9473684 C109.065098,57.9713268 100.985199,71.8540369 87.8690198,79.3660162 C74.7528407,86.8779954 58.5930416,86.8779954 45.4768626,79.3660162 C32.3606835,71.8540369 24.2807841,57.9713268 24.2807843,42.9473684 C24.2807843,42.5089474 24.2807843,42.0526316 24.2807843,41.6231579 C24.6494073,18.3981308 43.9278504,-0.133039061 67.3403922,0.232631579 C90.7529339,0.598302219 109.433721,19.7223413 109.065098,42.9473684 Z" id="Path" fill="#FDC72F"></path>
                    <path d="M95.0305882,11.6315789 C88.9513725,11.3363158 82.8360784,11.2557895 76.9011765,12.5263158 C74.1952941,13.1257895 71.552549,14.0115789 68.7835294,14.1278947 C65.6356863,14.2531579 62.5509804,13.3763158 59.4662745,12.7768421 C53.7483803,11.783534 47.9398047,11.399597 42.1396078,11.6315789 C41.6796078,11.6315789 39.9839216,11.7926316 38.2611765,11.8821053 C39.8063911,10.4650833 41.4654801,9.17537365 43.2219608,8.02578947 C44.6609402,8.01536106 46.0987994,8.10805842 47.5243137,8.30315789 C54.6858824,9.19789474 61.7301961,11.6852632 68.9458824,11.2289474 C74.0239216,10.9068421 78.867451,9.15315789 83.9454902,8.46421053 C86.0985656,8.18395863 88.2680855,8.04646054 90.4396078,8.05263158 C91.5586423,8.79459769 92.6393536,9.59192047 93.6776471,10.4415789 C93.8104602,10.5379259 93.936988,10.6425213 94.0564706,10.7547368 C94.3811765,11.0231579 94.7058824,11.3005263 95.0305882,11.6315789 Z" id="Path" fill="#E39F30"></path>
                    <path d="M100.51451,68.4115789 C99.7280962,69.4500209 98.8881544,70.4474892 97.9980392,71.4 C95.2921569,71.2568421 92.5862745,71.1942105 89.8803922,71.3194737 C82.9894118,71.6505263 76.2066667,73.2521053 69.3066667,73.5026316 C58.0141176,73.8963158 46.6854902,70.6842105 35.5101961,71.2747368 C34.6383007,70.3382456 33.8145098,69.36 33.0388235,68.34 L33.832549,68.2057895 C35.6528761,67.9653458 37.4920663,67.8964417 39.3254902,68 C48.5705882,68.3847368 57.5992157,71.3105263 66.8443137,71.1673684 C77.8301961,71.0063158 88.7078431,66.5147368 99.5584314,68.2594737 C99.8741176,68.2773684 100.198824,68.3310526 100.51451,68.4115789 Z" id="Path" fill="#E39F30"></path>
                    <path d="M105.123529,24.99 C98.5031373,26.4305263 91.7654902,27.54 85.0819608,26.6184211 C80.0941176,25.9205263 75.2686275,24.1042105 70.2266667,23.9342105 C64.0843137,23.6836842 58.1223529,25.8668421 52.0070588,26.5110526 C44.2862745,27.3252632 36.5564706,25.6878947 28.9709804,23.97 C29.5392157,22.8515789 30.1615686,21.7689474 30.8290196,20.7131579 C31.2709804,20.0063158 31.7309804,19.3173684 32.2270588,18.6373684 C33.5709804,19.3442105 34.8427451,20.3284211 36.1866667,21.0442105 C39.4517647,22.8336842 43.3482353,22.9857895 47.0101961,22.5563158 C50.6721569,22.1268421 54.2258824,21.1068421 57.9329412,20.5431579 C65.8792157,19.3173684 73.9968627,20.2478947 81.9701961,21.3305263 C86.1643137,21.9031579 90.3945098,22.5115789 94.5976471,22.2252632 C97.3111091,22.0674069 99.9730582,21.4216503 102.453725,20.3194737 C102.778431,20.8115789 103.085098,21.3126316 103.355686,21.8136842 C103.554118,22.1447368 103.752549,22.4936842 103.941961,22.8336842 C104.401961,23.5226316 104.780784,24.2473684 105.123529,24.99 Z" id="Path" fill="#E39F30"></path>
                    <path d="M108.172157,52.1005263 C107.982745,52.9952632 107.757255,53.8363158 107.504706,54.6863158 C107.252157,55.5363158 106.963529,56.4757895 106.602745,57.3168421 C100.842492,58.2993154 94.9750113,58.506975 89.1588235,57.9342105 C83.3231373,57.2363158 77.6768627,55.42 71.7780392,55.25 C70.9752941,55.25 70.172549,55.25 69.3698039,55.25 C63.065098,55.4736842 56.8235294,57.2631579 50.5098039,57.8 C42.4552941,58.5247368 34.3827451,57.3078947 26.4364706,55.8136842 C25.7301389,53.6295942 25.2082081,51.3909962 24.8760784,49.1210526 C27.4647059,49.5684211 29.6203922,51.2505263 32.0015686,52.3331579 C35.8258824,54.0778947 40.3807843,54.2747368 44.6921569,53.8452632 C49.0035294,53.4157895 53.2156863,52.3957895 57.4729412,51.8321053 C64.7968627,50.8657895 72.2380392,51.2415789 79.625098,51.9663158 C81.6184314,52.1721053 83.5937255,52.3868421 85.5690196,52.6194737 C90.4756863,53.1921053 95.4184314,53.8094737 100.352157,53.5142105 C103.00941,53.3798067 105.637933,52.9046275 108.172157,52.1005263 Z" id="Path" fill="#E39F30"></path>
                    <path d="M108.947843,38.59 C107.198039,39.7084211 105.249804,40.8357895 103.130196,41.9631579 C96.4556863,41.2384211 89.7360784,41.0057895 83.214902,42.4373684 C74.7739237,44.1947252 66.0667018,44.2859341 57.5901961,42.7057895 C47.6686275,40.9163158 37.4223529,42.1152632 27.4286275,43.6005263 C26.427451,43.7436842 25.4082353,43.9047368 24.4160784,44.1373684 C24.4160784,43.7615789 24.4160784,43.3768421 24.4160784,42.9921053 C24.4160784,42.6073684 24.4160784,42.0973684 24.4160784,41.6678947 C24.4160784,41.2384211 24.4160784,40.8447368 24.4792157,40.4331579 C24.5694118,39.0105263 24.7227451,37.6147368 24.9482353,36.2368421 C36.4211765,38.0263158 48.3992157,32.1210526 60.007451,33.8926316 C68.3596078,35.1631579 76.9192157,36.0042105 85.2623529,34.5368421 C92.874902,33.1947368 100.830196,32.1747368 108.262353,34.1521053 C108.576623,35.6171083 108.805499,37.0988644 108.947843,38.59 Z" id="Path" fill="#E39F30"></path>
                    <ellipse id="Oval" fill="#FEAEC9" cx="48.4082353" cy="44.2805263" rx="5.83568627" ry="5.78894737"></ellipse>
                    <ellipse id="Oval" fill="#232323" cx="53.4862745" cy="39.2431579" rx="4.31137255" ry="4.27684211"></ellipse>
                    <ellipse id="Oval" fill="#FFFFFF" cx="55.0105882" cy="37.7310526" rx="1.27176471" ry="1.26157895"></ellipse>
                    <path d="M70.9933333,46.7947368 C70.887844,49.0831984 68.9867998,50.8847547 66.677451,50.8847547 C64.3681022,50.8847547 62.4670579,49.0831984 62.3615686,46.7947368" id="Path" stroke="#232323" stroke-width="1.52099996" stroke-linecap="round"></path>
                    <path d="M136.701176,25.3478947 C135.393333,20.5789474 131.172157,16.9015789 124.822353,14.4142105 C124.804845,14.40807 124.785743,14.40807 124.768235,14.4142105 C117.128627,11.3989474 106.431373,10.1284211 94.0564706,10.7368421 C96.2631979,12.5695275 98.2732086,14.623407 100.05451,16.8657895 C101.294348,18.4190418 102.421618,20.0575351 103.427843,21.7689474 C112.348235,21.5542105 118.256078,23.0305263 119.248235,26.2963158 C120.240392,29.5621053 116.271765,33.9194737 108.947843,38.5721053 C100.252941,44.1015789 86.7956863,49.9889474 71.2278431,54.6773684 C54.7309804,59.6431579 39.4607843,62.1842105 29.0431373,62.0947368 C21.3494118,62.0410526 16.3164706,60.5557895 15.3964706,57.5673684 C14.4764706,54.5789474 17.9490196,50.4094737 24.5152941,46.0521053 C24.4341176,45.0231579 24.3980392,43.9763158 24.3980392,42.9294737 C24.3980392,42.4910526 24.3980392,42.0347368 24.3980392,41.6052632 C24.3980392,41.1757895 24.3980392,40.7821053 24.4611765,40.3705263 C24.6780586,36.8694325 25.3386842,33.4093863 26.427451,30.0721053 C8.8572549,40.0215789 -1.34392157,51.9484211 1.31686275,61.7368421 C1.38901961,62.0142105 1.47921569,62.2915789 1.57843137,62.56 C1.67764706,62.8284211 1.77686275,63.0968421 1.89411765,63.3652632 C2.01137255,63.6336842 2.05647059,63.7321053 2.15568627,63.9110526 C2.25490196,64.09 2.24588235,64.1168421 2.3,64.2152632 C2.35411765,64.3136842 2.49843137,64.5731579 2.61568627,64.7521053 C2.64501927,64.8155223 2.68131738,64.8755346 2.72392157,64.9310526 C2.82370774,65.1004233 2.93208201,65.264669 3.04862745,65.4231579 C3.13048349,65.5619655 3.22401896,65.6936622 3.32823529,65.8168421 C3.36433825,65.8776547 3.40665253,65.9346212 3.4545098,65.9868421 C3.58521465,66.1709344 3.72676841,66.3472063 3.87843137,66.5147368 C3.98666667,66.6489474 4.09490196,66.7742105 4.22117647,66.9084211 L4.3745098,67.0784211 C4.56392157,67.2752632 4.76235294,67.4810526 4.96078431,67.6689474 L5.65529412,68.3042105 C5.84470588,68.4652632 6.04313725,68.6352632 6.25058824,68.7963158 C12.9972549,74.2094737 25.5976471,76.8489474 41.1203922,76.4463158 C53.0879505,76.0085944 64.963029,74.1858971 76.5043137,71.0152632 C86.4820533,68.3808543 96.1761645,64.7847921 105.448235,60.2784211 C126.72549,49.7294737 139.659608,36.1921053 136.701176,25.3478947 Z" id="Path" fill="#FFCB88"></path>
                    <path d="M133.535294,24.1578947 C132.543137,19.9705263 129.49451,16.7136842 124.822353,14.4142105 C124.804845,14.40807 124.785743,14.40807 124.768235,14.4142105 C117.651765,10.8978947 106.72902,9.58263158 93.6776471,10.4684211 C93.8104602,10.564768 93.936988,10.6693634 94.0564706,10.7815789 C96.2631979,12.6142644 98.2732086,14.6681439 100.05451,16.9105263 C113.728235,16.9105263 123.938431,19.6752632 125.417647,25.0794737 C126.806667,30.1168421 119.960784,36.7110526 109.182353,43.3142105 C98.9090196,49.5773684 85.0458824,55.9121053 71.3,60.8689474 C58.5073381,65.3454911 44.9131705,67.122197 31.3882353,66.0852632 C18.2737255,65.0831579 9.06470588,61.4952632 9.06470588,58.1578947 C9.06470588,54.4 14.72,47.4210526 24.4792157,40.3884211 C24.6887446,36.8820635 25.3433236,33.4159301 26.427451,30.0721053 C8.8572549,40.0215789 -1.34392157,51.9484211 1.31686275,61.7368421 C1.38901961,62.0142105 1.47921569,62.2915789 1.57843137,62.56 C1.67764706,62.8284211 1.77686275,63.0968421 1.89411765,63.3652632 C2.01137255,63.6336842 2.05647059,63.7321053 2.15568627,63.9110526 C2.25490196,64.09 2.24588235,64.1168421 2.3,64.2152632 C2.35411765,64.3136842 2.49843137,64.5731579 2.61568627,64.7521053 C2.64501927,64.8155223 2.68131738,64.8755346 2.72392157,64.9310526 C2.82370774,65.1004233 2.93208201,65.264669 3.04862745,65.4231579 C3.13048349,65.5619655 3.22401896,65.6936622 3.32823529,65.8168421 C3.36433825,65.8776547 3.40665253,65.9346212 3.4545098,65.9868421 C3.58521465,66.1709344 3.72676841,66.3472063 3.87843137,66.5147368 C3.98666667,66.6489474 4.09490196,66.7742105 4.22117647,66.9084211 L4.3745098,67.0784211 C4.56392157,67.2752632 4.76235294,67.4810526 4.96078431,67.6689474 L5.65529412,68.3042105 C5.84470588,68.4652632 6.04313725,68.6352632 6.25058824,68.7963158 C12.8168627,73.9410526 24.9121569,76.3121053 39.8035294,75.4084211 C52.0837207,74.5339631 64.1920443,72.0426318 75.8098039,68 C86.717758,64.4128782 97.3169503,59.960607 107.504706,54.6863158 C125.634118,45.0231579 135.952549,34.3668421 133.535294,24.1578947 Z" id="Path" fill="#F78C26"></path>
                </g>
            </g>
        </g>
    </g>
</svg>