<?xml version="1.0" encoding="UTF-8"?>
<svg width="1024px" height="713px" viewBox="0 0 1024 713" version="1.1" xmlns="http://www.w3.org/2000/svg" xmlns:xlink="http://www.w3.org/1999/xlink">
    <!-- Generator: Sketch 53.2 (72643) - https://sketchapp.com -->
    <title>final-results-bg</title>
    <desc>Created with Sketch.</desc>
    <g id="Desktop-Display" stroke="none" stroke-width="1" fill="none" fill-rule="evenodd">
        <g id="Desktop---Players-Connected" transform="translate(0.000000, -31.000000)">
            <g id="final-results-bg" transform="translate(-55.000000, 31.000000)">
                <g id="finalScreen-bg" transform="translate(1026.000000, 0.000000)">
                    <g id="Group-3">
                        <g id="Venus" transform="translate(17.000000, 363.200000)">
                            <path d="M73,36.9769466 C73.018199,42.041087 71.9708465,47.0521441 69.9263158,51.6829863 L69.8571579,51.8293534 C69.4575789,52.7306665 69.0195789,53.608869 68.5354737,54.4639609 C68.5354737,54.5332926 68.4663158,54.5949209 68.4278947,54.6642527 C68.2972632,54.9184692 68.1512632,55.1649821 68.0052632,55.4346057 C66.808116,57.4612621 65.4157429,59.3654302 63.8481053,61.1198112 L63.8481053,61.1198112 C63.2487368,61.7977219 62.6186316,62.4448185 61.9654737,63.0688045 C60.9937148,64.0070944 59.967355,64.8868384 58.8917895,65.7034119 L58.6228421,65.9114072 C57.8544211,66.5122826 57.0091579,67.0823439 56.1638947,67.6138875 C54.9088758,68.4160538 53.6022648,69.1340519 52.2526316,69.7631725 C40.1915322,75.4311524 25.9975185,73.9833114 15.3223158,65.9961461 C15.1302105,65.8574825 14.9457895,65.7111154 14.7613684,65.5647484 L13.9929474,64.9484659 C13.4934737,64.5401788 12.994,64.1087811 12.5175789,63.6619763 L12.2947368,63.4847951 C11.9643158,63.1766539 11.6338947,62.8608091 11.3188421,62.5449644 C9.02986099,60.2513431 7.05794506,57.6604206 5.45578947,54.8414339 C4.89484211,53.8476784 4.38,52.8308124 3.91894737,51.7600216 C3.83442105,51.590544 3.76526316,51.4210663 3.68842105,51.2438851 C3.358,50.473532 3.066,49.703179 2.79705263,48.9328259 L2.75094737,48.8018659 C1.56720277,45.3951832 0.898951937,41.8300079 0.768421053,38.2249185 L0.768421053,38.2249185 C0.764589371,38.1659206 0.764589371,38.1067352 0.768421053,38.0477373 C0.768421053,37.6831035 0.768421053,37.3261733 0.768421053,36.9769466 C0.768421053,36.5994736 0.768421053,36.2065935 0.768421053,35.836824 C0.768421053,35.1126922 0.837578947,34.3885603 0.906736842,33.6798355 L0.906736842,33.6182072 C0.906736842,33.5719861 0.906736842,33.5257649 0.906736842,33.4795437 L0.906736842,33.4795437 C1.32648634,29.1062266 2.5510208,24.8487594 4.51831579,20.9227889 C4.57978947,20.7918289 4.64126316,20.6608689 4.71042105,20.5299089 C5.00242105,19.9444405 5.31747368,19.3743793 5.64021053,18.8120216 L5.64021053,18.8120216 C5.6576698,18.7719582 5.67822352,18.7333231 5.70168421,18.6964686 C5.87842105,18.3960309 6.05515789,18.1032968 6.23957895,17.8105626 C8.36434517,14.389056 11.0506692,11.3521806 14.1850526,8.82824599 L14.3771579,8.66647185 C15.458373,7.79296678 16.5927003,6.98767919 17.7735789,6.25526679 C17.9118947,6.16282443 18.0578947,6.07808559 18.2038947,5.99334675 C19.4209332,5.24455469 20.6836227,4.57302914 21.9845263,3.98272529 C33.478022,-1.22738026 46.8486219,-0.0597655404 57.2704211,7.0641375 C57.5572982,7.2592936 57.841614,7.4595854 58.1233684,7.66501288 L58.1233684,7.66501288 C58.6228421,8.03478235 59.1069474,8.43536593 59.5833684,8.8051354 L60.0290526,9.17490486 C63.5174438,12.0892476 66.4245045,15.638767 68.5969474,19.6362993 C68.7429474,19.9059229 68.8812632,20.1678429 69.0195789,20.44517 C69.4498947,21.2694478 69.8417895,22.1091326 70.2029474,22.971928 C71.2677429,25.5130753 72.0411229,28.1672694 72.5082105,30.8834539 C72.5119979,30.908992 72.5119979,30.9349511 72.5082105,30.9604892 L72.5082105,30.9604892 L73,35.3746122 C73,35.9061558 73,36.4454029 73,36.9769466 Z" id="Path" fill="#FF697D"></path>
                            <path d="M59.7985263,9.17490486 C54.7038947,10.1917709 49.4248421,10.8773851 44.3071579,9.99918263 C39.9041053,9.22882958 35.7392632,7.35687166 31.2824211,7.00250925 C27.0023158,6.66355391 22.8297895,7.77286231 18.5957895,8.32751651 C18.0732632,8.39684828 15.8371579,8.77432128 14.1850526,8.82824599 L14.3771579,8.66647185 C15.458373,7.79296678 16.5927003,6.98767919 17.7735789,6.25526679 C17.9118947,6.16282443 18.0578947,6.07808559 18.2038947,5.99334675 C23.4445263,5.2229937 28.8157895,4.80700305 33.9411579,6.03956794 C37.6526316,6.93317748 41.1873684,8.68187891 45.0217895,8.9052813 C47.741685,8.93226782 50.451283,8.56644747 53.0671579,7.81908349 C54.2678518,7.46062544 55.519033,7.30188282 56.7709474,7.34916813 C57.2366209,7.40031541 57.6922843,7.51970869 58.1233684,7.70353053 L58.1233684,7.70353053 C58.7103969,7.93293242 59.2178305,8.32919028 59.5833684,8.84365305 C59.6665481,8.94614831 59.7386694,9.05718447 59.7985263,9.17490486 Z" id="Path" fill="#C1585F"></path>
                            <path d="M70.1722105,22.956521 C66.0304211,23.6806529 61.7887368,24.4047847 57.6392632,23.726874 C52.2603158,22.825561 47.2886316,19.5900781 41.8328421,19.8751088 C39.0204211,20.0214759 36.3616842,21.0999701 33.6568421,21.8857302 C28.1690417,23.3924284 22.450909,23.8703551 16.79,23.2954763 C13.9447371,23.0307892 11.1206936,22.5726586 8.33736842,21.9242479 C7.06178947,21.6315137 5.79389474,21.3053976 4.53368421,20.9458995 C4.59515789,20.8149395 4.65663158,20.6839795 4.72578947,20.5530195 C5.01778947,19.9675511 5.33284211,19.3974899 5.65557895,18.8351322 L5.65557895,18.8351322 L6.17042105,18.8890569 C8.35484539,19.0929296 10.5255013,19.4247483 12.6712632,19.8828123 C14.2618947,20.2525818 15.8294737,20.7687183 17.4431579,21.0152313 C19.2580646,21.2694177 21.0994091,21.2694177 22.9143158,21.0152313 C27.4326316,20.4682806 31.7665263,18.8659463 36.2848421,18.3035885 C39.2923278,17.9975007 42.3197305,17.9382433 45.3368421,18.1264073 C48.1838738,18.1178557 51.021663,18.4514877 53.7894737,19.1201628 C55.4876842,19.5900781 57.1013684,20.3065065 58.8226316,20.6993865 C62.1498947,21.4697396 65.6308421,20.9458995 69.0118947,20.4374665 L70.1722105,22.956521 Z" id="Path" fill="#C1585F"></path>
                            <path d="M72.5082105,30.9604892 L72.5082105,30.9604892 C68.328,31.2147057 64.5089474,33.6105037 60.3825263,34.5272238 C53.5282105,36.06793 46.5048421,33.4718402 39.5429474,32.5243059 C32.5810526,31.5767717 25.5269474,32.2854965 18.6188421,33.425619 C13.286,34.311525 7.738,35.4362404 2.58189474,33.8955343 C2.10875578,33.7038745 1.60127539,33.6120886 1.09115789,33.6259108 L0.922105263,33.6259108 L0.922105263,33.7260567 L0.768421053,38.0169232 C4.27242105,39.1108245 8.10684211,38.8643115 11.7184211,38.1632903 C15.5374737,37.4160478 19.2105263,36.2065935 23.0526316,35.4362404 C29.2463576,34.2991366 35.6151615,34.5623195 41.6945263,36.2065935 C45.6057895,37.2619772 49.4555789,38.8951257 53.5051579,38.8257939 C56.9784211,38.7641656 60.2749474,37.4545654 63.5791579,36.4145888 C66.6528421,35.459351 69.9032632,34.7198121 72.9846316,35.3669087 L72.5082105,30.9604892 Z" id="Path" fill="#C1585F"></path>
                            <path d="M69.8264211,51.8293534 C69.4268421,52.7306665 68.9888421,53.608869 68.5047368,54.4639609 C60.7436842,53.4702054 52.8981053,52.3840076 45.0602105,52.2145299 C40.2442289,52.1078174 35.4264064,52.3136751 30.6369474,52.8308124 C24.5894737,53.5010195 18.5035789,54.6950668 12.5329474,53.6473866 C9.82810526,53.1543607 7.21547368,52.2376405 4.49526316,51.8601675 L3.91894737,51.7831322 C3.83442105,51.6136546 3.76526316,51.4441769 3.68842105,51.2669957 C3.358,50.4966426 3.066,49.7262896 2.79705263,48.9559365 C11.7952632,50.4350144 20.9317895,51.6136546 29.9684211,50.5505674 C36.5998947,49.7802143 43.1852632,47.8312211 49.8397895,48.4089859 C56.4943158,48.9867507 63.1411579,52.1760123 69.8264211,51.8293534 Z" id="Path" fill="#C1585F"></path>
                            <path d="M61.9116842,63.0688045 L61.3276842,63.2305786 C57.906152,64.298166 54.3875269,65.0232718 50.8233684,65.3952707 C46.2128421,65.7573366 41.5177895,65.0255012 36.9456842,64.1781129 C32.3735789,63.3307245 27.8091579,62.3446726 23.1525263,62.1751949 C20.0889971,62.0212408 17.0205372,62.3566817 14.0621053,63.1689504 C13.7777895,63.2536892 13.1630526,63.4154633 12.4868421,63.6388657 C12.9632632,64.0856705 13.4627368,64.5170682 13.9622105,64.9253553 L14.7306316,65.5416378 C14.9150526,65.6880048 15.0994737,65.8343719 15.2915789,65.9730355 C18.4891364,65.0983889 21.8455578,64.9797222 25.0966316,65.6263766 C28.7927368,66.227252 32.3658947,67.3365604 36.062,67.9374358 C42.2862105,68.9003771 48.6641053,68.3149088 54.9497895,67.7294404 L56.1254737,67.6138875 L61.9116842,63.0688045 Z" id="Path" fill="#C1585F"></path>
                            <ellipse id="Oval" fill="#FEAEC9" cx="21.3236842" cy="38.0631444" rx="4.97168421" ry="4.98418425"></ellipse>
                            <ellipse id="Oval" fill="#232323" cx="25.6498947" cy="33.7260567" rx="3.67305263" ry="3.68228759"></ellipse>
                            <ellipse id="Oval" fill="#FFFFFF" cx="26.9408421" cy="32.42416" rx="1.08347368" ry="1.08619781"></ellipse>
                            <path d="M40.5572632,40.2278364 C40.5572632,42.2615077 38.9127815,43.910124 36.8842105,43.910124 C34.8556396,43.910124 33.2111579,42.2615077 33.2111579,40.2278364" id="Path" stroke="#232323" stroke-width="1.30130001" stroke-linecap="round"></path>
                        </g>
                        <g id="Pluto" transform="translate(17.000000, 485.153893)">
                            <path d="M73,36.2065935 C73.0102095,45.8123132 69.2084427,55.02755 62.4332039,61.8198234 C55.6579651,68.6120968 46.4658396,72.4234222 36.8842105,72.413187 C36.2694737,72.413187 35.6547368,72.413187 35.0476842,72.3669658 C15.365816,71.3623057 0.121042018,54.7252543 0.789183159,34.9796982 C1.4573243,15.2341421 17.7916727,-0.328969331 37.4962077,0.00581986365 C57.2007427,0.340609058 72.9996619,16.4496796 73,36.2065935 L73,36.2065935 Z" id="Path" fill="#E5CD9D"></path>
                            <ellipse id="Oval" fill="#CAB894" cx="39.1894737" cy="13.0960019" rx="7.68421053" ry="7.70353053"></ellipse>
                            <ellipse id="Oval" fill="#CAB894" cx="15.3684211" cy="25.4216508" rx="5.37894737" ry="5.39247137"></ellipse>
                            <ellipse id="Oval" fill="#CAB894" cx="11.5263158" cy="42.3694179" rx="2.30526316" ry="2.31105916"></ellipse>
                            <path d="M69.9263158,50.0729485 C69.9263158,50.3502756 69.9263158,50.6198991 69.9263158,50.8895227 C64.130502,63.9863165 51.1760983,72.4248296 36.8842105,72.413187 C36.2694737,72.413187 35.6547368,72.413187 35.0476842,72.3669658 C35.0476842,72.3669658 23.8210526,50.0729485 23.0526316,47.7618893 C19.8329474,38.0785514 31.3131579,29.273416 41.4947368,29.273416 C44.6322338,29.2591894 47.720533,30.0550927 50.4622105,31.5844752 C50.8003158,31.5844752 51.1384211,31.5844752 51.4842105,31.5844752 C61.669504,31.5844752 69.9263158,39.8620466 69.9263158,50.0729485 Z" id="Path" fill="#CAB894"></path>
                            <ellipse id="Oval" fill="#FEAEC9" cx="21.3236842" cy="37.2927913" rx="4.97168421" ry="4.98418425"></ellipse>
                            <ellipse id="Oval" fill="#232323" cx="25.6498947" cy="32.9557036" rx="3.67305263" ry="3.68228759"></ellipse>
                            <ellipse id="Oval" fill="#FFFFFF" cx="26.9408421" cy="31.653807" rx="1.08347368" ry="1.08619781"></ellipse>
                            <path d="M40.5572632,39.4574834 C40.5572632,41.4911547 38.9127815,43.139771 36.8842105,43.139771 C34.8556396,43.139771 33.2111579,41.4911547 33.2111579,39.4574834" id="Path" stroke="#232323" stroke-width="1.30130001" stroke-linecap="round"></path>
                        </g>
                        <g id="Earth" transform="translate(18.000000, 605.567080)">
                            <path d="M73,37.6760959 C73,58.4837729 56.6583934,75.351728 36.5,75.351728 C16.3416066,75.351728 2.46869119e-15,58.4837729 0,37.6760959 C0,37.2833073 0,36.8744867 0,36.4897142 C0.519968149,19.493362 12.0055027,4.96320545 28.0321988,1.02665097 C44.0588949,-2.90990351 60.6537913,4.72300205 68.5345745,19.6559212 C71.4630681,25.1812506 72.9986183,31.3779461 73,37.6760959 Z" id="Path" fill="#8CDEF3"></path>
                            <path d="M68.0696633,19.5845815 C68.2114211,20.2839733 68.2246531,21.0044271 68.1086773,21.7088146 C67.7698425,23.1951706 67.0474806,24.5602972 66.0175275,25.6606897 C59.3773466,33.516344 48.5002466,36.0012959 40.9159272,42.8549535 C38.7389467,44.826883 36.7336277,47.4962023 37.0145284,50.4621126 C37.2564151,53.1153999 39.2929453,55.5522559 38.7545523,58.1654634 C38.3878208,59.9850894 36.8818808,61.2756612 35.6334332,62.6143289 C32.6029273,65.8671178 30.7210708,70.0695099 30.2885168,74.5501138 C21.5253408,72.9225322 13.5983188,68.1810889 7.89448731,61.1554216 C6.44316694,59.3518275 5.06207174,57.2115625 4.859199,54.8228023 C4.7848671,54.262842 4.80068376,53.6941347 4.90601579,53.1394478 C5.1159582,52.6506642 5.3917558,52.1946337 5.72530955,51.7847483 C6.31864706,50.8740304 6.96212492,49.9988646 7.65260058,49.1635248 C10.4115813,45.8059176 13.8105862,43.0642561 17.6401817,41.1074712 C19.4008483,40.2016262 21.2432011,39.4740828 23.141154,38.9351423 C28.3456201,37.4441711 33.8387897,37.3319475 39.113481,36.1535994 C44.3881722,34.9752512 49.7799054,32.3379958 52.3782371,27.4482518 C52.7881742,26.7333375 53.038676,25.9339232 53.1117001,25.1075875 C53.2053336,22.6066036 50.7006356,20.7629297 48.2973739,20.2980032 C45.4229768,19.7839481 42.4692344,20.5056058 40.1278447,22.2939807 C37.7011746,24.1536866 36.1250094,27.0314212 33.596903,28.7548555 C33.0824819,29.1614752 32.451328,29.3813664 31.8022595,29.3801015 C30.4367699,29.2518459 29.7813349,27.6085713 29.5316454,26.2298238 C28.7813234,22.1162914 28.9844773,17.8790485 30.124658,13.8611762 C30.2963196,13.2519622 30.4991923,12.6507642 30.702065,12.0575821 C30.7098996,12.0369638 30.7098996,12.0140727 30.702065,11.9934543 C30.7048044,11.9802426 30.7048044,11.9665862 30.702065,11.9533745 C29.4986361,11.4100759 28.3377799,10.7722512 27.2298201,10.0455727 C26.1319966,9.32513068 25.1118928,8.48675189 24.1867289,7.54458889 C23.6013105,6.94602513 23.0637799,6.29998577 22.5793526,5.61273921 C22.0616006,4.88383882 21.5998419,4.1146558 21.1982574,3.31215473 C36.8296603,-3.85507172 55.2050966,0.894100255 65.6742044,14.8070611 C66.8133203,16.1935091 67.632259,17.8268063 68.0696633,19.5845815 Z" id="Path" fill="#47A74D"></path>
                            <path d="M13.3285038,24.6085539 C13.202466,24.8138336 13.0606734,25.0191133 12.9110034,25.2164977 C9.51585853,29.7958141 5.32509964,34.0830017 0,36.0726357 C0.0411171127,32.8187361 0.550518413,29.5878123 1.51245434,26.4797574 C1.9902539,24.9017778 2.56912969,23.3563385 3.24547493,21.8530687 C3.43453172,21.4504047 5.19906178,17.5500903 5.4511375,17.6369394 C7.93976283,18.3823691 10.2467015,19.637954 12.2256726,21.3240787 C13.0134092,21.9714993 13.761759,22.8478857 13.6199664,23.8427027 C13.571837,24.114116 13.4729463,24.3739626 13.3285038,24.6085539 Z" id="Path" fill="#47A74D"></path>
                            <ellipse id="Oval" fill="#FEAEC9" cx="20.456044" cy="38.8782852" rx="5.21428571" ry="5.21049183"></ellipse>
                            <ellipse id="Oval" fill="#232323" cx="25.2692308" cy="34.4694075" rx="3.60989011" ry="4.00807064"></ellipse>
                            <ellipse id="Oval" fill="#FFFFFF" cx="26.0714286" cy="33.2669863" rx="1.2032967" ry="1.20242119"></ellipse>
                            <path d="M40.1098901,40.8823205 C40.1098901,43.0959168 38.4936873,44.8903911 36.5,44.8903911 C34.5063127,44.8903911 32.8901099,43.0959168 32.8901099,40.8823205" id="Path" stroke="#232323" stroke-width="1.46015979" stroke-linecap="round"></path>
                        </g>
                        <g id="Mercury" transform="translate(15.000000, 0.000000)">
                            <path d="M76,38.4 C76,38.984 76,39.56 75.952,40.136 C75.7473685,44.8092708 74.6616619,49.4018096 72.752,53.672 L72.68,53.824 C72.48,54.264 72.28,54.704 72.056,55.136 C71.832,55.568 71.568,56.096 71.304,56.56 C71.304,56.632 71.232,56.696 71.192,56.768 C71.056,57.032 70.904,57.288 70.752,57.568 C70.184,58.536 69.568,59.472 68.912,60.376 C68.1382938,61.4514953 67.3077811,62.4849629 66.424,63.472 L66.424,63.472 C65.8,64.176 65.144,64.848 64.464,65.496 C63.4523058,66.4704 62.3837668,67.3840008 61.264,68.232 L60.984,68.448 C60.184,69.072 59.304,69.664 58.424,70.216 C57.1329141,71.0471877 55.7886949,71.7927884 54.4,72.448 L53.808,72.72 C50.9781221,73.9922294 48.0004013,74.9059705 44.944,75.44 C42.7828654,75.8147841 40.5933904,76.0021475 38.4,76 C31.8725707,76.0054686 25.4563983,74.3097462 19.784,71.08 C18.4508717,70.3067648 17.1634047,69.4573571 15.928,68.536 C15.728,68.392 15.536,68.24 15.344,68.088 L14.544,67.448 C14.024,67.024 13.504,66.576 13.008,66.112 L12.8,65.928 C12.456,65.608 12.112,65.28 11.784,64.952 L11.728,64.896 C9.36782698,62.5286268 7.33389989,59.8570797 5.68,56.952 C5.096,55.92 4.56,54.864 4.08,53.752 C3.992,53.576 3.92,53.4 3.84,53.216 C3.496,52.416 3.192,51.616 2.912,50.816 L2.864,50.68 C1.63160836,47.1422115 0.935895167,43.4398308 0.8,39.696 L0.8,39.696 C0.796010852,39.6347315 0.796010852,39.5732685 0.8,39.512 C0.8,39.1333333 0.8,38.7626667 0.8,38.4 C0.8,38.008 0.8,37.6 0.8,37.216 C0.8,36.464 0.872,35.712 0.944,34.976 L0.944,34.912 C0.944,34.864 0.944,34.816 0.944,34.768 L0.944,34.768 C1.38099948,30.2263763 2.65585727,25.8050609 4.704,21.728 C4.768,21.592 4.832,21.456 4.904,21.32 C5.208,20.712 5.536,20.12 5.872,19.536 L5.872,19.536 C5.89017678,19.4943949 5.91157518,19.4542729 5.936,19.416 C6.12,19.104 6.304,18.8 6.496,18.496 C8.70808538,14.9428171 11.5048063,11.789068 14.768,9.168 L14.968,9 C16.0936486,8.09287819 17.2745921,7.25659921 18.504,6.496 C18.648,6.4 18.8,6.312 18.952,6.224 C20.2190537,5.44639076 21.5336346,4.74902163 22.888,4.136 C34.8538311,-1.27461584 48.7739077,-0.0620656102 59.624,7.336 C59.9226667,7.53866667 60.2186667,7.74666667 60.512,7.96 L60.512,7.96 C61.032,8.344 61.536,8.76 62.032,9.144 L62.496,9.528 C64.1103176,10.8636586 65.6040696,12.3386717 66.96,13.936 C68.5730871,15.8100507 69.9935709,17.8416106 71.2,20 C71.28,20.128 71.352,20.256 71.424,20.392 C71.576,20.672 71.72,20.944 71.864,21.232 C72.312,22.088 72.72,22.96 73.096,23.856 C74.2045542,26.494943 75.009717,29.2512835 75.496,32.072 C75.499943,32.0985209 75.499943,32.1254791 75.496,32.152 L75.496,32.152 L75.712,34.24 L76,36.736 C76,37.288 76,37.848 76,38.4 Z" id="Path" fill="#C68E39"></path>
                            <path d="M24,61.6 L19.784,71.08 C18.4508717,70.3067648 17.1634047,69.4573571 15.928,68.536 C15.728,68.392 15.536,68.24 15.344,68.088 L14.544,67.448 C14.024,67.024 13.504,66.576 13.008,66.112 L12.8,65.928 C12.456,65.608 12.112,65.28 11.784,64.952 L11.728,64.896 L14.4,60 L12,52 L12,43.2 L8,39.2 L16.8,44 L17.6,52.8 L24,61.6 Z" id="Path" fill="#AC6122"></path>
                            <path d="M53.784,72.72 C50.9541221,73.9922294 47.9764013,74.9059705 44.92,75.44 L40.8,67.2 L40.8,59.2 L31.2,51.2 L30.4,40.8 L24,40 L16,35.2 L29.6,36.8 L36,40.8 L36,49.6 L45.6,55.2 L48,65.6 L53.784,72.72 Z" id="Path" fill="#AC6122"></path>
                            <path d="M72.072,55.136 C71.84,55.616 71.584,56.096 71.32,56.56 C71.32,56.632 71.248,56.696 71.208,56.768 C71.072,57.032 70.92,57.288 70.768,57.568 C70.2,58.536 69.584,59.472 68.928,60.376 L57.6,52.8 L56.8,32 L40,32 L29.6,19.2 L14.4,18.4 L27.2,14.4 L36.8,20 L42.4,26.4 L58.4,28 L65.6,41.6 L67.2,52 L72.072,55.136 Z" id="Path" fill="#AC6122"></path>
                            <circle id="Oval" fill="#FEAEC9" cx="22.2" cy="39.528" r="5.176"></circle>
                            <circle id="Oval" fill="#232323" cx="26.704" cy="35.024" r="3.824"></circle>
                            <circle id="Oval" fill="#FFFFFF" cx="28.048" cy="33.672" r="1.128"></circle>
                            <path d="M42.224,41.776 C42.224,43.8879369 40.5119369,45.6 38.4,45.6 C36.2880631,45.6 34.576,43.8879369 34.576,41.776" id="Path" stroke="#232323" stroke-width="1.35200002" stroke-linecap="round"></path>
                        </g>
                        <g id="Jupiter" transform="translate(15.000000, 240.000000)">
                            <path d="M75.2,37.6 L75.2,37.784 C75.2,38.048 75.2,38.32 75.2,38.584 C75.1512764,40.4997355 74.9587348,42.4091059 74.624,44.296 C74.464,45.16 74.28,46.016 74.072,46.856 C73.96,47.2933333 73.84,47.7333333 73.712,48.176 C73.0503318,50.4407905 72.1743734,52.6373834 71.096,54.736 C70.872,55.168 70.64,55.6 70.4,56.024 C70.16,56.448 69.864,56.968 69.6,57.424 C69.336,57.88 69.072,58.224 68.8,58.664 C68.232,59.504 67.624,60.32 66.992,61.112 C65.9686336,62.3912948 64.8622464,63.6019068 63.68,64.736 C62.96,65.424 62.216,66.088 61.44,66.72 L61.44,66.72 C60.4610376,67.5268368 59.441009,68.2825124 58.384,68.984 L58.256,69.064 C53.2310013,72.3644856 47.4849525,74.4060617 41.504,75.016 L41.504,75.016 C40.2066527,75.1438244 38.9036187,75.2052379 37.6,75.2 L37.096,75.2 C28.8721994,75.0972015 20.9118085,72.2853361 14.448,67.2 C13.48,66.4 12.544,65.6 11.656,64.8 C9.36666613,62.6199141 7.36392792,60.157487 5.696,57.472 C4.17608267,55.0558038 2.94372506,52.4702692 2.024,49.768 C1.96,49.576 1.896,49.392 1.84,49.2 L1.84,49.2 C1.752,48.928 1.672,48.664 1.592,48.4 C1.512,48.136 1.376,47.648 1.272,47.272 L1.104,46.608 C1.032,46.32 0.96,46.024 0.896,45.728 L0.696,44.84 C0.395027174,43.2997355 0.191953657,41.7419479 0.088,40.176 C0,39.328 0,38.464 0,37.6 C0,37.32 0,37.04 0,36.8 C0,36.56 0,36.112 0.04,35.768 C0.04,35.56 0.04,35.352 0.04,35.152 C0.04,34.952 0.04,34.672 0.096,34.432 C0.152,34.192 0.144,33.912 0.168,33.632 C0.192,33.352 0.168,33.272 0.224,33.088 C0.505354526,30.8176965 0.998161827,28.5786372 1.696,26.4 C1.944,25.6 2.216,24.8 2.496,24 C2.912,22.9333333 3.376,21.8666667 3.888,20.8 C4.50780485,19.5476775 5.19963022,18.3323086 5.96,17.16 C6.4,16.632 6.8,16 7.2,15.432 C8.05592013,14.258315 8.97738472,13.1338611 9.96,12.064 C10.576,11.408 11.2,10.776 11.856,10.168 L12.272,9.784 C13.293343,8.86048942 14.3614148,7.99001093 15.472,7.176 L16.272,6.584 C16.736,6.272 17.2,5.968 17.672,5.672 L17.672,5.672 L18.216,5.336 C20.0182685,4.25760287 21.90751,3.33171399 23.864,2.568 C24.416,2.352 24.984,2.152 25.552,1.96 L26.256,1.736 L26.808,1.568 L27.608,1.344 C28.8122464,1.01524147 30.0325038,0.74822673 31.264,0.544 L31.264,0.544 C32.5135745,0.324367954 33.7740641,0.172147808 35.04,0.088 L35.04,0.088 L35.84,0.088 C36.4213333,0.0293333333 37.008,0 37.6,0 C38.336,0 39.064,0 39.784,0.064 L39.784,0.064 C48.9568217,0.585789285 57.6179156,4.46078888 64.12,10.952 L64.12,10.952 C64.816,11.648 65.488,12.368 66.136,13.12 L66.192,13.184 C66.864,13.984 67.496,14.784 68.096,15.584 C68.9713748,16.7737163 69.7728825,18.0160532 70.496,19.304 C70.56,19.416 70.616,19.528 70.672,19.64 C70.728,19.752 70.784,19.84 70.84,19.944 C71.064,20.352 71.272,20.744 71.48,21.184 L71.84,21.984 C72.462616,23.375679 72.9970061,24.8051726 73.44,26.264 L73.608,26.808 C73.608,26.904 73.664,27.008 73.696,27.104 C73.728,27.2 73.784,27.4 73.824,27.552 C73.944,27.968 74.048,28.352 74.152,28.816 C74.368,29.72 74.552,30.632 74.696,31.56 L74.696,31.736 C74.776,32.192 74.84,32.64 74.896,33.104 C75.0858471,34.5953662 75.1873575,36.096652 75.2,37.6 Z" id="Path" fill="#F1C18F"></path>
                            <path d="M75.2,37.6 L75.2000075,37.784 C66.0663511,35.8778948 57.2004044,32.8607863 48.8,28.8 C35.376,22.088 21.952,16.8 7.2,15.432 C8.05592013,14.258315 8.97738472,13.1338611 9.96,12.064 C16.64,13.232 27.888,15.416 32.8,17.6 C40,20.8 63.2,32 68,32.8 C70.2955451,33.138235 72.6199846,33.2374326 74.936,33.096 C75.1127907,34.5908093 75.2009449,36.0947728 75.2,37.6 Z" id="Path" fill="#99582B"></path>
                            <path d="M74.736,31.728 C66.3246748,29.8249617 58.1593326,26.9636025 50.4,23.2 C37.912,16.952 25.424,11.92 11.888,10.168 L12.304,9.784 C13.325343,8.86048942 14.3934148,7.99001093 15.504,7.176 C22.032,8.408 30.4,10.2 34.4,12 C41.6,15.2 64.8,26.4 69.6,27.2 C71.0027069,27.4208327 72.4200399,27.5358238 73.84,27.544 C73.96,27.96 74.064,28.344 74.168,28.808 C74.384,29.712 74.568,30.624 74.712,31.552 L74.736,31.728 Z" id="Path" fill="#E79A56"></path>
                            <path d="M68.104,15.608 C62.0120791,13.8692856 56.0872942,11.5909341 50.4,8.8 C44.2233412,5.64350327 37.853303,2.88065951 31.328,0.528 C32.5567103,0.315989501 33.7957744,0.169117672 35.04,0.088 L35.04,0.088 L35.84,0.088 C36.4213333,0.0293333333 37.008,0 37.6,0 C38.336,0 39.064,0 39.784,0.064 L39.784,0.064 C46.896,3.36 57.432,8.28 64.12,10.952 L64.12,10.952 C64.816,11.648 65.488,12.368 66.136,13.12 L66.192,13.184 C66.872,13.968 67.504,14.776 68.104,15.608 Z" id="Path" fill="#E79A56"></path>
                            <path d="M75.2,38.576 C75.1512764,40.4917355 74.9587348,42.4011059 74.624,44.288 C65.162255,41.9593618 55.970691,38.6452506 47.2,34.4 C33.256,27.424 19.312,21.952 3.912,20.888 C4.53180485,19.6356775 5.22363022,18.4203086 5.984,17.248 C11.896,18.248 25.6,20.72 31.2,23.2 C38.4,26.4 61.6,37.6 66.4,38.4 C69.3159845,38.8073092 72.2700615,38.8663908 75.2,38.576 Z" id="Path" fill="#E79A56"></path>
                            <path d="M74.608,44.288 C74.448,45.152 74.264,46.008 74.056,46.848 C64.4828093,44.949278 55.1897062,41.8417202 46.4,37.6 C32.28,30.536 18.152,25.016 2.52,24.056 C2.936,22.9893333 3.4,21.9226667 3.912,20.856 C19.312,21.952 33.256,27.424 47.2,34.4 C55.9655778,38.6442037 65.151727,41.9582961 74.608,44.288 L74.608,44.288 Z" id="Path" fill="#99582B"></path>
                            <path d="M73.712,27.096 C66.2186538,25.229867 58.9415593,22.583407 52,19.2 C40.392,13.392 28.8,8.632 16.336,6.584 C16.8,6.272 17.264,5.968 17.736,5.672 L17.736,5.672 L18.28,5.336 C20.0822685,4.25760287 21.97151,3.33171399 23.928,2.568 C24.48,2.352 25.048,2.152 25.616,1.96 L26.32,1.736 C29.8940129,2.45784177 33.4000258,3.4828822 36.8,4.8 C43.472,7.76 63.864,17.6 70.648,19.664 C70.712,19.76 70.76,19.864 70.816,19.968 C71.04,20.376 71.248,20.768 71.456,21.208 L71.816,22.008 C72.438616,23.399679 72.9730061,24.8291726 73.416,26.288 L73.584,26.832 C73.656,26.896 73.68,27 73.712,27.096 Z" id="Path" fill="#99582B"></path>
                            <path d="M73.696,48.168 C73.0343318,50.4327905 72.1583734,52.6293834 71.08,54.728 C70.856,55.16 70.624,55.592 70.384,56.016 C61.5369043,54.1010857 52.9486947,51.1416714 44.8,47.2 C30.464,40 16.128,34.448 0.216,33.6 C0.216,33.416 0.216,33.24 0.272,33.056 C0.539658264,30.7980453 1.01637066,28.5698166 1.696,26.4 C3.2,26.648 22.68,29.728 29.6,32.8 C36.8,36 60,47.2 64.8,48 C67.7482326,48.4078944 70.7344689,48.4642892 73.696,48.168 Z" id="Path" fill="#99582B"></path>
                            <path d="M70.4,56 C69.896,56.904 69.352,57.784 68.8,58.64 C60.7877641,56.7528608 53.0075845,53.9895557 45.6,50.4 C31.2,43.2 16.8,37.6 0.8,36.8 L0,36.8 C0,35.736 0.088,34.688 0.2,33.656 C16.112,34.456 30.448,40.056 44.784,47.256 C52.946071,51.1752793 61.5450537,54.1105348 70.4,56 L70.4,56 Z" id="Path" fill="#E79A56"></path>
                            <path d="M66.952,61.104 C65.9286336,62.3832948 64.8222464,63.5939068 63.64,64.728 C57.1515226,62.9445164 50.8440587,60.5581256 44.8,57.6 C30.608,50.504 16.416,45.744 0.696,44.84 C0.395027174,43.2997355 0.191953657,41.7419479 0.088,40.176 L0.8,40 C0.8,40 21.6,43.2 28.8,46.4 C36,49.6 59.2,60 64,60.8 C64.9774075,60.9574701 65.9630135,61.0589688 66.952,61.104 Z" id="Path" fill="#99582B"></path>
                            <path d="M61.392,66.712 C60.4130376,67.5188368 59.393009,68.2745124 58.336,68.976 C57.632,68.752 56.912,68.512 56.184,68.256 C52.0149851,66.8428661 47.9446547,65.1537993 44,63.2 C30.448,56.424 16.904,51.064 2.024,49.792 C1.96,49.6 1.896,49.416 1.84,49.224 C1.784,49.032 1.664,48.688 1.584,48.424 C1.504,48.16 1.368,47.672 1.264,47.296 L1.096,46.632 C1.024,46.344 0.952,46.048 0.888,45.752 C4.936,46.4 21.688,49.2 28,52 C34.528,54.896 54.192,64.368 61.392,66.712 Z" id="Path" fill="#99582B"></path>
                            <path d="M58.208,69.056 C55.5168281,70.8321859 52.6038837,72.2469678 49.544,73.264 C47.448,72.408 45.312,71.456 43.2,70.4 C31.024,64.312 18.84,59.368 5.696,57.496 C4.17608267,55.0798038 2.94372506,52.4942692 2.024,49.792 C16.904,51.064 30.448,56.424 44,63.2 C47.9446547,65.1537993 52.0149851,66.8428661 56.184,68.256 C56.904,68.544 57.6,68.8 58.208,69.056 Z" id="Path" fill="#E79A56"></path>
                            <path d="M41.448,75.008 C40.1693733,75.136603 38.8850777,75.2006843 37.6,75.2 L37.096,75.2 C36.336,74.864 35.568,74.512 34.8,74.128 C28.2,70.816 21.6,68.152 14.448,67.2 C13.48,66.4 12.544,65.6 11.656,64.8 C12.976,65.008 22.776,66.584 26.328,68.168 C29.168,69.456 36.736,73.072 41.448,75.008 Z" id="Path" fill="#E79A56"></path>
                            <circle id="Oval" fill="#FEAEC9" cx="21.4" cy="38.728" r="5.176"></circle>
                            <circle id="Oval" fill="#232323" cx="25.904" cy="34.224" r="3.824"></circle>
                            <circle id="Oval" fill="#FFFFFF" cx="27.248" cy="32.872" r="1.128"></circle>
                            <path d="M41.424,40.976 C41.424,43.0879369 39.7119369,44.8 37.6,44.8 C35.4880631,44.8 33.776,43.0879369 33.776,40.976" id="Path" stroke="#232323" stroke-width="1.35200002" stroke-linecap="round"></path>
                        </g>
                        <g id="Uranus" transform="translate(0.000000, 124.000000)">
                            <path d="M86.1268027,34.3578947 C86.126691,35.7336312 86.0424089,37.1080912 85.8744218,38.4736842 C85.6281337,40.4943633 85.1936206,42.4880202 84.5764626,44.4290526 C84.2880272,45.3524211 83.9563265,46.2543158 83.5885714,47.1418947 L83.5885714,47.1418947 L83.4587755,47.4568421 C83.3794558,47.6429474 83.3001361,47.8290526 83.2136054,48.0151579 L83.1487075,48.1511579 C82.7737415,48.9886316 82.3627211,49.8046316 81.9084354,50.5991579 C81.9084354,50.6635789 81.8435374,50.7208421 81.807483,50.7852632 C81.7065306,50.9785263 81.5983673,51.1717895 81.4829932,51.3578947 L81.4108844,51.4795789 C81.2666667,51.7229474 81.1152381,51.9663158 80.9638095,52.1953684 C80.940019,52.2398687 80.9135304,52.2828951 80.8844898,52.3242105 C79.885811,53.8918032 78.75699,55.373866 77.5097959,56.7549474 L77.5097959,56.7549474 C76.9473469,57.3848421 76.3560544,57.9861053 75.7431293,58.5658947 C74.831228,59.4377263 73.8680891,60.2551586 72.8587755,61.0138947 L72.6063946,61.2071579 C71.8853061,61.7654737 71.0921088,62.2951579 70.2989116,62.7890526 C69.1235281,63.5341249 67.8998177,64.2012633 66.6357823,64.7861053 C55.3176134,70.052626 41.9979118,68.7073346 31.9802721,61.2858947 C31.8,61.1570526 31.6269388,61.0210526 31.4538776,60.8850526 L30.7327891,60.3124211 C30.2640816,59.9330526 29.7953741,59.5322105 29.3482993,59.1170526 L29.1680272,58.9524211 C28.8579592,58.6661053 28.5478912,58.3726316 28.2522449,58.0791579 C26.8635567,56.7003165 25.5992226,55.2033663 24.4737415,53.6054737 L24.3439456,53.4193684 C24.0338776,52.9827368 23.7310204,52.5317895 23.4497959,52.0808421 C23.1685714,51.6298947 22.9738776,51.3149474 22.7287075,50.9212632 C22.4835374,50.5275789 22.3897959,50.32 22.2311565,50.0122105 C22.072517,49.7044211 21.8417687,49.2964211 21.6614966,48.8884211 L21.4668027,48.4732632 L21.2865306,48.0795789 C21.2072109,47.9221053 21.1423129,47.7646316 21.0702041,47.6 C20.7601361,46.8842105 20.4861224,46.1684211 20.2337415,45.4526316 L20.1904762,45.3810526 C19.0834723,42.2031327 18.4636321,38.8781794 18.3517007,35.5174737 L18.3517007,35.2311579 C18.3517007,35.0307368 18.3517007,34.8374737 18.3517007,34.6370526 C18.3517007,34.4366316 18.3517007,34.4509474 18.3517007,34.3578947 C18.3517007,34.0071579 18.3517007,33.6421053 18.3517007,33.2985263 C18.3517007,32.6256842 18.4165986,31.9528421 18.4814966,31.2943158 L18.4814966,31.2370526 C18.4850595,31.2109262 18.4850595,31.1844423 18.4814966,31.1583158 C18.4814966,31.1583158 18.4814966,31.1225263 18.4814966,31.1082105 L18.4814966,31.1082105 C18.4814966,30.8863158 18.5247619,30.6644211 18.5536054,30.4496842 C18.6473469,29.6336842 18.769932,28.832 18.9213605,28.0374737 C19.4880441,25.0535266 20.4709708,22.1625528 21.8417687,19.448 C21.8994558,19.3263158 21.9571429,19.2046316 22.0220408,19.0829474 C22.2527891,18.6176842 22.5051701,18.1667368 22.7431293,17.7157895 L22.8729252,17.4867368 L22.8729252,17.4867368 C22.889309,17.4495112 22.9085967,17.4136126 22.9306122,17.3793684 C23.0964626,17.1002105 23.2623129,16.8282105 23.4353741,16.5562105 C23.9329252,15.7616842 24.4665306,14.9814737 25.0289796,14.2370526 L25.0289796,14.2370526 L25.0289796,14.2370526 L25.0289796,14.2370526 L25.0289796,14.2370526 C25.1804082,14.0366316 25.3318367,13.8433684 25.4904762,13.6501053 C26.4310914,12.4541109 27.455152,11.3251588 28.555102,10.2715789 C28.6776871,10.1570526 28.7930612,10.0425263 28.9156463,9.94231579 C29.6367347,9.30526316 30.2857143,8.73263158 30.9346939,8.20294737 L31.114966,8.05263158 C32.1295813,7.24099627 33.1940371,6.49274666 34.3021769,5.81221053 C34.4319728,5.72631579 34.5689796,5.64757895 34.7059864,5.56884211 C35.8480586,4.87308647 37.03297,4.24912462 38.2537415,3.70063158 C49.0489463,-1.14226425 61.6065953,-0.0490012596 71.3877551,6.58526316 C71.6569615,6.76659649 71.9237642,6.95270175 72.1881633,7.14357895 L72.1881633,7.14357895 C72.6568707,7.48715789 73.1111565,7.85936842 73.5582313,8.20294737 L73.9764626,8.54652632 C74.3946939,8.89010526 74.7985034,9.26231579 75.195102,9.59157895 C75.3321088,9.72042105 75.4691156,9.84210526 75.6061224,9.97810526 C76.4715406,10.7953483 77.2923479,11.6579114 78.065034,12.5621053 L78.187619,12.7052632 C78.5337415,13.1132632 78.8654422,13.5212632 79.189932,13.9507368 C80.1553919,15.2007242 81.0278151,16.5188808 81.8002721,17.8947368 C81.872381,18.0021053 81.930068,18.1166316 81.994966,18.2311579 C82.1319728,18.4816842 82.2617687,18.7250526 82.3915646,18.9827368 C82.7953741,19.7486316 83.1631293,20.5288421 83.5020408,21.3305263 C84.302455,23.2261497 84.9252231,25.1909449 85.362449,27.2 C85.362449,27.3431579 85.4273469,27.4863158 85.4489796,27.6294737 C85.5282993,27.9730526 85.5931973,28.3452632 85.6508844,28.6673684 C85.6544384,28.6910977 85.6544384,28.7152181 85.6508844,28.7389474 L85.6508844,28.7389474 L85.795102,30.1705263 L85.9537415,31.6665263 L85.9537415,31.7667368 L86.0691156,32.8690526 C86.112381,33.3629474 86.1268027,33.864 86.1268027,34.3578947 Z" id="Path" fill="#7AE9FA"></path>
                            <path d="M81.8002721,17.8947368 C71.4624164,15.0841098 60.6795283,14.2557066 50.0291156,15.4538947 C41.0227211,16.4774737 32.0019048,18.9469474 23.0243537,17.7301053 L22.7863946,17.6943158 L22.9161905,17.4652632 L22.9161905,17.4652632 C22.9325743,17.4280375 22.951862,17.3921389 22.9738776,17.3578947 C23.1397279,17.0787368 23.3055782,16.8067368 23.4786395,16.5347368 C23.9761905,15.7402105 24.5097959,14.96 25.0722449,14.2155789 L25.0722449,14.2155789 L25.0722449,14.2155789 L25.0722449,14.2155789 L25.0722449,14.2155789 C25.2236735,14.0151579 25.375102,13.8218947 25.5337415,13.6286316 C29.8602721,15.1246316 34.7059864,15.3107368 39.3281633,14.8884211 C45.5439456,14.3229474 51.6371429,12.7410526 57.8601361,12.2113684 C64.9994983,11.6983258 72.1757151,12.304631 79.125034,14.008 C80.110466,15.2375294 81.0045675,16.5365305 81.8002721,17.8947368 Z" id="Path" fill="#5ABAC6"></path>
                            <path d="M86.1268027,34.3578947 C86.126691,35.7336312 86.0424089,37.1080912 85.8744218,38.4736842 C81.3479884,36.4345891 76.5238115,35.1226425 71.582449,34.5869474 C61.1410884,33.5705263 50.7790476,36.7343158 40.3088435,37.3570526 C32.883842,37.7900156 25.4417853,36.8681108 18.3517007,34.6370526 C18.3517007,34.544 18.3517007,34.4509474 18.3517007,34.3578947 C18.3517007,34.0071579 18.3517007,33.6421053 18.3517007,33.2985263 C18.3517007,32.6256842 18.4165986,31.9528421 18.4814966,31.2943158 L18.4814966,31.2370526 C18.4850595,31.2109262 18.4850595,31.1844423 18.4814966,31.1583158 C18.4814966,31.1583158 18.4814966,31.1225263 18.4814966,31.1082105 L18.4814966,31.1082105 C18.4814966,30.8863158 18.5247619,30.6644211 18.5536054,30.4496842 C18.6473469,29.6336842 18.769932,28.832 18.9213605,28.0374737 C21.8057143,28.5456842 24.690068,29.2829474 27.5744218,29.92 C34.0642177,31.3515789 40.7703401,32.3178947 47.3322449,31.2943158 C53.5263946,30.3208421 59.3672109,27.6294737 65.6190476,27.2 C70.2989116,26.8778947 74.9931973,27.8585263 79.5576871,28.832 L85.8095238,30.1705263 L85.9681633,31.6665263 L85.9681633,31.7667368 L86.0835374,32.8690526 C86.112381,33.3629474 86.1268027,33.864 86.1268027,34.3578947 Z" id="Path" fill="#5ABAC6"></path>
                            <path d="M84.5764626,44.4290526 C84.2880272,45.3524211 83.9563265,46.2543158 83.5885714,47.1418947 L83.5885714,47.1418947 L83.4587755,47.4568421 C83.3794558,47.6429474 83.3001361,47.8290526 83.2136054,48.0151579 L83.1487075,48.1511579 C82.7737415,48.9886316 82.3627211,49.8046316 81.9084354,50.5991579 C81.9084354,50.6635789 81.8435374,50.7208421 81.807483,50.7852632 C81.7065306,50.9785263 81.5983673,51.1717895 81.4829932,51.3578947 C73.3382502,53.566971 65.0762998,55.3257444 56.7352381,56.6261053 C53.3533333,57.1557895 49.8632653,57.5995789 46.5462585,56.7692632 C43.2292517,55.9389474 40.3809524,53.9061053 37.1721088,52.8467368 C33.3791837,51.5726316 29.2401361,51.6656842 25.2813605,51.9806316 C24.6756463,52.0307368 24.069932,52.0808421 23.4570068,52.1094737 C23.2118367,51.7301053 22.9810884,51.3435789 22.7359184,50.9498947 C22.4907483,50.5562105 22.3970068,50.3486316 22.2383673,50.0408421 C22.0797279,49.7330526 21.8489796,49.3250526 21.6687075,48.9170526 L21.4740136,48.5018947 C22.0580952,48.5018947 22.5484354,48.5448421 22.7863946,48.5448421 C26.8270928,48.6983526 30.8397903,49.2790374 34.7564626,50.2770526 C42.5153741,52.0593684 50.382449,54.5717895 58.4514286,53.8058947 C64.7032653,53.2046316 70.5657143,50.6277895 76.3055782,48.0795789 L84.5764626,44.4290526 Z" id="Path" fill="#5ABAC6"></path>
                            <path d="M17.4142857,33.1696842 C17.4142857,33.5275789 17.4142857,33.8854737 17.4142857,34.2576842 C17.4142857,34.6298947 17.4142857,34.9162105 17.4142857,35.2526316 C17.4106901,35.3074507 17.4106901,35.362444 17.4142857,35.4172632 L17.4142857,35.4172632 C17.4662821,36.8778835 17.6107851,38.3338109 17.8469388,39.7764211 C12.4748299,43.4197895 9.64816327,46.9343158 10.4269388,49.7974737 C11.285034,52.8968421 16.4191837,54.5216842 24.127619,54.6576842 C32.5427211,54.8223158 44.022449,53.2261053 56.3242177,49.8261053 C68.8855782,46.3688421 79.7668027,41.7663158 86.8983673,37.2210526 C93.1069388,33.2698947 96.4816327,29.3903158 95.6379592,26.3696842 C94.9168707,23.6496842 90.8210884,22.0749474 84.6197279,21.6168421 C84.5331973,21.3734737 84.4322449,21.1229474 84.3240816,20.9010526 C83.9779592,20.0778947 83.6029932,19.2762105 83.1847619,18.4888421 C83.054966,18.224 82.9179592,17.9734737 82.7809524,17.7157895 C81.8940136,16.1195789 80.7619048,15.7473684 79.6370068,14.3157895 C93.3953741,14.5376842 103.432925,17.0501053 105.286122,23.7284211 C107.398912,31.3086316 99.3515646,42.2745263 84.5764626,50.1052632 C76.6172725,54.2436596 68.2270594,57.507878 59.5546939,59.84 C50.9997716,62.2367479 42.2093095,63.7102575 33.3359184,64.2349474 C16.4696599,65.1368421 3.15836735,59.9974737 1.03115646,52.3743158 C-0.836462585,45.6530526 5.81197279,38.7313684 17.6161905,31.4947368" id="Path" fill="#368AAC"></path>
                            <path d="M83.0405442,48.3945263 C75.2923391,52.4232258 67.1245882,55.6010334 58.6821769,57.8715789 C50.3536539,60.2101015 41.7953058,61.6500094 33.1556463,62.1663158 C16.7364626,62.9894737 4.47795918,59.4105263 2.40843537,51.9949474 C0.584081633,45.4526316 7.08108844,37.4286316 18.582449,30.3852632 C18.582449,30.6214737 18.5247619,30.8576842 18.5031293,31.1010526 L18.5031293,31.1010526 C18.5031293,31.144 18.5031293,31.1869474 18.5031293,31.2298947 L18.5031293,31.2871579 C18.4382313,31.9456842 18.394966,32.6185263 18.3733333,33.2913684 C18.3733333,33.6421053 18.3733333,34.0071579 18.3733333,34.3507368 C18.3733333,34.6943158 18.3733333,34.9949474 18.3733333,35.3170526 C18.3697377,35.3718718 18.3697377,35.4268651 18.3733333,35.4816842 L18.3733333,35.4816842 C18.4208702,36.9040023 18.5605694,38.3218095 18.7915646,39.7263158 C13.5564626,43.3052632 10.8163265,46.7553684 11.537415,49.4825263 C12.3738776,52.496 17.3710204,54.0778947 24.8559184,54.2138947 C33.047483,54.3713684 44.2243537,52.7823158 56.2016327,49.5111579 C68.4601361,46.1469474 79.0385034,41.6374737 85.982585,37.2568421 C92.032517,33.4130526 95.3134694,29.6336842 94.4914286,26.6917895 C93.7703401,24.0433684 89.8043537,22.4972632 83.7688435,22.0677895 C83.6823129,21.8244211 83.5813605,21.5810526 83.4804082,21.352 C83.1414966,20.5503158 82.7593197,19.7701053 82.369932,19.0042105 C82.2401361,18.7465263 82.1103401,18.5031579 81.9733333,18.2526316 C81.130134,16.7076323 80.1657029,15.2309293 79.0889796,13.8362105 C92.4795918,14.0509474 102.106122,17.6084211 103.916054,24.1149474 C106,31.4947368 97.4262585,40.8 83.0405442,48.3945263 Z" id="Path" fill="#59C9EF"></path>
                            <ellipse id="Oval" fill="#FEAEC9" cx="37.6336054" cy="35.3671579" rx="4.66544218" ry="4.63115789"></ellipse>
                            <ellipse id="Oval" fill="#232323" cx="41.6933333" cy="31.3372632" rx="3.44680272" ry="3.42147368"></ellipse>
                            <ellipse id="Oval" fill="#FFFFFF" cx="42.9047619" cy="30.1275789" rx="1.01673469" ry="1.00926316"></ellipse>
                            <path d="M55.682449,37.3785263 C55.682449,39.2681541 54.1392628,40.8 52.2356463,40.8 C50.3320297,40.8 48.7888435,39.2681541 48.7888435,37.3785263" id="Path" stroke="#232323" stroke-width="1.2167999" stroke-linecap="round"></path>
                        </g>
                    </g>
                </g>
                <g id="Group-4">
                    <g id="Neptune" transform="translate(18.000000, 492.174295)">
                        <path d="M73,36.1186651 C73.0073445,40.8268434 72.0882731,45.4904576 70.2951579,49.8437578 L70.2951579,49.8437578 L70.1568421,50.18189 C70.0723158,50.3816954 69.9877895,50.5815008 69.8955789,50.7813062 L69.8264211,50.9273178 C69.4268421,51.826442 68.9888421,52.7025118 68.5047368,53.555527 C68.5047368,53.6246904 68.4355789,53.686169 68.3971579,53.7553324 C68.2665263,54.0089316 68.1205263,54.2548459 67.9745263,54.5238147 C67.8285263,54.7927834 67.6594737,55.0463826 67.4981053,55.2922969 C67.4727531,55.340073 67.4445258,55.3862668 67.4135789,55.4306237 C66.3493463,57.1136145 65.146429,58.7047792 63.8173684,60.1875287 L63.8173684,60.1875287 C63.218,60.8637931 62.5878947,61.5093182 61.9347368,62.1317888 C60.9629779,63.0678001 59.9366181,63.9454076 58.8610526,64.759998 L58.5921053,64.9674882 C57.8236842,65.5669044 56.9784211,66.1355812 56.1331579,66.665834 C54.8884916,67.4701237 53.5921734,68.1914988 52.2526316,68.8252691 C40.1915322,74.4794842 25.9975185,73.0351593 15.3223158,65.0673909 C15.1302105,64.9290641 14.9457895,64.7830525 14.7613684,64.6370409 L13.9929474,64.0222551 C13.4934737,63.6149595 12.994,63.1846095 12.5175789,62.7388898 L12.2947368,62.5621388 C11.9643158,62.254746 11.6338947,61.9396682 11.3188421,61.6245905 C9.83899966,60.1442458 8.49167407,58.5370979 7.29231579,56.8215765 L7.154,56.6217712 C6.54322764,55.7568752 5.97643827,54.8617383 5.45578947,53.9397682 C5.27136842,53.6170056 5.09463158,53.2942431 4.92557895,52.9637957 C4.75652632,52.6333484 4.51063158,52.1953135 4.31852632,51.7572786 C4.18021053,51.4729402 4.04957895,51.1809169 3.91894737,50.8888937 C3.83442105,50.7198276 3.76526316,50.5507615 3.68842105,50.3740106 C3.358,49.6055283 3.066,48.8370461 2.79705263,48.0685639 L2.75094737,47.9379219 C1.56494151,44.5321663 0.896659014,40.9677092 0.768421053,37.3636063 L0.768421053,37.0562134 C0.768421053,36.7411357 0.768421053,36.4337428 0.768421053,36.1186651 C0.768421053,35.8035874 0.768421053,35.3501829 0.768421053,34.9813114 C0.768421053,34.2589381 0.837578947,33.5365648 0.906736842,32.8295611 L0.906736842,32.7680825 C0.910533633,32.7400328 0.910533633,32.7115993 0.906736842,32.6835495 C0.906736842,32.6835495 0.906736842,32.6451254 0.906736842,32.6297557 L0.906736842,32.6297557 C0.906736842,32.3915263 0.952842105,32.1532968 0.983578947,31.9227521 C1.45716991,27.8056715 2.65377664,23.8045244 4.51831579,20.1034953 C4.57978947,19.9728533 4.64126316,19.8422113 4.71042105,19.7115694 C5.00242105,19.1275229 5.31747368,18.558846 5.64021053,17.997854 L5.64021053,17.997854 C5.6576698,17.9578879 5.67822352,17.9193466 5.70168421,17.8825816 C5.87842105,17.5828736 6.05515789,17.2908503 6.23957895,16.9988271 C6.76978947,16.1458118 7.33842105,15.3081661 7.93778947,14.5089446 L7.93778947,14.5089446 L7.93778947,14.5089446 L7.93778947,14.5089446 L7.93778947,14.5089446 C9.07412937,12.9913367 10.330709,11.5676137 11.6953684,10.251553 C11.826,10.1285959 11.9489474,10.0056387 12.0795789,9.8980512 C12.7404211,9.26789577 13.4166316,8.67616445 14.1235789,8.10748759 L14.3156842,7.94610632 C15.3968994,7.07472257 16.5312267,6.27139065 17.7121053,5.54075692 C17.8504211,5.44853905 17.9964211,5.36400601 18.1424211,5.27947296 C19.3594595,4.53249936 20.622149,3.86260462 21.9230526,3.27373433 C33.4165483,-1.92371837 46.7871482,-0.758939234 57.2089474,6.34766327 C57.4958246,6.54234544 57.7801404,6.74215082 58.0618947,6.94707941 L58.0618947,6.94707941 C58.5613684,7.31595089 59.0454737,7.71556165 59.5218947,8.08443312 L59.9675789,8.4533046 C60.4132632,8.82217607 60.8435789,9.22178683 61.2662105,9.57528866 L61.7042105,9.99026907 C62.6264351,10.8676734 63.5011207,11.7937339 64.3245263,12.7644899 L64.4551579,12.9181864 C66.0038575,14.7585277 67.3655518,16.7484587 68.5201053,18.8585541 C68.6661053,19.1275229 68.8044211,19.3888068 68.9427368,19.6654604 C69.3730526,20.4877364 69.7649474,21.3253821 70.1261053,22.1860822 C71.0021728,24.2013011 71.6915181,26.2926531 72.1854737,28.4338427 C72.1854737,28.5875392 72.2546316,28.7412356 72.2776842,28.8949321 C72.3622105,29.2638036 72.4313684,29.6634143 72.4928421,30.0092313 C72.4966295,30.0347074 72.4966295,30.0606035 72.4928421,30.0860795 L72.4928421,30.0860795 L72.8155789,33.1984326 L72.8155789,33.3060201 L73,34.520222 C73,35.0504748 73,35.5884124 73,36.1186651 Z" id="Path" fill="#108CEC"></path>
                        <path d="M64.5473684,12.8797623 C55.8104211,12.5416301 47.6958947,18.1131263 38.9128421,18.0747022 C33.8489474,18.0747022 29.0386316,16.1611814 24.1284211,15.0007732 C19.0032425,13.6971889 13.6587819,13.5033058 8.45263158,14.4320964 C8.25284211,14.4320964 8.08378947,14.493575 7.92242105,14.5089446 L7.92242105,14.5089446 L7.92242105,14.5089446 L7.92242105,14.5089446 L12.0718947,9.8980512 C12.6512946,9.74310863 13.2387329,9.61996764 13.8315789,9.52917973 C18.3114737,8.99892699 22.8451579,9.99795389 27.0714737,11.4888094 C30.9135789,12.849023 34.7172632,14.6549562 38.8283158,14.8624464 C46.1052632,15.2390027 52.5830526,10.6588486 59.7754737,9.99026907 C60.4424073,9.92500228 61.114119,9.92500228 61.7810526,9.99026907 C62.7032772,10.8676734 63.5779628,11.7937339 64.4013684,12.7644899 L64.5473684,12.8797623 Z" id="Path" fill="#156CB1"></path>
                        <path d="M72.8309474,33.2291719 C68.7967368,33.5903585 64.9315789,35.1580623 60.9818947,36.1494044 C54.9203734,37.7587854 48.5402377,37.7296137 42.4936842,36.0648713 C38.5670526,34.9044632 34.8094737,32.921779 30.6753684,32.8526156 C26.7026316,32.791137 22.9911579,34.520222 19.2028421,35.6575758 C13.2081174,37.3324224 6.94996966,37.8539762 0.760736842,37.1945402 L0.760736842,37.0254741 C0.760736842,36.7103964 0.760736842,36.4030035 0.760736842,36.0879258 C0.760736842,35.7728481 0.760736842,35.3194436 0.760736842,34.9505721 C0.760736842,34.2281988 0.829894737,33.5058255 0.899052632,32.7988218 L0.899052632,32.7373433 C0.902849422,32.7092935 0.902849422,32.68086 0.899052632,32.6528102 L0.899052632,32.6528102 C5.95526316,34.0514479 11.3803158,32.9448335 16.4365263,31.5615654 C21.4927368,30.1782974 26.6181053,28.4876365 31.8741053,28.8257687 C39.2586316,29.2638036 45.9746316,33.5596193 53.3898947,33.6672068 C59.9291579,33.7747943 65.9305263,30.5932778 72.2392632,28.8872473 C72.3237895,29.2561187 72.3929474,29.6557295 72.4544211,30.0015465 C72.4582084,30.0270226 72.4582084,30.0529187 72.4544211,30.0783947 L72.4544211,30.0783947 L72.8309474,33.2291719 Z" id="Path" fill="#156CB1"></path>
                        <path d="M70.1568421,50.1895748 C70.0723158,50.3893802 69.9877895,50.5891856 69.8955789,50.788991 L69.8264211,50.9350026 C69.4268421,51.8341268 68.9888421,52.7101966 68.5047368,53.5632119 C68.5047368,53.6323753 68.4355789,53.6938538 68.3971579,53.7630172 C68.2665263,54.0166164 68.1205263,54.2625307 67.9745263,54.5314995 C67.8285263,54.8004683 67.6594737,55.0540674 67.4981053,55.2999817 L66.9064211,55.2999817 C63.8327368,55.2999817 60.9511579,56.4296506 57.9927368,57.1366543 C52.1096819,58.4599788 46.0025152,58.4258138 40.1346316,57.0367516 C34.7095789,55.8302345 29.3767368,53.6784842 23.8133684,53.9628226 C19.1106316,54.2394762 14.7075789,56.2682693 10.0278947,56.7754676 C9.11876657,56.8752899 8.20144396,56.8752899 7.29231579,56.7754676 L7.154,56.5756622 C6.54453637,55.7257628 5.97776451,54.8460423 5.45578947,53.9397682 C5.27136842,53.6170056 5.09463158,53.2942431 4.92557895,52.9637957 L5.06389474,52.9637957 C8.176,53.5324726 11.4110526,53.0944377 14.4693684,52.4489126 C18.5266316,51.5958973 22.5685263,50.3586409 26.7641053,50.4969677 C33.6798947,50.7428821 39.8272632,54.72362 46.6585263,55.4844175 C52.6906316,56.1606818 58.6996842,54.2779003 64.2861053,52.0339322 C66.1607046,51.1825844 68.1321911,50.56322 70.1568421,50.1895748 Z" id="Path" fill="#156CB1"></path>
                        <ellipse id="Oval" fill="#FEAEC9" cx="52.4447368" cy="37.2022251" rx="4.97168421" ry="4.97208007"></ellipse>
                        <ellipse id="Oval" fill="#232323" cx="48.1185263" cy="32.8756701" rx="3.67305263" ry="3.67334509"></ellipse>
                        <ellipse id="Oval" fill="#FFFFFF" cx="49.4171579" cy="31.5769351" rx="1.08347368" ry="1.08355995"></ellipse>
                        <path d="M40.5572632,39.3616601 C40.5572632,41.3903926 38.9127815,43.0350052 36.8842105,43.0350052 C34.8556396,43.0350052 33.2111579,41.3903926 33.2111579,39.3616601" id="Path" stroke="#232323" stroke-width="1.30130001" stroke-linecap="round"></path>
                    </g>
                    <g id="Mars" transform="translate(19.000000, 370.400000)">
                        <path d="M72.2315789,36.8871473 C72.2362968,40.2344626 71.7733299,43.5660206 70.8561053,46.7851985 C70.0145534,49.7627146 68.7874953,52.6174665 67.2061053,55.2769272 C60.6491165,66.3767783 48.673355,73.1398273 35.7827604,73.0225731 C22.8921657,72.9053189 11.0413905,65.9255413 4.68736842,54.7082504 C4.34926316,54.1165191 4.03421053,53.5171029 3.73452632,52.910002 C1.27084507,47.9285208 -0.00730883594,42.4446461 -3.31780095e-15,36.8871473 C-3.31780095e-15,36.510591 -3.31780095e-15,36.1186651 -3.31780095e-15,35.7497936 C0.442452219,21.552868 9.16403371,8.93329184 22.287214,3.50160634 C35.4103942,-1.93007917 50.4985286,0.834653392 60.8435789,10.5666307 C68.1205809,17.3842933 72.2442,26.9150085 72.2315789,36.8871473 L72.2315789,36.8871473 Z" id="Path" fill="#EF5D44"></path>
                        <path d="M60.8435789,10.5666307 C51.1614737,15.5002867 47.2809474,11.1660469 46.1052632,9.99026907 C44.5684211,8.4533046 38.4210526,3.07392894 26.8947368,11.5272335 C20.8088421,15.9844305 14.9457895,14.0324856 10.7578947,11.1737317 C24.5778171,-2.45500559 46.6974228,-2.72312281 60.8435789,10.5666307 L60.8435789,10.5666307 Z" id="Path" fill="#CC2727"></path>
                        <ellipse id="Oval" fill="#CC2727" cx="33.8105263" cy="25.3599138" rx="6.14736842" ry="6.14785789"></ellipse>
                        <ellipse id="Oval" fill="#CC2727" cx="58.4" cy="32.2762539" rx="4.61052632" ry="4.61089342"></ellipse>
                        <path d="M70.8561053,46.7851985 C70.0145534,49.7627146 68.7874953,52.6174665 67.2061053,55.2769272 C60.6491165,66.3767783 48.673355,73.1398273 35.7827604,73.0225731 C22.8921657,72.9053189 11.0413905,65.9255413 4.68736842,54.7082504 C4.34926316,54.1165191 4.03421053,53.5171029 3.73452632,52.910002 C8.23747368,53.1405466 14.1927368,54.1549432 17.6736842,57.6361677 C23.8210526,63.7840256 29.9684211,56.8676855 29.9684211,55.330721 C29.9684211,53.7937565 32.2736842,39.192594 38.4210526,41.4980408 C44.5684211,43.8034875 42.2631579,46.1089342 41.4947368,47.6458986 C40.7263158,49.1828631 37.6526316,54.5622388 44.5684211,56.8676855 C51.4842105,59.1731322 52.2526316,63.0155434 56.0947368,52.2567921 C58.6996842,44.9562108 66.2686316,44.733351 70.8561053,46.7851985 Z" id="Path" fill="#CC2727"></path>
                        <ellipse id="Oval" fill="#FEAEC9" cx="51.6763158" cy="37.9707073" rx="4.97168421" ry="4.97208007"></ellipse>
                        <ellipse id="Oval" fill="#232323" cx="47.3501053" cy="33.6441523" rx="3.67305263" ry="3.67334509"></ellipse>
                        <ellipse id="Oval" fill="#FFFFFF" cx="48.6487368" cy="32.3454173" rx="1.08347368" ry="1.08355995"></ellipse>
                        <path d="M39.7888421,40.1301424 C39.7888421,42.1588748 38.1443604,43.8034875 36.1157895,43.8034875 C34.0872185,43.8034875 32.4427368,42.1588748 32.4427368,40.1301424" id="Path" stroke="#232323" stroke-width="1.30130001" stroke-linecap="round"></path>
                    </g>
                    <g id="Sun" transform="translate(4.000000, 613.180107)">
                        <path d="M100.244553,50.0894309 C91.9674797,55.8373984 90.793252,61.3718699 96.3030894,69.5996748 C86.5643902,71.3815447 83.5015447,75.8895935 85.5626016,85.5297561 C75.922439,83.4686992 71.4143902,86.5315447 69.6325203,96.2702439 C61.4211382,90.7604065 55.9030894,91.9346341 50.1222764,100.211707 C44.3743089,91.9346341 38.8398374,90.7604065 30.6120325,96.2702439 C28.8301626,86.5315447 24.3221138,83.4686992 14.6819512,85.5297561 C16.7430081,75.922439 13.6801626,71.4390244 3.94146341,69.6325203 C9.45130081,61.4047154 8.27707317,55.9030894 0,50.0894309 C8.27707317,44.3414634 9.45130081,38.8398374 3.94146341,30.6120325 C13.6801626,28.8301626 16.7430081,24.3221138 14.6819512,14.6819512 C24.3221138,16.7430081 28.8301626,13.6801626 30.6120325,3.94146341 C38.8398374,9.45130081 44.3414634,8.27707317 50.0894309,0 C55.8373984,8.27707317 61.3718699,9.45130081 69.5996748,3.94146341 C71.4390244,13.6801626 75.922439,16.7430081 85.5626016,14.6819512 C83.5015447,24.3221138 86.5643902,28.8301626 96.3030894,30.6120325 C90.793252,38.8398374 91.9674797,44.3414634 100.244553,50.0894309 Z" id="Path" fill="#FA8D28"></path>
                        <circle id="Oval" fill="#F4BE28" cx="50.1222764" cy="50.1222764" r="38.5934959"></circle>
                        <circle id="Oval" fill="#FEAEC9" cx="66.7503252" cy="51.2800813" r="5.31276423"></circle>
                        <circle id="Oval" fill="#232323" cx="62.1273171" cy="46.6570732" r="3.92504065"></circle>
                        <circle id="Oval" fill="#FFFFFF" cx="63.5150407" cy="45.2693496" r="1.15780488"></circle>
                        <path d="M54.0473171,53.5874797 C54.0473171,55.7552198 52.2900165,57.5125203 50.1222764,57.5125203 C47.9545363,57.5125203 46.1972358,55.7552198 46.1972358,53.5874797" id="Path" stroke="#232323" stroke-width="1.39027203" stroke-linecap="round"></path>
                    </g>
                    <g id="Moon" transform="translate(17.000000, 0.000000)">
                        <path d="M75.8080808,38.4 C75.8269798,43.6590333 74.739339,48.8629404 72.6161616,53.672 L72.5443434,53.824 C72.4884848,53.96 72.4246465,54.096 72.3608081,54.224 C71.9937374,55.024 71.5628283,55.824 71.1718182,56.56 C71.1718182,56.632 71.1,56.696 71.060101,56.768 C70.9244444,57.032 70.7728283,57.288 70.6212121,57.568 C69.3780144,59.6726521 67.9320811,61.6501018 66.3041414,63.472 L66.3041414,63.472 C65.6817172,64.176 65.0273737,64.848 64.3490909,65.496 C63.3399515,66.4704 62.2741108,67.3840008 61.1571717,68.232 L60.8778788,68.448 C60.079899,69.072 59.2021212,69.664 58.3243434,70.216 C57.0210479,71.0490376 55.6641756,71.7946678 54.2626263,72.448 L54.1189899,72.512 C41.6170742,78.3150719 26.9480025,76.7793359 15.9117172,68.512 C15.7122222,68.368 15.5207071,68.216 15.3291919,68.064 L14.5312121,67.424 C14.0125253,67 13.4938384,66.552 12.9990909,66.088 L12.7676768,65.928 C12.4245455,65.608 12.0814141,65.28 11.7542424,64.952 C9.37721139,62.5701089 7.32944205,59.8794752 5.66565657,56.952 C5.08313131,55.92 4.54848485,54.864 4.06969697,53.752 C3.98191919,53.576 3.91010101,53.4 3.83030303,53.216 C3.48717172,52.416 3.18393939,51.616 2.90464646,50.816 L2.85676768,50.68 C1.62748814,47.1422115 0.933531795,43.4398308 0.797979798,39.696 L0.797979798,39.696 C0.794000723,39.6347315 0.794000723,39.5732685 0.797979798,39.512 C0.797979798,39.1333333 0.797979798,38.7626667 0.797979798,38.4 C0.797979798,38.008 0.797979798,37.6 0.797979798,37.216 C0.797979798,36.464 0.86979798,35.712 0.941616162,34.976 L0.941616162,34.912 C0.941616162,34.864 0.941616162,34.816 0.941616162,34.768 L0.941616162,34.768 C1.3775121,30.2263763 2.64915056,25.8050609 4.69212121,21.728 C4.7559596,21.592 4.81979798,21.456 4.89161616,21.32 C4.96343434,21.184 4.89161616,21.232 4.95545455,21.192 C5.24272727,20.632 5.5459596,20.08 5.85717172,19.536 L5.85717172,19.536 C5.8753026,19.4943949 5.89664696,19.4542729 5.9210101,19.416 C6.10454545,19.104 6.28808081,18.8 6.47959596,18.496 C8.68609527,14.9428171 11.4757538,11.789068 14.7307071,9.168 L14.930202,9 C15.8275892,8.27381552 16.7625218,7.59554183 17.7311111,6.968 C17.9705051,6.8 18.209899,6.648 18.4572727,6.496 C18.7046465,6.344 18.7525253,6.312 18.9041414,6.224 C20.1679955,5.44639076 21.4792567,4.74902163 22.830202,4.136 C34.7658164,-1.27461584 48.6507413,-0.0620656102 59.4734343,7.336 C59.7713468,7.53866667 60.0665993,7.74666667 60.3591919,7.96 L60.3591919,7.96 C60.8778788,8.344 61.3806061,8.76 61.8753535,9.144 L62.3381818,9.528 C65.9607605,12.5545008 68.9796467,16.2406231 71.2356566,20.392 C71.3872727,20.672 71.5309091,20.944 71.6745455,21.232 C72.1214141,22.088 72.5283838,22.96 72.9034343,23.856 C74.0091892,26.494943 74.8123187,29.2512835 75.2973737,32.072 C75.3013068,32.0985209 75.3013068,32.1254791 75.2973737,32.152 L75.2973737,32.152 L75.8080808,36.736 C75.8080808,37.288 75.8080808,37.848 75.8080808,38.4 Z" id="Path" fill="#E7E5E6"></path>
                        <ellipse id="Oval" fill="#BBB5BF" cx="47.8787879" cy="21.6" rx="10.3737374" ry="10.4"></ellipse>
                        <path d="M72.3288889,54.224 C71.9618182,55.024 71.5309091,55.824 71.139899,56.56 C71.139899,56.632 71.0680808,56.696 71.0281818,56.768 C70.8925253,57.032 70.7409091,57.288 70.5892929,57.568 C69.3460952,59.6726521 67.9001619,61.6501018 66.2722222,63.472 L66.2722222,63.472 C65.649798,64.176 64.9954545,64.848 64.3171717,65.496 C63.3080323,66.4704 62.2421917,67.3840008 61.1252525,68.232 L60.8459596,68.448 C60.0479798,69.072 59.170202,69.664 58.2924242,70.216 C56.9994418,71.047802 55.6532681,71.7934125 54.2626263,72.448 L54.1189899,72.512 C46.4276333,71.0318268 41.0321417,64.0514763 41.5223569,56.2152618 C42.0125721,48.3790473 48.2357128,42.129216 56.0512684,41.6240369 C63.866824,41.1188577 70.8389858,46.5157757 72.3288889,54.224 L72.3288889,54.224 Z" id="Path" fill="#BBB5BF"></path>
                        <ellipse id="Oval" fill="#FEAEC9" cx="54.4621212" cy="39.528" rx="5.16292929" ry="5.176"></ellipse>
                        <ellipse id="Oval" fill="#232323" cx="49.9694949" cy="35.024" rx="3.81434343" ry="3.824"></ellipse>
                        <ellipse id="Oval" fill="#FFFFFF" cx="51.3180808" cy="33.672" rx="1.12515152" ry="1.128"></ellipse>
                        <path d="M42.1173737,41.776 C42.1173737,43.8879369 40.409634,45.6 38.3030303,45.6 C36.1964266,45.6 34.4886869,43.8879369 34.4886869,41.776" id="Path" stroke="#232323" stroke-width="1.35200002" stroke-linecap="round"></path>
                    </g>
                    <g id="Asteroid" transform="translate(15.000000, 124.000000)">
                        <path d="M14.6030303,11.696 L37.8561616,1.512 C39.8793983,0.62333054 42.1672642,0.554520799 44.24,1.32 L63.040404,8.24 C65.296093,9.06660645 67.0986604,10.8098195 68.0038384,13.04 L78.2020202,38.28 C78.9589328,40.1461607 79.0324327,42.2207042 78.4094949,44.136 L69.7593939,70.784 C68.8344563,73.6248014 66.499971,75.7772375 63.5989899,76.464 L42.7956566,81.376 C40.5530807,81.9018187 38.1937402,81.4979846 36.2522222,80.256 L10.7647475,63.936 C9.35549723,63.0241726 8.24533547,61.7164301 7.57282828,60.176 L0.718181818,44.608 C-0.239610637,42.4151773 -0.239610637,39.9208227 0.718181818,37.728 L10.2061616,16.128 C11.0647513,14.1496238 12.6343411,12.5674929 14.6030303,11.696 Z" id="Path" fill="#F5DFAD"></path>
                        <path d="M49.5306061,23.456 L50.639798,12.88 C50.7069959,12.2306893 51.0351209,11.6368354 51.5485378,11.2353262 C52.0619546,10.833817 52.7163602,10.6592991 53.3609091,10.752 L55.7548485,11.096 C56.2308716,11.1629569 56.6757644,11.3720284 57.0316162,11.696 L64.8757576,18.848 C65.1261867,19.0703734 65.327346,19.3428985 65.4662626,19.648 L66.4557576,21.96 C66.7575147,22.6423749 66.7254031,23.4266595 66.3688771,24.0819452 C66.0123511,24.7372309 65.372003,25.1889102 64.6363636,25.304 L63.6069697,25.472 C63.1150738,25.5574338 62.6611169,25.791967 62.3062626,26.144 L61.3806061,27.08 C60.8060544,27.6550825 59.9799228,27.8990318 59.1861616,27.728 L51.389899,26.056 C50.2003275,25.7901724 49.3998488,24.6707982 49.5306061,23.456 L49.5306061,23.456 Z" id="Path" fill="#D0C3A3"></path>
                        <path d="M64.6363636,38.4 L68.0676768,41.264 C68.4393141,41.5500157 68.5839465,42.0440461 68.4254448,42.4860521 C68.266943,42.9280582 67.8416542,43.2166808 67.3734343,43.2 L61.0853535,43.2 C60.6410984,43.2171189 60.2319846,42.9588788 60.0553637,42.5498517 C59.8787429,42.1408245 59.9708976,41.6650358 60.2873737,41.352 L63.1441414,38.488 C63.5370333,38.0611893 64.1962679,38.0223127 64.6363636,38.4 L64.6363636,38.4 Z" id="Path" fill="#D0C3A3"></path>
                        <path d="M62.5376768,51.68 L65.9450505,59.68 C66.2562626,60.408 65.57,61.632 64.5565657,62.592 C63.2477867,63.8023497 61.3026773,64.0103533 59.7686869,63.104 L52.4591919,58.896 C50.8153535,58.416 50.3764646,56.848 51.6612121,55.928 L58.4759596,50.912 C59.7447475,49.968 61.9870707,50.4 62.5376768,51.68 Z" id="Path" fill="#D0C3A3"></path>
                        <path d="M39.5478788,21.112 L41.5508081,22.112 C42.084332,22.3810092 42.444856,22.9034777 42.5077938,23.4988562 C42.5707316,24.0942347 42.3274502,24.6808554 41.8620202,25.056 L40.0984848,26.464 C39.4934768,26.9482615 38.6462801,26.9870148 37.999798,26.56 L34.8876768,24.472 C34.5172515,24.2284226 34.2981286,23.8107075 34.3078624,23.3666971 C34.3175963,22.9226866 34.5548134,22.5150265 34.9355556,22.288 L36.7070707,21.224 C37.5725609,20.7019768 38.6441704,20.6597282 39.5478788,21.112 Z" id="Path" fill="#D0C3A3"></path>
                        <path d="M45.3252525,36.304 L48.0623232,40.48 C48.8560899,41.6837257 48.5602171,43.3010214 47.3920202,44.144 L40.0745455,49.16 C39.5601473,49.514179 38.9258667,49.647508 38.3128826,49.5303104 C37.6998985,49.4131128 37.1590818,49.0551148 36.8108081,48.536 L36.220303,47.736 C35.8973375,47.2657576 35.7273157,46.706898 35.7335354,46.136 L35.7335354,42.2 C35.7326949,41.4239525 36.0674426,40.685643 36.6512121,40.176 L41.8141414,35.768 C42.3313527,35.3210121 43.0176326,35.1230457 43.6927109,35.226102 C44.3677893,35.3291582 44.9641902,35.7229365 45.3252525,36.304 Z" id="Path" fill="#D0C3A3"></path>
                        <path d="M22.3434343,49.088 C22.8137017,48.9380599 23.3274986,49.0308972 23.7159596,49.336 C24.3064646,49.856 24.2266667,50.784 24.1548485,51.568 C24.0741805,52.3653026 24.0528421,53.1675204 24.0910101,53.968 C24.0609976,54.549924 24.2520372,55.121635 24.6256566,55.568 C25.00958,55.8493845 25.461249,56.0233308 25.9343434,56.072 C29.9446632,56.9384077 33.7425367,58.5973847 37.1060606,60.952 C38.8274004,62.0370615 40.3677182,63.3869018 41.6705051,64.952 C42.9736968,66.5310311 43.7099839,68.5031905 43.7612121,70.552 C43.7836061,71.0431192 43.6849399,71.5322037 43.4739394,71.976 C43.2541899,72.4200058 42.824229,72.7214389 42.3328283,72.776 C41.8279098,72.7586323 41.3438973,72.5696152 40.960303,72.24 C38.0417094,70.0962983 35.3276073,67.6859874 32.8528283,65.04 C32.2047796,64.2699777 31.3845532,63.6642146 30.4588889,63.272 C29.2060606,62.84 27.8415152,63.224 26.5328283,63.448 C24.6847967,63.7708142 22.7950012,63.7708142 20.9469697,63.448 C19.4467677,63.184 17.340101,62.48 16.749596,60.88 C16.5095033,59.8306333 16.4635231,58.7460053 16.6139394,57.68 C16.6834922,56.5223828 16.9255706,55.381734 17.3321212,54.296 C18.0905243,52.2778412 19.4933059,50.5677403 21.3220202,49.432 C21.6449857,49.2705314 21.9887335,49.1547613 22.3434343,49.088 L22.3434343,49.088 Z" id="Path" fill="#D0C3A3"></path>
                        <ellipse id="Oval" fill="#FEAEC9" cx="55.5633333" cy="42.328" rx="5.16292929" ry="5.176"></ellipse>
                        <ellipse id="Oval" fill="#232323" cx="51.0786869" cy="37.824" rx="3.81434343" ry="3.824"></ellipse>
                        <ellipse id="Oval" fill="#FFFFFF" cx="52.4272727" cy="36.472" rx="1.12515152" ry="1.128"></ellipse>
                        <path d="M43.2185859,44.576 C43.2185859,46.6879369 41.5108461,48.4 39.4042424,48.4 C37.2976387,48.4 35.589899,46.6879369 35.589899,44.576" id="Path" stroke="#232323" stroke-width="1.35200002" stroke-linecap="round"></path>
                    </g>
                    <g id="Saturn" transform="translate(0.000000, 254.400000)">
                        <path d="M86.9359477,34.3578947 C86.9359479,46.3770614 80.4954484,57.4832295 70.040523,63.4928129 C59.5855977,69.5023964 46.7045984,69.5023964 36.2496731,63.4928129 C25.7947477,57.4832295 19.3542482,46.3770614 19.3542484,34.3578947 C19.3542484,34.0071579 19.3542484,33.6421053 19.3542484,33.2985263 C19.6480783,14.7185046 35.0149532,-0.106431249 53.6771242,0.186105263 C72.3392951,0.478641775 87.2297776,15.777873 86.9359477,34.3578947 L86.9359477,34.3578947 Z" id="Path" fill="#FDC72F"></path>
                        <path d="M75.7490196,9.30526316 C70.903268,9.06905263 66.0287582,9.00463158 61.2980392,10.0210526 C59.1411765,10.5006316 57.0346405,11.2092632 54.827451,11.3023158 C52.3183007,11.4025263 49.8594771,10.7010526 47.4006536,10.2214737 C42.8429119,9.42682718 38.2128878,9.11967761 33.5895425,9.30526316 C33.2228758,9.30526316 31.8712418,9.43410526 30.4980392,9.50568421 C31.729732,8.37206663 33.0521943,7.34029892 34.4522876,6.42063158 C35.5993001,6.41228885 36.7454198,6.48644673 37.8816993,6.64252632 C43.5901961,7.35831579 49.2052288,9.34821053 54.9568627,8.98315789 C59.0045752,8.72547368 62.8653595,7.32252632 66.9130719,6.77136842 C68.6292914,6.5471669 70.3586189,6.43716844 72.0895425,6.44210526 C72.9815265,7.03567815 73.842963,7.67353638 74.6705882,8.35326316 C74.7764538,8.43034074 74.8773093,8.51401703 74.972549,8.60378947 C75.2313725,8.81852632 75.4901961,9.04042105 75.7490196,9.30526316 Z" id="Path" fill="#E39F30"></path>
                        <path d="M80.1202614,54.7292632 C79.49341,55.5600167 78.8238912,56.3579913 78.1143791,57.12 C75.9575163,57.0054737 73.8006536,56.9553684 71.6437908,57.0555789 C66.1509804,57.3204211 60.7444444,58.6016842 55.2444444,58.8021053 C46.2431373,59.1170526 37.2130719,56.5473684 28.3052288,57.0197895 C27.6102397,56.2705965 26.9535948,55.488 26.3352941,54.672 L26.9679739,54.5646316 C28.4189592,54.3722766 29.8849804,54.3171534 31.3464052,54.4 C38.7156863,54.7077895 45.9124183,57.0484211 53.2816993,56.9338947 C62.0385621,56.8050526 70.7091503,53.2117895 79.3581699,54.6075789 C79.6098039,54.6218947 79.8686275,54.6648421 80.1202614,54.7292632 Z" id="Path" fill="#E39F30"></path>
                        <path d="M83.7941176,19.992 C78.5169935,21.1444211 73.1464052,22.032 67.8189542,21.2947368 C63.8431373,20.7364211 59.996732,19.2833684 55.9777778,19.1473684 C51.0816993,18.9469474 46.3294118,20.6934737 41.454902,21.2088421 C35.3006536,21.8602105 29.1392157,20.5503158 23.0928105,19.176 C23.5457516,18.2812632 24.0418301,17.4151579 24.5738562,16.5705263 C24.9261438,16.0050526 25.2928105,15.4538947 25.6882353,14.9098947 C26.7594771,15.4753684 27.7732026,16.2627368 28.8444444,16.8353684 C31.4470588,18.2669474 34.5529412,18.3886316 37.4718954,18.0450526 C40.3908497,17.7014737 43.2235294,16.8854737 46.1784314,16.4345263 C52.5124183,15.4538947 58.9830065,16.1983158 65.3385621,17.0644211 C68.6816993,17.5225263 72.0535948,18.0092632 75.4039216,17.7802105 C77.5668261,17.6539255 79.6886695,17.1373202 81.6660131,16.2555789 C81.9248366,16.6492632 82.169281,17.0501053 82.3849673,17.4509474 C82.5431373,17.7157895 82.7013072,17.9949474 82.8522876,18.2669474 C83.2189542,18.8181053 83.520915,19.3978947 83.7941176,19.992 Z" id="Path" fill="#E39F30"></path>
                        <path d="M86.224183,41.6804211 C86.0732026,42.3962105 85.8934641,43.0690526 85.6921569,43.7490526 C85.4908497,44.4290526 85.2607843,45.1806316 84.9732026,45.8534737 C80.3816966,46.6394524 75.7047191,46.80558 71.0686275,46.3473684 C66.4169935,45.7890526 61.9163399,44.336 57.2143791,44.2 C56.5745098,44.2 55.9346405,44.2 55.2947712,44.2 C50.269281,44.3789474 45.2941176,45.8105263 40.2614379,46.24 C33.8411765,46.8197895 27.4065359,45.8463158 21.072549,44.6509474 C20.509531,42.9036754 20.0934992,41.112797 19.8287582,39.2968421 C21.8921569,39.6547368 23.6104575,41.0004211 25.5084967,41.8665263 C28.5568627,43.2623158 32.1875817,43.4197895 35.624183,43.0762105 C39.0607843,42.7326316 42.4183007,41.9166316 45.8117647,41.4656842 C51.6496732,40.6926316 57.5810458,40.9932632 63.469281,41.5730526 L63.469281,41.5730526 C65.0581699,41.7376842 66.6326797,41.9094737 68.2071895,42.0955789 C72.1183007,42.5536842 76.0581699,43.0475789 79.9908497,42.8113684 C82.1089503,42.7038453 84.2041493,42.323702 86.224183,41.6804211 L86.224183,41.6804211 Z" id="Path" fill="#E39F30"></path>
                        <path d="M86.8424837,30.872 C85.4477124,31.7667368 83.8947712,32.6686316 82.2052288,33.5705263 C76.8849673,32.9907368 71.5287582,32.8046316 66.330719,33.9498947 C59.6024029,35.3557801 52.6618638,35.4287473 45.9052288,34.1646316 C37.996732,32.7330526 29.8294118,33.6922105 21.8633987,34.8804211 C21.0653595,34.9949474 20.2529412,35.1237895 19.4620915,35.3098947 C19.4620915,35.0092632 19.4620915,34.7014737 19.4620915,34.3936842 C19.4620915,34.0858947 19.4620915,33.6778947 19.4620915,33.3343158 C19.4620915,32.9907368 19.4620915,32.6757895 19.5124183,32.3465263 C19.5843137,31.2084211 19.7065359,30.0917895 19.8862745,28.9894737 C29.0313725,30.4210526 38.579085,25.6968421 47.8320261,27.1141053 C54.4895425,28.1305263 61.3124183,28.8033684 67.9627451,27.6294737 C74.030719,26.5557895 80.3718954,25.7397895 86.2960784,27.3216842 C86.5465835,28.4936867 86.7290212,29.6790915 86.8424837,30.872 Z" id="Path" fill="#E39F30"></path>
                        <ellipse id="Oval" fill="#FEAEC9" cx="67.7039216" cy="35.4244211" rx="4.65163399" ry="4.63115789"></ellipse>
                        <ellipse id="Oval" fill="#232323" cx="63.6633987" cy="31.3945263" rx="3.43660131" ry="3.42147368"></ellipse>
                        <ellipse id="Oval" fill="#FFFFFF" cx="64.8784314" cy="30.1848421" rx="1.01372549" ry="1.00926316"></ellipse>
                        <path d="M56.5888889,37.4357895 C56.5048032,39.2665587 54.9894781,40.7078038 53.1486928,40.7078038 C51.3079075,40.7078038 49.7925824,39.2665587 49.7084967,37.4357895" id="Path" stroke="#232323" stroke-width="1.2167999" stroke-linecap="round"></path>
                        <path d="M108.964706,20.2783158 C107.922222,16.4631579 104.557516,13.5212632 99.4960784,11.5313684 C99.4821226,11.526456 99.466897,11.526456 99.4529412,11.5313684 C93.3633987,9.11915789 84.8366013,8.10273684 74.972549,8.58947368 C76.7315345,10.055622 78.333717,11.6987256 79.7535948,13.4926316 C80.7418716,14.7352334 81.6404204,16.0460281 82.4424837,17.4151579 C89.5529412,17.2433684 94.2620915,18.4244211 95.0529412,21.0370526 C95.8437908,23.6496842 92.6803922,27.1355789 86.8424837,30.8576842 C79.9117647,35.2812632 69.1849673,39.9911579 56.775817,43.7418947 C43.6261438,47.7145263 31.4542484,49.7473684 23.1503268,49.6757895 C17.0176471,49.6328421 13.0058824,48.4446316 12.272549,46.0538947 C11.5392157,43.6631579 14.3071895,40.3275789 19.5411765,36.8416842 C19.4764706,36.0185263 19.4477124,35.1810526 19.4477124,34.3435789 C19.4477124,33.9928421 19.4477124,33.6277895 19.4477124,33.2842105 C19.4477124,32.9406316 19.4477124,32.6256842 19.4980392,32.2964211 C19.6709163,29.495546 20.1975019,26.727509 21.0653595,24.0576842 C7.06013072,32.0172632 -1.07124183,41.5587368 1.0496732,49.3894737 C1.10718954,49.6113684 1.17908497,49.8332632 1.25816993,50.048 C1.3372549,50.2627368 1.41633987,50.4774737 1.50980392,50.6922105 C1.60326797,50.9069474 1.63921569,50.9856842 1.71830065,51.1288421 C1.79738562,51.272 1.79019608,51.2934737 1.83333333,51.3722105 C1.87647059,51.4509474 1.99150327,51.6585263 2.08496732,51.8016842 C2.10834869,51.8524178 2.13728197,51.9004277 2.17124183,51.9448421 C2.25078153,52.0803387 2.33716682,52.2117352 2.43006536,52.3385263 C2.49531293,52.4495724 2.56987019,52.5549298 2.65294118,52.6534737 C2.6817189,52.7021237 2.71544767,52.747697 2.75359477,52.7894737 C2.85777979,52.9367475 2.9706125,53.0777651 3.09150327,53.2117895 C3.17777778,53.3191579 3.26405229,53.4193684 3.36470588,53.5267368 L3.4869281,53.6627368 C3.6379085,53.8202105 3.79607843,53.9848421 3.95424837,54.1351579 L4.50784314,54.6433684 C4.65882353,54.7722105 4.81699346,54.9082105 4.98235294,55.0370526 C10.3601307,59.3675789 20.4039216,61.4791579 32.7771242,61.1570526 C42.3164823,60.8068755 51.7821246,59.3487177 60.9816993,56.8122105 C68.93497,54.7046834 76.6621601,51.8278337 84.0529412,48.2227368 C101.013072,39.7835789 111.322876,28.9536842 108.964706,20.2783158 Z" id="Path" fill="#FFCB88"></path>
                        <path d="M106.441176,19.3263158 C105.650327,15.9764211 103.220261,13.3709474 99.4960784,11.5313684 C99.4821226,11.526456 99.466897,11.526456 99.4529412,11.5313684 C93.7803922,8.71831579 85.0738562,7.66610526 74.6705882,8.37473684 C74.7764538,8.45181442 74.8773093,8.53549072 74.972549,8.62526316 C76.7315345,10.0914115 78.333717,11.7345151 79.7535948,13.5284211 C90.6529412,13.5284211 98.7915033,15.7402105 99.9705882,20.0635789 C101.077778,24.0934737 95.620915,29.3688421 87.0294118,34.6513684 C78.8405229,39.6618947 67.7901961,44.7296842 56.8333333,48.6951579 C46.636284,52.2763928 35.8003533,53.6977576 25.0196078,52.8682105 C14.5660131,52.0665263 7.2254902,49.1962105 7.2254902,46.5263158 C7.2254902,43.52 11.7333333,37.9368421 19.5124183,32.3107368 C19.6794341,29.5056508 20.2012,26.7327441 21.0653595,24.0576842 C7.06013072,32.0172632 -1.07124183,41.5587368 1.0496732,49.3894737 C1.10718954,49.6113684 1.17908497,49.8332632 1.25816993,50.048 C1.3372549,50.2627368 1.41633987,50.4774737 1.50980392,50.6922105 C1.60326797,50.9069474 1.63921569,50.9856842 1.71830065,51.1288421 C1.79738562,51.272 1.79019608,51.2934737 1.83333333,51.3722105 C1.87647059,51.4509474 1.99150327,51.6585263 2.08496732,51.8016842 C2.10834869,51.8524178 2.13728197,51.9004277 2.17124183,51.9448421 C2.25078153,52.0803387 2.33716682,52.2117352 2.43006536,52.3385263 C2.49531293,52.4495724 2.56987019,52.5549298 2.65294118,52.6534737 C2.6817189,52.7021237 2.71544767,52.747697 2.75359477,52.7894737 C2.85777979,52.9367475 2.9706125,53.0777651 3.09150327,53.2117895 C3.17777778,53.3191579 3.26405229,53.4193684 3.36470588,53.5267368 L3.4869281,53.6627368 C3.6379085,53.8202105 3.79607843,53.9848421 3.95424837,54.1351579 L4.50784314,54.6433684 C4.65882353,54.7722105 4.81699346,54.9082105 4.98235294,55.0370526 C10.2163399,59.1528421 19.8575163,61.0496842 31.727451,60.3267368 C41.5160093,59.6271705 51.1675716,57.6341054 60.4281046,54.4 C69.1228506,51.5303026 77.5714821,47.9684856 85.6921569,43.7490526 C100.143137,36.0185263 108.367974,27.4934737 106.441176,19.3263158 Z" id="Path" fill="#F78C26"></path>
                    </g>
                </g>
            </g>
        </g>
    </g>
</svg>